<?xml version="1.0" encoding="UTF-8" standalone="no"?>
<!DOCTYPE svg  PUBLIC '-//W3C//DTD SVG 1.1//EN'  'http://www.w3.org/Graphics/SVG/1.1/DTD/svg11.dtd'>
<svg version="1.1" xmlns="http://www.w3.org/2000/svg">
<defs>
<font id="Avila-Bold" horiz-adv-x="346">
<font-face descent="-200" font-weight="700" units-per-em="1000" unicode-range="U+000D-FB04" x-height="500" underline-position="-150" ascent="800" font-family="Avila Bold" bbox="-60 -200 1034 968" cap-height="700" underline-thickness="50" panose-1="2 0 0 0 0 0 0 0 0 0"/>
<missing-glyph/>
<glyph unicode=" " glyph-name="space" horiz-adv-x="250"/>
<glyph d="M37 74q0 35 24.5 59.5t59.5 24.5t59.5 -24.5t24.5 -59.5t-24.5 -59.5t-59.5 -24.5t-59.5 24.5t-24.5 59.5zM102 232q-21 0 -22 16q-41 309 -45 430q0 37 26 62q23 20 59 20t59 -20q26 -25 26 -62q-4 -121 -45 -430q-1 -16 -22 -16h-36z" unicode="!" glyph-name="exclam" horiz-adv-x="240"/>
<glyph d="M88 517q-11 0 -14 10q-4 15 -16 56.5t-17.5 66.5t-5.5 47q0 27 20 46q18 15 44 15q27 0 43 -15q21 -20 21 -46q-1 -17 -5.5 -39.5t-8.5 -39t-13 -47t-13 -44.5q-2 -10 -13 -10h-22zM272 517q-11 0 -14 10q-4 15 -16 56.5t-17.5 66.5t-5.5 47q0 27 20 46q18 15 44 15 q27 0 43 -15q21 -20 21 -46q-1 -17 -5.5 -39.5t-8.5 -39t-13 -47t-13 -44.5q-2 -10 -13 -10h-22z" unicode='&quot;' glyph-name="quotedbl" horiz-adv-x="382"/>
<glyph d="M40 181v70h124l30 102h-125v70h145l51 177h74l-51 -177h86l51 177h74l-51 -177h104v-70h-124l-29 -102h124v-70h-144l-52 -181h-75l52 181h-85l-52 -181h-75l52 181h-104zM324 251l30 102h-86l-29 -102h85z" unicode="#" glyph-name="numbersign" horiz-adv-x="592"/>
<glyph d="M246 31h67v-40q97 8 158.5 63t61.5 138q0 46 -17 82t-49.5 60t-61 38.5t-68.5 28.5q-155 55 -156 125q0 42 28.5 68t75.5 26q33 0 61 -21.5t28 -54.5q0 -2 -0.5 -9.5t-0.5 -13.5q0 -35 19.5 -56.5t54.5 -21.5q28 0 47.5 22.5t19.5 54.5q0 55 -58 97.5t-143 51.5v-17h-67 v18q-89 -7 -145 -59.5t-56 -126.5q0 -149 209 -210q60 -18 101.5 -50.5t41.5 -72.5q0 -53 -36 -80t-88 -27q-50 0 -76.5 20.5t-26.5 72.5q0 2 0.5 9.5t0.5 13.5q0 33 -21 52t-50 19t-49.5 -19.5t-20.5 -50.5q0 -68 64 -114t152 -55v39zM246 781h67v-112q-26 2 -40 2 q-18 0 -27 -1v111zM313 -9v-139h-67v140q24 -2 35 -2q22 0 32 1z" unicode="$" glyph-name="dollar" horiz-adv-x="563"/>
<glyph d="M207 672q-51 0 -51 -133q0 -132 51 -132q22 0 36.5 31t14.5 101t-14.5 101.5t-36.5 31.5zM207 378q-74 0 -120.5 39t-46.5 122t46.5 122.5t120.5 39.5t120 -39.5t46 -122.5t-46 -122t-120 -39zM545 294q-51 0 -51 -133q0 -132 51 -132q22 0 36.5 31t14.5 101t-14.5 101.5 t-36.5 31.5zM149 0h-69l484 677q10 15 16.5 19t21.5 4h69l-484 -677q-10 -15 -16.5 -19t-21.5 -4zM545 0q-74 0 -120.5 39t-46.5 122t46.5 122.5t120.5 39.5t120 -39.5t46 -122.5t-46 -122t-120 -39z" unicode="%" glyph-name="percent" horiz-adv-x="751"/>
<glyph d="M316 -10q-125 0 -200.5 57t-75.5 159q0 65 35.5 117.5t93.5 80.5q9 6 9 11t-7 9l-11 7q-70 50 -70 134q0 80 55 127.5t171 47.5q92 0 145 -40.5t53 -97.5q0 -28 -19.5 -49t-49.5 -21q-70 0 -70 71q0 5 0.5 11t0.5 8q0 33 -17.5 57.5t-42.5 24.5q-76 0 -76 -139 q0 -34 5.5 -62.5t22 -50t42.5 -21.5h60q6 0 6 -31q0 -5 -5 -5h-62q-49 0 -84 -57t-35 -132q0 -80 35 -120t91 -40q82 0 117.5 55t35.5 144q0 15 -30 20l-20 4q-8 2 -8 35q0 6 6 6h188q6 0 6 -6q0 -33 -8 -35l-30 -4q-28 -3 -39 -7.5t-11 -14.5q0 -12 -2 -36l77 -128 q18 -30 42 -35l46 -8q8 -2 8 -30q0 -6 -6 -6h-150q-14 0 -22 0.5t-20 4t-22 12t-17 22.5l-2 3q-52 -52 -139 -52z" unicode="&amp;" glyph-name="ampersand" horiz-adv-x="724"/>
<glyph d="M88 517q-11 0 -14 10q-4 15 -16 56.5t-17.5 66.5t-5.5 47q0 27 20 46q18 15 44 15q27 0 43 -15q21 -20 21 -46q-1 -17 -5.5 -39.5t-8.5 -39t-13 -47t-13 -44.5q-2 -10 -13 -10h-22z" unicode="&apos;" glyph-name="quotesingle" horiz-adv-x="198"/>
<glyph d="M353 -104v-36q-140 0 -229 130t-89 335t89 335t229 130v-36q-40 0 -80 -56t-66.5 -156.5t-26.5 -216.5t26.5 -216.5t66.5 -156.5t80 -56z" unicode="(" glyph-name="parenleft" horiz-adv-x="363"/>
<glyph d="M10 -140v36q40 0 80 56t66.5 156.5t26.5 216.5t-26.5 216.5t-66.5 156.5t-80 56v36q140 0 229 -130t89 -335t-89 -335t-229 -130z" unicode=")" glyph-name="parenright" horiz-adv-x="363"/>
<glyph d="M357 527q-20 0 -86 12q42 -50 54 -68q5 -8 5 -20q0 -4 -2 -16q-5 -15 -18 -22q-10 -7 -20 -7q-7 0 -10 1q-19 4 -29 22q-12 19 -31 77q-19 -57 -31 -77q-9 -16 -30 -22q-15 -3 -29 6q-13 7 -19 22q-2 8 -2 12q0 12 6 24q12 20 53 68q-66 -12 -85 -12q-20 0 -34 14 q-9 10 -9 28q0 17 9 28q14 14 34 14q27 0 85 -12q-39 44 -53 68q-6 12 -6 24q0 4 2 12q6 15 19 22q13 9 29 6q21 -6 30 -22q15 -28 31 -78q18 53 31 78q10 18 29 22q2 0 5 0.5t4 0.5q9 0 21 -7q13 -7 18 -22q2 -12 2 -16q0 -12 -5 -20q-13 -23 -53 -68q58 12 85 12 q19 0 33 -14q10 -11 10 -28t-10 -28q-14 -14 -33 -14z" unicode="*" glyph-name="asterisk" horiz-adv-x="440"/>
<glyph d="M251 528h86v-211h212v-86h-212v-212h-86v212h-211v86h211v211z" unicode="+" glyph-name="plus" horiz-adv-x="589"/>
<glyph d="M40 73q0 36 22 60.5t58 24.5q50 0 76 -46q17 -28 17 -82q0 -52 -25.5 -98t-80.5 -100l-40 37q31 26 31 71q0 24 -3.5 36t-16.5 25q-38 40 -38 72z" unicode="," glyph-name="comma" horiz-adv-x="253"/>
<glyph d="M40 230v86h289v-86h-289z" unicode="-" glyph-name="hyphen" horiz-adv-x="369"/>
<glyph d="M40 74q0 35 24.5 59.5t59.5 24.5t59.5 -24.5t24.5 -59.5t-24.5 -59.5t-59.5 -24.5t-59.5 24.5t-24.5 59.5z" unicode="." glyph-name="period" horiz-adv-x="248"/>
<glyph d="M62 0h-62l304 677q10 23 38 23h62l-304 -677q-10 -23 -38 -23z" unicode="/" glyph-name="slash" horiz-adv-x="404"/>
<glyph d="M338 704q-62 0 -97.5 -85.5t-35.5 -253.5t35.5 -253.5t97.5 -85.5t97.5 85.5t35.5 253.5t-35.5 253.5t-97.5 85.5zM338 -10q-298 0 -298 375t298 375t298 -375t-298 -375z" unicode="0" glyph-name="zero" horiz-adv-x="676"/>
<glyph d="M244 720v-660q0 -4 3 -7.5t8.5 -5.5t10 -3t11 -2t7.5 -1l40 -5q8 -2 8 -30q0 -6 -6 -6h-310q-6 0 -6 6q0 28 8 30l40 5q1 0 7.5 1t11 2t10 3t8.5 5.5t3 7.5v570q0 11 -4.5 15.5t-15.5 4.5h-62q-6 0 -6 6q0 30 8 30q40 0 76.5 16t49.5 38h80q11 0 15.5 -4.5t4.5 -15.5z " unicode="1" glyph-name="one" horiz-adv-x="372"/>
<glyph d="M380 515q0 189 -102 189q-36 0 -57 -22.5t-21 -61.5q0 -2 0.5 -9t0.5 -13q0 -39 -24 -62t-64 -23q-37 0 -55 24.5t-18 60.5q0 58 71.5 100t166.5 42q117 0 192 -50t75 -155q0 -33 -17.5 -68t-50.5 -69t-60.5 -58.5t-66.5 -55t-50 -40.5q-95 -80 -131 -136q-3 -6 -1 -11 q2 -7 20 -7h267q25 0 40.5 14t18.5 28l3 14l3 49q0 8 30 8q6 0 6 -6v-182q0 -15 -15 -15h-501v55q0 25 45 73t118.5 112.5t94.5 86.5q82 85 82 188z" unicode="2" glyph-name="two" horiz-adv-x="596"/>
<glyph d="M265 740q117 0 191.5 -47.5t74.5 -127.5q0 -107 -90 -159q-9 -5 -9 -11q0 -7 6 -9q57 -25 90 -71t33 -109q0 -97 -93 -156.5t-203 -59.5q-103 0 -169 37.5t-66 104.5q0 31 23 55t57 24q32 0 56.5 -20.5t24.5 -56.5q0 -6 -0.5 -14t-0.5 -10q0 -41 21.5 -62.5t57.5 -21.5 q57 0 91 48.5t34 131.5q0 74 -34.5 121.5t-88.5 47.5h-61q-5 0 -5 5q0 31 6 31h60q55 1 75 42t20 112q0 65 -25 102t-76 37q-31 0 -53 -21.5t-22 -62.5q0 -2 0.5 -10t0.5 -15q0 -41 -27 -61.5t-65 -20.5q-35 0 -52 25.5t-17 59.5q0 58 71 100t164 42z" unicode="3" glyph-name="three" horiz-adv-x="601"/>
<glyph d="M92 240h244v367zM30 240l309 462q8 12 46.5 25t68.5 13q28 0 28 -20v-480h80q9 0 9 -8q0 -53 -11 -53h-78v-119q0 -4 3 -7.5t8.5 -5.5t10 -3t11 -2t7.5 -1l40 -5q8 -2 8 -30q0 -6 -6 -6h-310q-6 0 -6 6q0 28 8 30l40 5q1 0 7.5 1t11 2t10 3t8.5 5.5t3 7.5v119h-296 q-8 0 -14 6t-6 14v15q0 9 10 26z" unicode="4" glyph-name="four" horiz-adv-x="611"/>
<glyph d="M229 422q-87 0 -129 -53l-48 14l27 327q2 20 20 20h381q15 0 15 -15v-162q0 -6 -6 -6q-30 0 -30 8l-3 29q-1 6 -3 15.5t-18 25t-41 15.5h-234q-18 -1 -19 -23l-12 -158q-1 -6 2 -8t9 0q46 19 110 19q126 0 217 -63t91 -171q0 -68 -25 -117.5t-69 -76.5t-97 -39.5 t-118 -12.5q-91 0 -155 38t-64 104q0 30 23.5 54.5t54.5 24.5q33 0 58 -20.5t25 -56.5q0 -6 -0.5 -14t-0.5 -10q0 -40 21.5 -62t52.5 -22q128 0 128 210q0 71 -46 128.5t-117 57.5z" unicode="5" glyph-name="five" horiz-adv-x="588"/>
<glyph d="M326 26q52 0 85 54t33 156q0 80 -30 134t-87 54q-44 0 -83.5 -31t-42.5 -57q-6 -45 -6 -80q0 -100 36 -165t95 -65zM347 470q124 0 193 -63.5t69 -170.5q0 -122 -77.5 -184t-205.5 -62q-145 0 -220.5 75t-75.5 191q0 193 103.5 318t306.5 166l7 -25q3 -10 -15 -14 q-1 -1 -2 -1q-83 -24 -132.5 -93t-79.5 -177q-1 -6 2 -8t8 2q53 46 119 46z" unicode="6" glyph-name="six" horiz-adv-x="619"/>
<glyph d="M40 725q0 15 15 15h499q20 0 20 -20v-44q0 -7 -10 -26l-346 -638q-7 -12 -16 -12h-60l324 595q4 8 4 11q0 8 -12 8h-321q-24 -1 -38.5 -15t-16.5 -27l-3 -14l-3 -39q0 -8 -30 -8q-6 0 -6 6v208z" unicode="7" glyph-name="seven" horiz-adv-x="594"/>
<glyph d="M316 704q-37 0 -59 -35.5t-22 -93.5q0 -18 4 -33.5t9 -27t15.5 -22t17.5 -17t22.5 -14.5t22 -11t24 -10l22.5 -9q25 57 25 134q0 64 -20.5 101.5t-60.5 37.5zM316 26q45 0 78 45.5t33 124.5q0 54 -36 90t-75 51q-7 3 -26.5 9.5t-29.5 10.5q-55 -55 -55 -151 q0 -80 33.5 -130t77.5 -50zM316 740q120 0 183 -46t63 -129q0 -120 -125 -165q69 -24 112 -74.5t43 -119.5q0 -102 -75.5 -159t-200.5 -57t-200.5 57t-75.5 159q0 67 44 116.5t117 68.5q-131 61 -131 174q0 83 63 129t183 46z" unicode="8" glyph-name="eight" horiz-adv-x="632"/>
<glyph d="M293 704q-52 0 -85 -54t-33 -156q0 -80 30 -134t87 -54q44 0 83.5 31t42.5 57q6 45 6 80q0 230 -131 230zM272 260q-262 0 -262 234q0 119 83 182.5t200 63.5q143 0 219.5 -84t76.5 -203q0 -188 -110.5 -304t-319.5 -159l-7 25q-3 10 15 14q1 1 2 1q86 24 145 96.5 t87 173.5q1 6 -2 8t-8 -2q-53 -46 -119 -46z" unicode="9" glyph-name="nine" horiz-adv-x="619"/>
<glyph d="M40 416q0 35 24.5 59.5t59.5 24.5t59.5 -24.5t24.5 -59.5t-24.5 -59.5t-59.5 -24.5t-59.5 24.5t-24.5 59.5zM40 74q0 35 24.5 59.5t59.5 24.5t59.5 -24.5t24.5 -59.5t-24.5 -59.5t-59.5 -24.5t-59.5 24.5t-24.5 59.5z" unicode=":" glyph-name="colon" horiz-adv-x="248"/>
<glyph d="M40 73q0 36 22 60.5t58 24.5q50 0 76 -46q17 -28 17 -82q0 -52 -25.5 -98t-80.5 -100l-40 37q31 26 31 71q0 24 -3.5 36t-16.5 25q-38 40 -38 72zM42 416q0 35 24.5 59.5t59.5 24.5t59.5 -24.5t24.5 -59.5t-24.5 -59.5t-59.5 -24.5t-59.5 24.5t-24.5 59.5z" unicode=";" glyph-name="semicolon" horiz-adv-x="253"/>
<glyph d="M40 234v78l436 227v-89l-349 -176l349 -177v-90z" unicode="&lt;" glyph-name="less" horiz-adv-x="516"/>
<glyph d="M40 140v86h509v-86h-509zM40 321v86h509v-86h-509z" unicode="=" glyph-name="equal" horiz-adv-x="589"/>
<glyph d="M476 312v-78l-436 -227v90l349 177l-349 176v89z" unicode="&gt;" glyph-name="greater" horiz-adv-x="516"/>
<glyph d="M283 74q0 -35 -24.5 -59.5t-59.5 -24.5t-59.5 24.5t-24.5 59.5t24.5 59.5t59.5 24.5t59.5 -24.5t24.5 -59.5zM235 328v-84q0 -12 -12 -12h-38q-12 0 -12 12v172q0 16 16 16h27q49 0 71.5 43.5t22.5 110.5q0 139 -101 139q-32 0 -54.5 -24t-22.5 -60q0 -2 0.5 -8.5 t0.5 -12.5q0 -32 -17.5 -49.5t-48.5 -17.5q-25 0 -46 19t-21 47q0 59 61.5 100.5t147.5 41.5q118 0 182 -54.5t64 -140.5q0 -193 -205 -218q-15 -5 -15 -20z" unicode="?" glyph-name="question" horiz-adv-x="495"/>
<glyph d="M493 222l51 148q-7 41 -22.5 58.5t-44.5 17.5q-37 0 -68.5 -44t-46.5 -96.5t-15 -91.5q0 -42 12 -70.5t29 -28.5q60 0 105 107zM626 -114q-80 -35 -173 -35q-180 0 -296.5 110.5t-116.5 278.5q0 186 133 312.5t321 126.5q167 0 271.5 -89.5t104.5 -231.5 q0 -110 -80.5 -198t-203.5 -88q-43 0 -71.5 21.5t-32.5 58.5h-4q-51 -78 -109 -78q-39 0 -66 11t-40 31t-18 42t-5 51q0 62 28.5 122.5t85.5 102t126 41.5q28 0 49 -16t26 -45h3l15 39q4 11 8.5 13.5t21.5 2.5h66q14 0 17 -2t3 -8q0 -9 -3.5 -17t-10 -20.5t-11.5 -24.5 l-68 -192q-10 -28 -10 -54q0 -48 47 -48q48 0 87.5 88t39.5 172q0 125 -79.5 200.5t-190.5 75.5q-95 0 -174.5 -58t-122.5 -147.5t-43 -185.5q0 -157 84 -253t223 -96q69 0 126 17q9 4 18 4q3 0 6 -2t5.5 -6t4.5 -7.5t4.5 -9.5t4.5 -9z" unicode="@" glyph-name="at" horiz-adv-x="910"/>
<glyph d="M321 532q-4 12 -13 12q-8 0 -12 -9l-1 -3l-86 -232h185zM71 69l222 592q6 18 30.5 27t44.5 10.5t55 1.5q3 0 5 -3l209 -629q6 -17 34 -23l35 -4q8 -2 8 -35q0 -6 -6 -6h-278q-6 0 -6 6q0 33 8 35l30 4q11 1 7 20l-58 183h-221l-68 -184q-4 -16 8 -19l30 -4q8 -2 8 -35 q0 -6 -6 -6h-156q-6 0 -6 6q0 33 8 35l30 4q25 5 33 24z" unicode="A" glyph-name="A" horiz-adv-x="714"/>
<glyph d="M340 648h-69q-16 -2 -18 -18v-212q2 -16 18 -18h69q114 0 114 124q0 64 -34 94t-80 30zM510 200q0 72 -34.5 110t-79.5 38h-123q-18 0 -20 -18v-258q0 -8 6 -14t14 -6h123q45 0 79.5 38t34.5 110zM41 700h349q37 0 71.5 -6.5t73 -23.5t61.5 -54.5t23 -91.5q0 -56 -34 -93 t-75 -45q62 -11 113.5 -61t51.5 -125q0 -44 -16 -79.5t-41 -57.5t-56.5 -36.5t-60 -20.5t-55.5 -6h-405q-6 0 -6 6q0 33 8 35l20 4q30 5 30 18v574q0 13 -30 18l-20 4q-8 2 -8 35q0 6 6 6z" unicode="B" glyph-name="B" horiz-adv-x="700"/>
<glyph d="M366 -10q-66 0 -122.5 19.5t-103 60.5t-73.5 113t-27 167q0 77 19 138.5t51.5 102.5t77 68t94 39t104.5 12q49 0 97.5 -17t54.5 -17q14 0 19 23q3 11 41 11q9 0 9 -8v-202q0 -8 -9 -8q-41 0 -41 11q0 69 -46 113t-115 44q-72 0 -131.5 -76.5t-59.5 -233.5 q0 -82 18 -143.5t46.5 -93t58 -46.5t58.5 -15q71 0 121 41.5t65 108.5q2 6 14 6q9 0 22 -3.5t13 -9.5q0 -29 -15 -62.5t-43.5 -66.5t-80 -54.5t-116.5 -21.5z" unicode="C" glyph-name="C" horiz-adv-x="652"/>
<glyph d="M336 648h-65q-16 -2 -18 -18v-560q2 -16 18 -18h65q77 0 127.5 69t50.5 229t-50.5 229t-127.5 69zM376 700q46 0 88 -11t81.5 -36.5t69 -65t47 -100.5t17.5 -137t-17.5 -137t-47 -100.5t-69 -65t-81.5 -36.5t-88 -11h-335q-6 0 -6 6q0 33 8 35l20 4q30 5 30 20v572 q0 13 -30 18l-20 4q-8 2 -8 35q0 6 6 6h335z" unicode="D" glyph-name="D" horiz-adv-x="719"/>
<glyph d="M601 22q0 -22 -22 -22h-538q-6 0 -6 6q0 33 8 35l20 4q30 5 30 20v572q0 13 -30 18l-20 4q-8 2 -8 35q0 6 6 6h518q22 0 22 -22v-177q0 -8 -8 -8q-41 0 -41 11l-5 68q0 3 -1 8t-6 17.5t-12.5 22.5t-23.5 18.5t-36 9.5h-176q-18 0 -20 -18v-227q2 -16 18 -18h156 q13 0 18 30l4 20q2 8 35 8q6 0 6 -6v-156q0 -6 -6 -6q-33 0 -35 8l-4 20q-5 30 -18 30h-154q-18 0 -20 -18v-245q2 -16 18 -18h192q22 0 39 8t25.5 19t13.5 22t6 19l1 8l5 68q0 11 41 11q8 0 8 -8v-177z" unicode="E" glyph-name="E" horiz-adv-x="636"/>
<glyph d="M252 628v-228q0 -8 6 -14t14 -6h154q13 0 18 30l4 20q2 8 35 8q6 0 6 -6v-156q0 -6 -6 -6q-33 0 -35 8l-4 20q-5 30 -18 30h-154q-18 0 -20 -18v-245q0 -4 4 -7.5t11 -5.5t13 -3.5t13.5 -2.5t8.5 -1l30 -4q8 -2 8 -35q0 -6 -6 -6h-293q-6 0 -6 6q0 33 8 35l20 4 q30 5 30 20v572q0 13 -30 18l-20 4q-8 2 -8 35q0 6 6 6h518q22 0 22 -22v-177q0 -8 -8 -8q-41 0 -41 11l-5 68q0 3 -1 8t-6.5 18.5t-13.5 23.5t-25 18t-39 8h-172q-18 -2 -18 -20z" unicode="F" glyph-name="F" horiz-adv-x="611"/>
<glyph d="M366 40q68 0 106 65v160q0 12 -40 20l-20 4q-8 2 -8 35q0 6 6 6h274q6 0 6 -6q0 -33 -8 -35l-20 -4q-30 -5 -30 -18v-166q-42 -63 -104 -87t-162 -24q-66 0 -122.5 19.5t-103 60.5t-73.5 113t-27 167q0 96 27 167t76 112.5t109.5 61t133.5 19.5q49 0 97.5 -17t54.5 -17 q14 0 19 23q3 11 41 11q9 0 9 -8v-202q0 -8 -9 -8q-41 0 -41 11q0 69 -45.5 113t-115.5 44q-78 0 -134.5 -75.5t-56.5 -234.5q0 -158 49.5 -234t111.5 -76z" unicode="G" glyph-name="G" horiz-adv-x="720"/>
<glyph d="M671 635v-572q0 -13 30 -18l20 -4q8 -2 8 -35q0 -6 -6 -6h-264q-6 0 -6 6q0 33 8 35l20 4q30 5 30 20v285h-258v-285q0 -15 30 -20l20 -4q8 -2 8 -35q0 -6 -6 -6h-264q-6 0 -6 6q0 33 8 35l20 4q30 5 30 18v574q0 13 -30 18l-20 4q-8 2 -8 35q0 6 6 6h264q6 0 6 -6 q0 -33 -8 -35l-20 -4q-30 -5 -30 -18v-235h258v235q0 13 -30 18l-20 4q-8 2 -8 35q0 6 6 6h264q6 0 6 -6q0 -33 -8 -35l-20 -4q-30 -5 -30 -20z" unicode="H" glyph-name="H" horiz-adv-x="764"/>
<glyph d="M253 635v-572q0 -13 30 -18l20 -4q8 -2 8 -35q0 -6 -6 -6h-264q-6 0 -6 6q0 33 8 35l20 4q30 5 30 18v572q0 15 -30 20l-20 4q-8 2 -8 35q0 6 6 6h264q6 0 6 -6q0 -33 -8 -35l-20 -4q-30 -5 -30 -20z" unicode="I" glyph-name="I"/>
<glyph d="M200 44q50 0 69.5 66.5t19.5 239.5v287q0 13 -30 18l-20 4q-8 2 -8 35q0 6 6 6h264q6 0 6 -6q0 -33 -8 -35l-20 -4q-30 -5 -30 -20v-285q0 -196 -58 -278t-191 -82q-190 0 -190 109q0 35 24 52t53 17q32 0 50 -13t22 -31t6 -36t9.5 -31t25.5 -13z" unicode="J" glyph-name="J" horiz-adv-x="537"/>
<glyph d="M253 635v-295l231 296q6 8 3.5 15t-9.5 9l-20 4q-8 2 -8 30q0 6 6 6h196q6 0 6 -6q0 -28 -8 -30l-46 -8q-44 -9 -65 -31l-121 -154l233 -392q18 -30 42 -35l46 -8q8 -2 8 -30q0 -6 -6 -6h-173q-14 0 -22 0.5t-20 4t-22 12t-17 22.5l-167 307l-55 -70q-10 -13 -12 -42 v-171q0 -13 30 -18l20 -4q8 -2 8 -35q0 -6 -6 -6h-264q-6 0 -6 6q0 33 8 35l20 4q30 5 30 18v572q0 15 -30 20l-20 4q-8 2 -8 35q0 6 6 6h264q6 0 6 -6q0 -33 -8 -35l-20 -4q-30 -5 -30 -20z" unicode="K" glyph-name="K" horiz-adv-x="747"/>
<glyph d="M602 22q0 -22 -22 -22h-539q-6 0 -6 6q0 33 8 35l20 4q30 5 30 20v572q0 13 -30 18l-20 4q-8 2 -8 35q0 6 6 6h264q6 0 6 -6q0 -33 -8 -35l-20 -4q-30 -5 -30 -18v-567q2 -18 20 -18h196q32 0 52 19t23 38l4 19l5 68q0 11 41 11q8 0 8 -8v-177z" unicode="L" glyph-name="L" horiz-adv-x="632"/>
<glyph d="M396 35l-218 540v-510q0 -15 30 -20l50 -4q8 -2 8 -35q0 -6 -6 -6h-219q-6 0 -6 6q0 33 8 35l50 4q30 5 30 20v572q0 13 -30 18l-20 4q-8 2 -8 35q0 6 6 6h155q33 0 50 -6.5t31 -32.5l187 -466q6 -14 12 -14t11 11l198 469q5 14 13.5 22.5t21.5 12t21.5 4t23.5 0.5h156 q6 0 6 -6q0 -33 -8 -35l-20 -4q-30 -5 -30 -20v-572q0 -13 30 -18l20 -4q8 -2 8 -35q0 -6 -6 -6h-264q-6 0 -6 6q0 33 8 35l20 4q30 5 30 18v512l-212 -501q-12 -28 -21 -35t-31 -7h-71q-6 0 -8 3z" unicode="M" glyph-name="M" horiz-adv-x="992"/>
<glyph d="M221 700q32 0 48.5 -6.5t32.5 -32.5l350 -584v560q0 13 -30 18l-50 4q-8 2 -8 35q0 6 6 6h219q6 0 6 -6q0 -33 -8 -35l-50 -4q-30 -5 -30 -18v-617q0 -8 -6 -14t-14 -6h-99q-23 0 -36 1.5t-28.5 10.5t-26.5 27l-319 527v-503q0 -13 30 -18l50 -4q8 -2 8 -35q0 -6 -6 -6 h-219q-6 0 -6 6q0 33 8 35l50 4q30 5 30 20v572q0 13 -30 18l-20 4q-8 2 -8 35q0 6 6 6h150z" unicode="N" glyph-name="N" horiz-adv-x="830"/>
<glyph d="M366 656q-68 0 -114.5 -73t-46.5 -233t46.5 -233t114.5 -73t113 72.5t45 233.5t-45 233.5t-113 72.5zM366 -10q-62 0 -118 20t-104 60.5t-76 112.5t-28 167t28 167t76 112.5t104 60.5t118 20t117 -20t102.5 -60.5t75.5 -112.5t28 -167t-28 -167t-75.5 -112.5 t-102.5 -60.5t-117 -20z" unicode="O" glyph-name="O" horiz-adv-x="729"/>
<glyph d="M340 350q45 0 79.5 38.5t34.5 110.5t-34.5 110.5t-79.5 38.5h-69q-16 -2 -18 -18v-262q2 -18 20 -18h67zM390 298h-119q-16 -2 -18 -18v-215q0 -15 30 -20l20 -4q8 -2 8 -35q0 -6 -6 -6h-264q-6 0 -6 6q0 33 8 35l20 4q30 5 30 20v572q0 13 -30 18l-20 4q-8 2 -8 35 q0 6 6 6h349q34 0 71 -10.5t74 -32t60.5 -63t23.5 -95.5t-23.5 -95.5t-60.5 -63t-74 -32t-71 -10.5z" unicode="P" glyph-name="P" horiz-adv-x="634"/>
<glyph d="M366 656q68 0 113 -72.5t45 -233.5t-45 -233.5t-113 -72.5t-114.5 73t-46.5 233t46.5 233t114.5 73zM610 -167v-33q-59 0 -112.5 11t-100.5 33.5t-77 62t-36 92.5q41 -9 82 -9q42 0 83 9q5 -90 45.5 -128t115.5 -38zM449 -1q105 25 172.5 112t67.5 239q0 95 -28 167 t-75.5 112.5t-102.5 60.5t-117 20t-118 -20t-104 -60.5t-76 -112.5t-28 -167q0 -153 68.5 -240t175.5 -111q-1 8 -1 24h165q0 -4 0.5 -12t0.5 -12z" unicode="Q" glyph-name="Q" horiz-adv-x="729"/>
<glyph d="M340 370q46 0 80 34t34 105t-34 105t-80 34h-67q-18 0 -20 -18v-240q0 -18 18 -20h69zM305 318h-32q-18 0 -20 -18v-235q0 -15 30 -20l20 -4q8 -2 8 -35q0 -6 -6 -6h-264q-6 0 -6 6q0 33 8 35l20 4q30 5 30 18v574q0 13 -30 18l-20 4q-8 2 -8 35q0 6 6 6h349q35 0 71 -9 t73.5 -28.5t61 -59.5t23.5 -94q0 -132 -127 -176l156 -262q14 -24 37 -27l46 -8q8 -2 8 -30q0 -6 -6 -6h-165q-14 0 -22 0.5t-20 4t-22 12t-17 22.5l-139 255l-2 3q-14 21 -41 21z" unicode="R" glyph-name="R" horiz-adv-x="739"/>
<glyph d="M49 512q0 86 73.5 142t199.5 56q62 0 117 -17t58 -17q14 0 19 23q3 11 41 11q9 0 9 -8v-202q0 -8 -9 -8q-41 0 -41 11q0 66 -56 109.5t-125 43.5q-51 0 -91 -28.5t-40 -69.5q0 -21 15.5 -41t35 -33.5t53 -29t52 -22.5t50.5 -18q43 -16 71 -29t60.5 -37.5t49 -60.5 t16.5 -83q0 -96 -77 -155t-199 -59q-64 0 -113 12t-75 24.5t-33 12.5q-8 0 -18 -24q-2 -11 -42 -11q-8 0 -8 8l-7 223q0 9 8 9q42 0 42 -11q0 -86 60.5 -137.5t158.5 -51.5q57 0 102 29t45 87q0 80 -168 131q-38 11 -63 20t-60.5 28t-57 40.5t-37.5 56t-16 76.5z" unicode="S" glyph-name="S" horiz-adv-x="642"/>
<glyph d="M630 700q22 0 22 -22v-147q0 -8 -8 -8q-41 0 -41 11l-5 38q0 3 -1 8t-6.5 18.5t-13.5 23.5t-25 18t-39 8h-78q-18 0 -20 -18v-565q0 -15 30 -20l20 -4q8 -2 8 -35q0 -6 -6 -6h-264q-6 0 -6 6q0 33 8 35l20 4q30 5 30 18v567q-2 18 -20 18h-82q-33 -2 -52.5 -21t-22.5 -37 l-4 -18l-5 -38q0 -11 -41 -11q-8 0 -8 8v147q0 22 22 22h588z" unicode="T" glyph-name="T" horiz-adv-x="672"/>
<glyph d="M573 317v318q0 15 -30 20l-50 4q-8 2 -8 35q0 6 6 6h219q6 0 6 -6q0 -33 -8 -35l-50 -4q-30 -5 -30 -18v-320q0 -163 -57.5 -245t-190.5 -82q-46 0 -77.5 3.5t-67.5 14t-59 32.5t-43.5 57t-30 90.5t-9.5 129.5v320q0 13 -30 18l-20 4q-8 2 -8 35q0 6 6 6h264q6 0 6 -6 q0 -33 -8 -35l-20 -4q-30 -5 -30 -20v-318q0 -118 18 -177.5t50 -77t95 -17.5q82 0 119.5 78t37.5 194z" unicode="U" glyph-name="U" horiz-adv-x="726"/>
<glyph d="M625 633l-204 -594q-6 -18 -29.5 -27t-43 -10.5t-54.5 -1.5q-4 0 -5 3l-227 628q-8 18 -34 24l-35 4q-8 2 -8 35q0 6 6 6h275q6 0 6 -6q0 -33 -8 -35l-30 -4q-13 -3 -6 -23l164 -465q4 -13 13 -13q8 0 12 12l155 465q6 21 -6 24l-30 4q-8 2 -8 35q0 6 6 6h156q6 0 6 -6 q0 -33 -8 -35l-30 -4q-26 -5 -33 -22z" unicode="V" glyph-name="V" horiz-adv-x="686"/>
<glyph d="M223 635l122 -454q5 -14 14 -14q10 0 14 14l140 509h70q18 0 24 -5t13 -30l150 -477q4 -13 14 -13q8 0 12 11l116 456q3 20 -8 23l-30 4q-8 2 -8 35q0 6 6 6h156q6 0 6 -6q0 -33 -8 -35l-30 -4q-26 -5 -33 -24l-162 -592q-5 -14 -16 -22.5t-31.5 -12t-35.5 -4t-45 -0.5 q-3 0 -5 3l-146 451h-7q-125 -405 -126 -415q-3 -14 -16.5 -22.5t-38.5 -12t-42 -4t-48 -0.5q-4 0 -5 3l-180 631q-4 12 -10 15t-21 6l-35 4q-8 2 -8 35q0 6 6 6h273q6 0 6 -6q0 -33 -8 -35l-30 -4q-14 -3 -9 -20z" unicode="W" glyph-name="W" horiz-adv-x="1024"/>
<glyph d="M85 87l182 255l-152 271q-17 22 -65 31l-28 5q-11 3 -11 42q0 9 8 9h313q9 0 9 -9q0 -39 -11 -42l-28 -5q-14 -3 -14 -16q0 -8 4 -15l81 -144q8 -15 12 -18.5t10 -3.5q8 0 15 10l105 156q5 6 5 15q0 13 -14 16l-28 6q-12 2 -12 42q0 8 9 8h189q8 0 8 -8q0 -40 -11 -42 l-28 -6q-17 -3 -25 -8.5t-21 -22.5l-165 -231l166 -295q17 -22 65 -31l28 -6q11 -2 11 -42q0 -8 -8 -8h-314q-8 0 -8 8q0 40 11 42l28 6q14 3 14 17q0 7 -4 14l-96 171q-8 15 -12 18.5t-9 3.5q-7 0 -22 -22l-115 -171q-5 -6 -5 -15q0 -13 14 -16l28 -6q12 -2 12 -42 q0 -8 -9 -8h-189q-8 0 -8 8q0 40 11 42l28 6q16 3 24 8t22 23z" unicode="X" glyph-name="X" horiz-adv-x="692"/>
<glyph d="M572 613l-132 -273q-13 -36 -13 -113v-162q0 -15 30 -20l20 -4q8 -2 8 -35q0 -6 -6 -6h-264q-6 0 -6 6q0 33 8 35l20 4q30 5 30 20v206q0 8 -6 23l-157 319q-12 21 -65 31l-28 5q-11 3 -11 42q0 9 8 9h309q9 0 9 -9q0 -39 -11 -42l-28 -5q-14 -3 -14 -16q0 -5 4 -15 l100 -206q10 -18 18 -18q6 0 12 12l102 212q4 10 4 15q0 13 -13 16l-28 6q-12 2 -12 42q0 8 9 8h193q8 0 8 -8q0 -40 -11 -42l-28 -5q-15 -3 -22.5 -5t-19 -9t-17.5 -18z" unicode="Y" glyph-name="Y" horiz-adv-x="657"/>
<glyph d="M638 22q0 -22 -22 -22h-566q-12 0 -14 5t4 15l376 628h-235q-33 -2 -52.5 -21t-22.5 -37l-4 -18l-5 -68q0 -11 -41 -11q-8 0 -8 8v177q0 22 22 22h536q12 0 14 -5t-4 -15l-376 -628h265q32 0 52 19t23 38l4 19l5 68q0 11 41 11q8 0 8 -8v-177z" unicode="Z" glyph-name="Z" horiz-adv-x="673"/>
<glyph d="M336 -102v-46h-296v929h296v-45h-151v-838h151z" unicode="[" glyph-name="bracketleft"/>
<glyph d="M404 0h-62q-28 0 -38 23l-304 677h62q28 0 38 -23z" unicode="\" glyph-name="backslash" horiz-adv-x="404"/>
<glyph d="M10 -148v46h151v838h-151v45h296v-929h-296z" unicode="]" glyph-name="bracketright"/>
<glyph d="M197 731h78l187 -336h-90l-137 249l-136 -249h-89z" unicode="^" glyph-name="asciicircum" horiz-adv-x="472"/>
<glyph d="M-10 -126v71h603v-71h-603z" unicode="_" glyph-name="underscore" horiz-adv-x="583"/>
<glyph d="M63 672q-23 16 -23 43q0 26 18.5 45t44.5 19q28 0 45 -20q18 -22 36.5 -62t28.5 -69.5t10 -35.5q0 -5 -7 -5q-22 0 -53 19q-58 35 -100 66z" unicode="`" glyph-name="grave" horiz-adv-x="263"/>
<glyph d="M243 44q34 0 65 40.5t30 92.5l-3 91q-73 -4 -116.5 -33t-43.5 -101q0 -90 68 -90zM477 376l10 -284q1 -42 55 -42q6 0 6 -6q0 -27 -8 -30q-24 -8 -78 -16t-76 -8q-31 0 -33 26q-2 27 -3 51h-8q-59 -77 -147 -77q-72 0 -118.5 37.5t-46.5 106.5q0 161 304 166l-2 77 q0 45 -20.5 71.5t-50.5 26.5q-21 0 -37 -17.5t-16 -41.5q0 -2 0.5 -8t0.5 -10q0 -27 -20.5 -42t-50.5 -15q-62 0 -62 56q0 53 52.5 83t133.5 30q86 0 150.5 -35t64.5 -99z" unicode="a" glyph-name="a" horiz-adv-x="568"/>
<glyph d="M343 459q-38 0 -72.5 -31t-36.5 -71v-232q26 -99 109 -99q52 0 79 55t27 179q0 98 -28 148.5t-78 50.5zM343 -10q-123 0 -189 66q-8 8 -12 8t-6.5 -12.5t-3.5 -27.5l-2 -16q-2 -8 -36 -8q-6 0 -6 6v687q0 42 -52 42q-6 0 -6 6q0 28 8 30q25 6 81 12.5t84 6.5q31 0 31 -20 v-333q24 31 64 52t86 21q33 0 68.5 -14t69.5 -42.5t55.5 -79t21.5 -114.5q0 -78 -23.5 -133.5t-63 -84t-81 -40.5t-88.5 -12z" unicode="b" glyph-name="b" horiz-adv-x="634"/>
<glyph d="M440 136q1 4 10 4q22 0 22 -14q0 -43 -56.5 -89.5t-130.5 -46.5q-58 0 -100.5 12t-78 40t-53.5 80t-18 128q0 260 250 260q86 0 130.5 -32t44.5 -81q0 -27 -20 -46.5t-52 -19.5q-30 0 -45.5 18.5t-15.5 48.5q0 4 0.5 10t0.5 8q0 26 -11.5 42t-31.5 16q-100 0 -100 -224 q0 -66 9.5 -109.5t27 -63.5t35 -27t40.5 -7q52 0 93 29.5t50 63.5z" unicode="c" glyph-name="c" horiz-adv-x="512"/>
<glyph d="M291 457q-47 0 -76.5 -48t-29.5 -149q0 -219 98 -219q36 0 75.5 31t41.5 59v226q-2 40 -36.5 70t-72.5 30zM400 8v59q-69 -77 -150 -77q-215 0 -215 270q0 116 60.5 183t160.5 67q95 0 144 -62v245q0 42 -52 42q-6 0 -6 6q0 28 8 30q25 6 81 12.5t84 6.5q31 0 31 -20 v-685q3 -37 52 -37q6 0 6 -6q0 -27 -8 -30q-25 -9 -81 -16.5t-84 -7.5q-31 0 -31 20z" unicode="d" glyph-name="d" horiz-adv-x="629"/>
<glyph d="M285 474q-51 0 -74 -43t-26 -145h176q7 0 7 17q-3 92 -22 131.5t-61 39.5zM285 510q107 0 167 -62.5t60 -177.5q0 -8 -6 -14t-14 -6h-298q-9 0 -9 -7q1 -63 12 -105.5t31.5 -61.5t39.5 -25.5t44 -6.5q53 0 101 30t57 62q1 4 10 4q22 0 22 -14q0 -42 -65 -89t-140 -47 q-38 0 -71.5 6t-69.5 23t-62 45t-42.5 75.5t-16.5 110.5q0 71 22.5 123.5t60.5 81t80 42t87 13.5z" unicode="e" glyph-name="e" horiz-adv-x="547"/>
<glyph d="M301 755q-62 0 -62 -139v-116h104q6 0 6 -6q0 -40 -8 -40h-102v-394q0 -7 6 -13t14 -7l50 -4q8 0 8 -30q0 -6 -6 -6h-270q-6 0 -6 6q0 28 8 30l20 4q30 5 30 20v394h-50q-8 0 -8 40q0 6 6 6h52v95q0 87 53.5 141t161.5 54q62 0 107.5 -32t45.5 -73q0 -31 -19 -51t-53 -20 q-27 0 -44 17t-17 45q0 79 -27 79z" unicode="f" glyph-name="f" horiz-adv-x="411"/>
<glyph d="M262 199q35 0 57 28.5t22 107.5t-22 107.5t-57 28.5q-78 0 -78 -136t78 -136zM466 468q-12 3 -24 3q-18 0 -31 -7q68 -49 68 -129q0 -47 -22.5 -83t-57.5 -55t-70 -28t-67 -9h-84q-34 0 -34 -24q0 -25 34 -27l147 -11q82 -6 134.5 -42.5t52.5 -109.5q0 -146 -250 -146 q-227 0 -227 124q0 24 17 45.5t52 21.5q33 0 47.5 -17t14.5 -41q0 -6 -2 -18t-2 -20q0 -27 25.5 -41t90.5 -14q52 0 82.5 20t30.5 58q0 24 -13 37t-28 17t-44 7l-137 10q-57 4 -92 30.5t-35 67.5q0 44 30 65.5t79 21.5h1q3 0 3 4q0 2 -3 5q-48 20 -78 58t-30 94 q0 47 23 82.5t58 54.5t70 28.5t67 9.5q51 0 101 -20q25 43 65 69q19 12 47 15q3 1 10 1q30 0 47 -26q8 -14 8 -29q0 -32 -27 -48q-13 -8 -27 -8q-8 0 -20 4z" unicode="g" glyph-name="g" horiz-adv-x="540"/>
<glyph d="M239 770v-333q27 30 70 51.5t90 21.5q80 0 128 -33t48 -99v-318q0 -4 1.5 -7t3 -4.5t5.5 -3t6 -2.5t7.5 -2t6.5 -1l20 -4q8 -2 8 -30q0 -6 -6 -6h-250q-6 0 -6 6q0 28 8 30l20 4q30 5 30 20v318q0 39 -22.5 60t-60.5 21q-29 0 -61 -19.5t-46 -44.5v-337q2 -13 30 -18 l20 -4q8 -2 8 -30q0 -6 -6 -6h-250q-6 0 -6 6q0 28 8 30l20 4q28 5 30 18v635q0 42 -52 42q-6 0 -6 6q0 28 8 30q25 6 81 12.5t84 6.5q31 0 31 -20z" unicode="h" glyph-name="h" horiz-adv-x="658"/>
<glyph d="M239 490v-432q1 -13 30 -18l20 -4q8 -2 8 -30q0 -6 -6 -6h-250q-6 0 -6 6q0 28 8 30l20 4q30 5 30 18v355q0 42 -52 42q-6 0 -6 6q0 28 8 30q25 6 81 12.5t84 6.5q31 0 31 -20zM74 694q0 35 24.5 59.5t59.5 24.5t59.5 -24.5t24.5 -59.5t-24.5 -59.5t-59.5 -24.5 t-59.5 24.5t-24.5 59.5z" unicode="i" glyph-name="i" horiz-adv-x="322"/>
<glyph d="M144 694q0 35 24.5 59.5t59.5 24.5t59.5 -24.5t24.5 -59.5t-24.5 -59.5t-59.5 -24.5t-59.5 24.5t-24.5 59.5zM309 4q0 -97 -55 -150.5t-166 -53.5q-148 0 -148 92q0 32 19 49.5t53 17.5q30 0 47 -19t17 -46q0 -59 35 -59q52 0 52 139v439q0 42 -52 42q-6 0 -6 6 q0 28 8 30q25 6 81 12.5t84 6.5q31 0 31 -20v-486z" unicode="j" glyph-name="j" horiz-adv-x="392"/>
<glyph d="M93 60v633q0 42 -52 42q-6 0 -6 6q0 28 8 30q25 6 81 12.5t84 6.5q31 0 31 -20v-513l175 181q5 8 2.5 14t-9.5 8l-20 4q-8 2 -8 30q0 6 6 6h194q6 0 6 -6q0 -28 -8 -30l-46 -8q-41 -7 -63 -29l-82 -84l188 -265q21 -29 47 -34l46 -8q8 -2 8 -30q0 -6 -6 -6h-154 q-14 0 -21.5 0.5t-19 4t-21.5 12t-19 22.5l-140 210l-46 -48l-2 -3q-7 -8 -7 -29v-109q0 -15 30 -20l20 -4q8 -2 8 -30q0 -6 -6 -6h-250q-6 0 -6 6q0 28 8 30l20 4q30 5 30 20z" unicode="k" glyph-name="k" horiz-adv-x="688"/>
<glyph d="M93 60v633q0 42 -52 42q-6 0 -6 6q0 28 8 30q25 6 81 12.5t84 6.5q31 0 31 -20v-710q0 -15 30 -20l20 -4q8 -2 8 -30q0 -6 -6 -6h-250q-6 0 -6 6q0 28 8 30l20 4q30 5 30 20z" unicode="l" glyph-name="l" horiz-adv-x="322"/>
<glyph d="M224 490v-70l15 17q27 30 70 51.5t90 21.5q125 0 163 -73q3 -4 6 -4t7 4q27 30 70 51.5t90 21.5q80 0 128 -33t48 -99v-320q2 -13 30 -18l20 -4q8 -2 8 -30q0 -6 -6 -6h-250q-6 0 -6 6q0 28 8 30l20 4q28 5 30 18v320q0 39 -22.5 60t-60.5 21q-29 0 -61 -19.5t-46 -44.5 v-337q2 -13 30 -18l20 -4q8 -2 8 -30q0 -6 -6 -6h-250q-6 0 -6 6q0 28 8 30l20 4q28 6 30 18v320q0 39 -22.5 60t-60.5 21q-29 0 -61 -19.5t-46 -44.5v-335q0 -15 30 -20l20 -4q8 -2 8 -30q0 -6 -6 -6h-250q-6 0 -6 6q0 28 8 30l20 4q30 5 30 20v353q0 42 -52 42q-6 0 -6 6 q0 28 8 30q25 6 77 12.5t73 6.5q31 0 31 -20z" unicode="m" glyph-name="m" horiz-adv-x="994"/>
<glyph d="M224 490v-70q77 90 175 90q80 0 128 -33t48 -99v-318q0 -15 30 -20l20 -4q8 -2 8 -30q0 -6 -6 -6h-250q-6 0 -6 6q0 28 8 30l20 4q30 5 30 20v318q0 39 -22.5 60t-60.5 21q-29 0 -61 -19.5t-46 -44.5v-337q0 -13 30 -18l20 -4q8 -2 8 -30q0 -6 -6 -6h-250q-6 0 -6 6 q0 28 8 30l20 4q30 5 30 18v355q0 42 -52 42q-6 0 -6 6q0 28 8 30q25 6 77 12.5t73 6.5q31 0 31 -20z" unicode="n" glyph-name="n" horiz-adv-x="658"/>
<glyph d="M285 26q55 0 77.5 50.5t22.5 173.5t-22.5 173.5t-77.5 50.5t-77.5 -50.5t-22.5 -173.5t22.5 -173.5t77.5 -50.5zM285 510q45 0 87 -13.5t80 -42t60.5 -81t22.5 -123.5t-22.5 -123.5t-60.5 -81t-80 -42t-87 -13.5t-87 13.5t-80 42t-60.5 81t-22.5 123.5t22.5 123.5 t60.5 81t80 42t87 13.5z" unicode="o" glyph-name="o" horiz-adv-x="570"/>
<glyph d="M348 41q47 0 76.5 49t29.5 150q0 219 -98 219q-37 0 -76 -29t-41 -57v-231q2 -40 36.5 -70.5t72.5 -30.5zM239 490v-53q65 73 150 73q62 0 106.5 -24t67 -65t32 -85t9.5 -96q0 -127 -61 -188.5t-154 -61.5q-46 0 -86 21t-64 52v-203q0 -15 30 -20l20 -4q8 -2 8 -30 q0 -6 -6 -6h-250q-6 0 -6 6q0 28 8 30l20 4q28 5 30 18v555q0 42 -52 42q-6 0 -6 6q0 28 8 30q25 6 81 12.5t84 6.5q31 0 31 -20z" unicode="p" glyph-name="p" horiz-adv-x="639"/>
<glyph d="M400 143v231q-28 100 -109 100q-52 0 -79 -55t-27 -179q0 -98 28 -148.5t78 -50.5q38 0 72.5 31t36.5 71zM291 510q123 0 189 -66q8 -8 12 -8t6.5 12.5t3.5 27.5l2 16q2 8 36 8q6 0 6 -6v-636q2 -13 30 -18l20 -4q8 -2 8 -30q0 -6 -6 -6h-250q-6 0 -6 6q0 28 8 30l20 4 q30 5 30 20v203q-24 -31 -64 -52t-86 -21q-33 0 -68.5 14t-69.5 42.5t-55.5 79t-21.5 114.5q0 78 23.5 133.5t63 84t81 40.5t88.5 12z" unicode="q" glyph-name="q" horiz-adv-x="644"/>
<glyph d="M324 437q-85 0 -85 -168v-211q2 -16 20 -18l50 -4q8 0 8 -30q0 -6 -6 -6h-270q-6 0 -6 6q0 28 8 30l20 4q28 5 30 18v355q0 42 -52 42q-6 0 -6 6q0 28 8 30q25 6 77 12.5t73 6.5q31 0 31 -20v-86q66 106 158 106q100 0 100 -70q0 -25 -17 -41.5t-50 -16.5 q-25 0 -50.5 27.5t-40.5 27.5z" unicode="r" glyph-name="r" horiz-adv-x="487"/>
<glyph d="M43 367q0 66 58 104.5t147 38.5q48 0 94.5 -12.5t48.5 -12.5q9 0 13 17q2 8 30 8q6 0 6 -6v-146q0 -6 -6 -6q-30 0 -30 8q0 47 -40 75.5t-91 28.5q-46 0 -75 -15.5t-29 -46.5q0 -25 36 -46t81 -33q31 -9 47.5 -14t48.5 -20t49 -32t31.5 -46.5t14.5 -65.5 q0 -74 -65.5 -114.5t-156.5 -40.5q-43 0 -78.5 8.5t-56 17.5t-26.5 9q-9 0 -13 -17q-2 -8 -30 -8q-6 0 -6 6l-5 161q0 6 6 6q30 0 30 -8q0 -61 43.5 -95t114.5 -34q116 0 116 72q0 48 -101 77q-34 9 -50.5 14.5t-51.5 21.5t-53.5 33t-34.5 47t-16 66z" unicode="s" glyph-name="s" horiz-adv-x="507"/>
<glyph d="M88 70v384h-65q-8 0 -8 40q0 6 6 6h67v92q0 11 43 28t75 17q28 0 28 -20v-117h104q6 0 6 -6q0 -40 -8 -40h-102v-352q0 -39 45 -39q8 0 18 1t19 3t12 2q6 0 7 -4q2 -8 2 -19q0 -8 -4 -12q-57 -34 -156 -34q-38 0 -63.5 20t-25.5 50z" unicode="t" glyph-name="t" horiz-adv-x="359"/>
<glyph d="M244 480v-358q0 -39 22.5 -60t60.5 -21q29 0 59.5 19.5t47.5 45.5v301q0 38 -52 38q-6 0 -6 6q0 28 8 30q25 6 81 12.5t84 6.5q31 0 31 -20v-388q0 -42 52 -42q6 0 6 -6q0 -27 -8 -30q-24 -8 -74 -16t-71 -8q-31 0 -31 20v62q-76 -82 -173 -82q-95 0 -139 36t-44 96v285 q0 38 -52 38q-6 0 -6 6q0 28 8 30q25 6 81 12.5t84 6.5q31 0 31 -20z" unicode="u" glyph-name="u" horiz-adv-x="663"/>
<glyph d="M61 438q-7 17 -33 22l-20 4q-8 2 -8 30q0 6 6 6h235q6 0 6 -6q0 -28 -8 -30l-20 -4q-9 -2 -13.5 -7t-1.5 -12l116 -286q4 -10 10 -10t10 10l94 283q0 1 0.5 2.5t0.5 2.5q0 12 -18 17l-20 4q-8 2 -8 30q0 6 6 6h143q6 0 6 -6q0 -28 -8 -30l-20 -4q-25 -5 -33 -22 l-141 -399q-8 -23 -27.5 -31t-70.5 -8q-4 0 -5 3z" unicode="v" glyph-name="v" horiz-adv-x="538"/>
<glyph d="M206 442l97 -288q4 -9 9 -9q6 0 9 10l106 329q2 6 7 6h54q20 0 26 -17l111 -319q4 -9 10 -9q5 0 9 10l95 286q4 16 -8 19l-20 4q-8 2 -8 30q0 6 6 6h132q6 0 6 -6q0 -28 -8 -30l-20 -4q-27 -5 -33 -22l-141 -399q-14 -39 -105 -39q-4 0 -5 3l-99 294q-4 12 -12 12 q-7 0 -11 -12l-87 -258q-16 -39 -104 -39q-4 0 -5 3l-156 435q-8 17 -33 22l-20 4q-8 2 -8 30q0 6 6 6h231q6 0 6 -6q0 -28 -8 -30l-20 -4q-12 -3 -9 -18z" unicode="w" glyph-name="w" horiz-adv-x="841"/>
<glyph d="M241 438l64 -97q12 -18 20 -18q7 0 18 14l77 101q6 8 3.5 14t-10.5 8l-20 4q-8 2 -8 30q0 6 6 6h144q6 0 6 -6q0 -28 -8 -30l-20 -4q-17 -3 -33 -22l-130 -166l139 -210q10 -15 46 -22l20 -4q8 -2 8 -30q0 -6 -6 -6h-257q-6 0 -6 6q0 28 8 30l20 4q8 2 10 8t-3 14 l-86 129q-7 10 -15 10t-19 -16l-88 -123q-5 -8 -3 -14t10 -8l20 -4q8 -2 8 -30q0 -6 -6 -6h-144q-6 0 -6 6q0 28 8 30l20 4q20 4 33 22l142 191l-122 185q-10 15 -46 22l-20 4q-8 2 -8 30q0 6 6 6h257q6 0 6 -6q0 -28 -8 -30l-20 -4q-8 -2 -10 -8t3 -14z" unicode="x" glyph-name="x" horiz-adv-x="563"/>
<glyph d="M61 438q-7 17 -33 22l-20 4q-8 2 -8 30q0 6 6 6h235q6 0 6 -6q0 -28 -8 -30l-20 -4q-9 -2 -13.5 -7t-1.5 -12l116 -286q4 -10 10 -10t10 10l94 283q0 1 0.5 2.5t0.5 2.5q0 12 -18 17l-20 4q-8 2 -8 30q0 6 6 6h143q6 0 6 -6q0 -28 -8 -30l-20 -4q-25 -5 -33 -22 l-194 -547q-19 -54 -46 -72.5t-82 -18.5q-41 0 -72.5 24t-31.5 60q0 26 17.5 45.5t45.5 19.5q16 0 31 -11.5t18 -26.5q1 -3 2 -10.5t1.5 -12t2 -11.5t3.5 -11t4.5 -8t6 -6t7.5 -2q29 0 44 41l13 38q3 11 3 21q0 6 -2 16z" unicode="y" glyph-name="y" horiz-adv-x="538"/>
<glyph d="M456 500q6 0 6 -6q0 -39 -12 -59l-243 -379q-8 -20 12 -20h135q30 0 48 16t21 32l3 17l4 58q0 9 35 9q7 0 7 -7v-146q0 -15 -15 -15h-418q-4 0 -4 4q0 25 10 42l252 393l2 3q10 18 -8 22h-151q-24 -1 -38.5 -15t-17.5 -27l-2 -14l-4 -50q0 -8 -30 -8q-6 0 -6 6v129 q0 15 15 15h399z" unicode="z" glyph-name="z" horiz-adv-x="497"/>
<glyph d="M40 305v40q0 13 13 13q37 0 78.5 20.5t53.5 51.5q9 22 9 56q0 17 -3 50t-3 47q0 77 15 115q23 55 81 73.5t156 18.5v-24q0 -14 -13 -15q-75 -5 -97 -59q-9 -24 -9 -58q0 -15 1.5 -47.5t1.5 -48.5q0 -63 -18 -108q-34 -84 -155 -105q121 -21 155 -105q18 -45 18 -108 q0 -16 -1.5 -48.5t-1.5 -47.5q0 -34 9 -58q22 -54 97 -59q13 -1 13 -15v-24q-98 0 -156 18.5t-81 73.5q-15 38 -15 115q0 14 3 47t3 50q0 34 -9 56q-12 31 -53.5 51.5t-78.5 20.5q-13 0 -13 13z" unicode="{" glyph-name="braceleft" horiz-adv-x="450"/>
<glyph d="M135 780v-960h-95v960h95z" unicode="|" glyph-name="bar" horiz-adv-x="175"/>
<glyph d="M410 345v-40q0 -13 -13 -13q-37 0 -78.5 -20.5t-53.5 -51.5q-9 -22 -9 -56q0 -17 3 -50t3 -47q0 -77 -15 -115q-23 -55 -81 -73.5t-156 -18.5v24q0 14 13 15q75 5 97 59q9 24 9 58q0 15 -1.5 47.5t-1.5 48.5q0 63 18 108q34 84 155 105q-121 21 -155 105q-18 45 -18 108 q0 16 1.5 48.5t1.5 47.5q0 34 -9 58q-22 54 -97 59q-13 1 -13 15v24q98 0 156 -18.5t81 -73.5q15 -38 15 -115q0 -14 -3 -47t-3 -50q0 -34 9 -56q12 -31 53.5 -51.5t78.5 -20.5q13 0 13 -13z" unicode="}" glyph-name="braceright" horiz-adv-x="450"/>
<glyph d="M435 331l23 -19q-17 -50 -53.5 -83t-81.5 -33q-35 0 -81 20q-15 6 -35 18t-34.5 18t-30.5 6q-22 0 -41 -12t-28 -31q-6 -9 -11 -4l-22 24q18 47 54 79t80 32q35 0 81 -20q15 -6 35 -18t34.5 -18t30.5 -6q21 0 40.5 12t28.5 30q6 9 11 5z" unicode="~" glyph-name="asciitilde" horiz-adv-x="498"/>
<glyph d="M37 486q0 35 24.5 59.5t59.5 24.5t59.5 -24.5t24.5 -59.5t-24.5 -59.5t-59.5 -24.5t-59.5 24.5t-24.5 59.5zM102 328h36q21 0 22 -16q41 -309 45 -430q0 -37 -26 -62q-23 -20 -59 -20t-59 20q-26 25 -26 62q4 121 45 430q1 16 22 16z" unicode="¡" glyph-name="exclamdown" horiz-adv-x="240"/>
<glyph d="M440 136q1 4 10 4q22 0 22 -14q0 -43 -55 -89t-128 -47v-138h-47v140q-99 8 -153 67t-54 191q0 237 207 258v140h47v-138q84 -1 127.5 -32.5t43.5 -80.5q0 -27 -20 -46.5t-52 -19.5q-30 0 -45.5 18.5t-15.5 48.5q0 4 0.5 10t0.5 8q0 26 -11.5 42t-31.5 16 q-100 0 -100 -224q0 -66 9.5 -109.5t27 -63.5t35 -27t40.5 -7q52 0 93 29.5t50 63.5z" unicode="¢" glyph-name="cent" horiz-adv-x="512"/>
<glyph d="M372 700q89 0 142.5 -36t53.5 -96q0 -30 -20.5 -50.5t-49.5 -20.5q-66 0 -77 70q-1 8 -3 23t-3.5 22.5t-5 18.5t-7.5 16t-12 9t-18 4q-109 0 -109 -233q0 -25 4 -91h145q6 0 6 -6q0 -40 -8 -40h-142q-5 -67 -32.5 -125.5t-75.5 -70.5v-8h415v-86h-540v74q24 6 41 29 t26 56t13 65t4 66h-60q-8 0 -8 40q0 6 6 6h60q-2 42 -2 60q0 161 61 232.5t196 71.5z" unicode="£" glyph-name="sterling" horiz-adv-x="610"/>
<glyph d="M189 271q0 -37 26.5 -64t64.5 -27t64.5 27t26.5 64t-26.5 64t-64.5 27t-64.5 -27t-26.5 -64zM123 271q0 45 25 85l-102 102q-2 4 -2 6q0 15 26 41q11 11 23 0l102 -102q37 25 85 25t85 -25l102 102q11 11 23 0q26 -26 26 -41q0 -2 -2 -6l-102 -102q25 -38 25 -85t-25 -85 l102 -102q11 -11 0 -23q-30 -26 -41 -26q-4 0 -7 3l-101 101q-37 -25 -85 -25q-45 0 -85 25l-102 -102q-4 -2 -6 -2q-15 0 -41 26q-12 11 0 23l102 102q-25 37 -25 85z" unicode="¤" glyph-name="currency" horiz-adv-x="560"/>
<glyph d="M509 202q12 0 12 -12v-28q0 -12 -12 -12h-86v-85q0 -15 30 -20l20 -4q8 -2 8 -35q0 -6 -6 -6h-264q-6 0 -6 6q0 33 8 35l20 4q30 5 30 20v85h-96q-12 0 -12 12v28q0 12 12 12h342zM509 327q12 0 12 -12v-28q0 -12 -12 -12h-342q-12 0 -12 12v28q0 12 12 12h78l-141 286 q-12 21 -65 31l-28 5q-11 3 -11 42q0 9 8 9h309q9 0 9 -9q0 -39 -11 -42l-28 -5q-14 -3 -14 -16q0 -5 4 -15l100 -206q10 -18 18 -18q6 0 12 12l102 212q4 10 4 15q0 13 -13 16l-28 6q-12 2 -12 42q0 8 9 8h193q8 0 8 -8q0 -40 -11 -42l-28 -5q-15 -3 -22.5 -5t-19 -9 t-17.5 -18l-132 -273q-2 -3 -4 -13h73z" unicode="¥" glyph-name="yen" horiz-adv-x="657"/>
<glyph d="M135 780v-360h-95v360h95zM135 180v-360h-95v360h95z" unicode="¦" glyph-name="brokenbar" horiz-adv-x="175"/>
<glyph d="M202 400q-21 -6 -36 -24t-15 -44q0 -66 127 -112q6 -2 18.5 -7t18.5 -7q15 5 26 24.5t11 48.5q0 46 -28 68.5t-83 41.5zM45 300q0 80 74 127q-74 42 -74 128q0 64 60.5 109.5t134.5 45.5q27 0 55.5 -5.5t58.5 -17t49 -36t19 -57.5q0 -27 -17.5 -47t-41.5 -20t-45 16 t-21 42q0 6 3 15t3 17q0 23 -22.5 33t-45.5 10q-34 0 -61 -19.5t-27 -53.5q0 -15 8.5 -27.5t25 -22t30 -16t36.5 -15t31 -11.5q30 -11 46.5 -17.5t46 -23.5t45.5 -34t29.5 -45.5t13.5 -61.5q0 -83 -70 -131q70 -41 70 -124q0 -73 -65.5 -120.5t-146.5 -47.5 q-93 0 -152.5 41.5t-59.5 110.5q0 28 19 47.5t50 19.5q29 0 48 -17.5t19 -44.5q0 -6 -3 -18t-3 -20q0 -31 18 -50t73 -19q36 0 66 19.5t30 64.5q0 27 -17.5 46t-37.5 27t-56 17q-31 10 -49 17t-49.5 24t-50 35t-33 47t-14.5 63z" unicode="§" glyph-name="section" horiz-adv-x="494"/>
<glyph d="M266 694q0 35 24.5 59.5t59.5 24.5t59.5 -24.5t24.5 -59.5t-24.5 -59.5t-59.5 -24.5t-59.5 24.5t-24.5 59.5zM30 694q0 35 24.5 59.5t59.5 24.5t59.5 -24.5t24.5 -59.5t-24.5 -59.5t-59.5 -24.5t-59.5 24.5t-24.5 59.5z" unicode="¨" glyph-name="dieresis" horiz-adv-x="464"/>
<glyph d="M618 205q-3 -26 -15.5 -51t-47.5 -47.5t-87 -22.5q-83 0 -138 51.5t-55 160.5q0 110 58.5 161.5t145.5 51.5q29 0 58 -10.5t32 -10.5q7 0 12 14q2 7 23 7q6 0 6 -5v-118q0 -5 -6 -5q-23 0 -23 6q0 40 -27.5 66t-68.5 26q-43 0 -77.5 -45t-34.5 -138q0 -91 33.5 -133.5 t72.5 -42.5q42 0 71.5 25t39.5 64q2 3 7 3q22 0 21 -7zM98 298q0 -150 106 -256t256 -106t256 106t106 256t-106 256t-256 106t-256 -106t-106 -256zM40 298q0 174 123 297t297 123t297 -123t123 -297t-123 -297t-297 -123t-297 123t-123 297z" unicode="©" glyph-name="copyright" horiz-adv-x="920"/>
<glyph d="M168 404q21 0 41 28t21 65l-2 64q-48 -4 -76 -24t-28 -70q0 -63 44 -63zM320 636l6 -199q1 -29 36 -29q4 0 4 -4q0 -19 -5 -21q-16 -6 -50.5 -11.5t-49.5 -5.5q-21 0 -21 18q-2 19 -2 36h-6q-38 -54 -95 -54q-46 0 -76.5 26.5t-30.5 74.5q0 110 187 115q10 2 10 9l-1 46 q0 31 -13.5 49.5t-32.5 18.5q-14 0 -24.5 -12t-10.5 -29q0 -1 0.5 -5t0.5 -7q0 -19 -13.5 -29.5t-32.5 -10.5q-40 0 -40 39q0 37 34 58t86 21q56 0 98 -24.5t42 -69.5z" unicode="ª" glyph-name="ordfeminine" horiz-adv-x="386"/>
<glyph d="M66 330q30 25 76.5 53t80 44.5t38.5 16.5t5 -7q0 -29 -19 -57q-10 -14 -27 -35t-37.5 -44.5t-25.5 -29.5q4 -5 40.5 -48t49.5 -61q19 -27 19 -57q0 -7 -5 -7t-38.5 16.5t-80 44t-76.5 52.5q-26 23 -26 60q0 38 26 59zM266 330q30 25 76.5 53t80 44.5t38.5 16.5t5 -7 q0 -29 -19 -57q-10 -14 -27 -35t-37.5 -44.5t-25.5 -29.5q4 -5 40.5 -48t49.5 -61q19 -27 19 -57q0 -7 -5 -7t-38.5 16.5t-80 44t-76.5 52.5q-26 23 -26 60q0 38 26 59z" unicode="«" glyph-name="guillemotleft" horiz-adv-x="506"/>
<glyph d="M40 218v86h509v-294h-86v208h-423z" unicode="¬" glyph-name="logicalnot" horiz-adv-x="589"/>
<glyph d="M461 315q28 0 49 20.5t21 63.5t-20.5 63.5t-49.5 20.5h-39q-13 0 -13 -10v-146q0 -12 11 -12h41zM441 284h-19q-13 0 -13 -12v-142q0 -8 18 -11l12 -4q5 0 5 -20q0 -4 -3 -4h-161q-3 0 -3 4q0 20 5 20l11 4q19 3 19 10v348q0 7 -19 10l-11 3q-5 0 -5 21q0 4 3 4h212 q50 0 94.5 -27t44.5 -89q0 -79 -78 -106l95 -159q8 -13 22 -17l28 -5q5 0 5 -17q0 -4 -3 -4h-100q-37 0 -50 23l-83 155l-1 2q-9 13 -25 13zM98 298q0 -150 106 -256t256 -106t256 106t106 256t-106 256t-256 106t-256 -106t-106 -256zM40 298q0 174 123 297t297 123 t297 -123t123 -297t-123 -297t-297 -123t-297 123t-123 297z" unicode="®" glyph-name="registered" horiz-adv-x="920"/>
<glyph d="M173 509q11 0 21 6t19 29t9 61t-9 61.5t-19 29.5t-21 6q-10 0 -19.5 -6t-18 -29.5t-8.5 -61.5t8.5 -61t18 -29t19.5 -6zM173 730q65 0 109.5 -30t44.5 -95t-44.5 -94.5t-109.5 -29.5q-63 0 -108 29.5t-45 94.5t45 95t108 30z" unicode="°" glyph-name="degree" horiz-adv-x="347"/>
<glyph d="M40 0v86h211v157h-211v86h211v211h86v-211h212v-86h-212v-157h212v-86h-509z" unicode="±" glyph-name="plusminus" horiz-adv-x="589"/>
<glyph d="M207 720q93 0 145 -35.5t52 -98.5q0 -28 -18 -54.5t-35.5 -39.5t-55 -35.5t-46.5 -28.5q-5 -4 -52 -34t-69 -48q-7 -6 -7 -12q0 -5 10 -5h207q18 0 29 10.5t13 21.5l3 11l2 37q0 6 22 6q5 0 5 -4v-140q0 -11 -11 -11h-366v50q0 13 24 35.5t77.5 63t66.5 50.5 q45 37 65 64.5t20 62.5q0 49 -19.5 78t-58.5 29q-26 0 -45 -19t-19 -46q0 -1 0.5 -6t0.5 -9q0 -25 -16 -40.5t-38 -15.5q-24 0 -41 16t-17 39q0 45 49 76.5t123 31.5z" unicode="²" glyph-name="twosuperior" horiz-adv-x="447"/>
<glyph d="M218 498h-45q-5 0 -5 4q0 23 4 23h41q37 0 55.5 26.5t18.5 62.5q0 34 -18 56t-56 22q-36 0 -53.5 -16t-17.5 -34q0 -1 0.5 -6.5t0.5 -9.5q0 -31 -17 -47.5t-42 -16.5q-22 0 -35.5 16t-13.5 43q0 38 47.5 68.5t130.5 30.5q88 0 135 -29t47 -77q0 -32 -21.5 -59.5 t-58.5 -42.5q46 -15 74.5 -45.5t28.5 -70.5q0 -63 -57 -99.5t-148 -36.5q-178 0 -178 87q0 26 16 42t40 16q23 0 37.5 -17t14.5 -42q0 -5 -0.5 -9.5t-0.5 -5.5q0 -15 20 -29t51 -14q41 0 69 30.5t28 77.5q0 42 -27 72t-65 30z" unicode="³" glyph-name="threesuperior" horiz-adv-x="453"/>
<glyph d="M200 672q-42 -31 -100 -66q-31 -19 -53 -19q-7 0 -7 5q0 6 10 35.5t28.5 69.5t36.5 62q17 20 45 20q26 0 44.5 -19t18.5 -45q0 -27 -23 -43z" unicode="´" glyph-name="acute" horiz-adv-x="263"/>
<glyph d="M434 500h146v-408q0 -42 52 -42q6 0 6 -6q0 -27 -8 -30q-24 -8 -74 -16t-71 -8q-31 0 -31 20v62q-76 -82 -173 -82q-75 0 -120 24q26 -139 26 -153q0 -26 -21 -46q-16 -15 -43 -15q-26 0 -44 15q-20 19 -20 46q0 21 19.5 124.5t19.5 136.5v378h146v-378q0 -39 22.5 -60 t60.5 -21q29 0 59.5 19.5t47.5 45.5v394z" unicode="µ" glyph-name="mu" horiz-adv-x="663"/>
<glyph d="M256 339q-97 0 -158 46q-58 48 -58 132q0 83 55 133q53 50 140 50h312q11 -1 11 -12v-47q0 -12 -12 -12h-46v-713q0 -12 -12 -12h-67q-12 0 -12 12v713h-62v-713q0 -12 -12 -12h-67q-12 0 -12 12v423z" unicode="¶" glyph-name="paragraph" horiz-adv-x="598"/>
<glyph d="M40 250q0 35 24.5 59.5t59.5 24.5t59.5 -24.5t24.5 -59.5t-24.5 -59.5t-59.5 -24.5t-59.5 24.5t-24.5 59.5z" unicode="·" glyph-name="periodcentered" horiz-adv-x="248"/>
<glyph d="M107 -29q147 0 147 -80q0 -47 -38.5 -69t-121.5 -22h-51q-3 0 -3 3q0 18 3 18h31q78 0 78 60q0 49 -55 49h-18q-15 0 -20 5t-5 20v50h44v-34h9z" unicode="¸" glyph-name="cedilla" horiz-adv-x="294"/>
<glyph d="M214 705v-399q0 -11 31 -14l31 -4q6 -2 6 -23q0 -5 -5 -5h-237q-5 0 -5 5q0 21 6 23l31 4q31 3 31 14v329q0 16 -16 16h-47q-5 0 -5 4q0 23 6 23q31 0 59 12.5t38 29.5h61q15 0 15 -15z" unicode="¹" glyph-name="onesuperior" horiz-adv-x="342"/>
<glyph d="M205 391q38 0 54 35.5t16 121.5t-16 121.5t-54 35.5t-54 -35.5t-16 -121.5t16 -121.5t54 -35.5zM205 730q70 0 122.5 -43.5t52.5 -138.5t-52.5 -138.5t-122.5 -43.5t-122.5 43.5t-52.5 138.5t52.5 138.5t122.5 43.5z" unicode="º" glyph-name="ordmasculine" horiz-adv-x="410"/>
<glyph d="M440 330q26 -21 26 -59q0 -37 -26 -60q-30 -25 -76.5 -52.5t-80 -44t-38.5 -16.5t-5 7q0 30 19 57q13 18 49.5 61t40.5 48q-5 6 -25.5 29.5t-37.5 44.5t-27 35q-19 28 -19 57q0 7 5 7t38.5 -16.5t80 -44.5t76.5 -53zM240 330q26 -21 26 -59q0 -37 -26 -60 q-30 -25 -76.5 -52.5t-80 -44t-38.5 -16.5t-5 7q0 30 19 57q13 18 49.5 61t40.5 48q-5 6 -25.5 29.5t-37.5 44.5t-27 35q-19 28 -19 57q0 7 5 7t38.5 -16.5t80 -44.5t76.5 -53z" unicode="»" glyph-name="guillemotright" horiz-adv-x="506"/>
<glyph d="M574 158h170v212zM523 158l224 274q7 10 34 19t53 9q21 0 21 -16v-286h64q7 0 7 -6q0 -42 -9 -42h-62v-63q0 -5 6 -8t15 -4.5t11 -2.5l32 -5q6 0 6 -23q0 -4 -5 -4h-240q-5 0 -5 4q0 23 6 23l32 5q2 1 11 2.5t14.5 4.5t5.5 8v63h-213q-6 0 -10.5 5t-4.5 11v12q0 6 7 20z M214 705v-399q0 -11 31 -14l31 -4q6 -2 6 -23q0 -5 -5 -5h-237q-5 0 -5 5q0 21 6 23l31 4q31 3 31 14v329q0 16 -16 16h-47q-5 0 -5 4q0 23 6 23q31 0 59 12.5t38 29.5h61q15 0 15 -15zM292 0h-69l354 677q11 23 38 23h69l-354 -677q-12 -23 -38 -23z" unicode="¼" glyph-name="onequarter" horiz-adv-x="961"/>
<glyph d="M762 460q93 0 145 -35.5t52 -98.5q0 -28 -18 -54.5t-35.5 -39.5t-55 -35.5t-46.5 -28.5q-5 -4 -52 -34t-69 -48q-7 -6 -7 -12q0 -5 10 -5h207q18 0 29 10.5t14 21.5l2 11l2 37q0 6 22 6q5 0 5 -4v-140q0 -11 -11 -11h-366v50q0 13 24 35.5t77.5 63t66.5 50.5 q45 37 65 64.5t20 62.5q0 49 -19.5 78t-58.5 29q-26 0 -45 -19t-19 -46q0 -1 0.5 -6t0.5 -9q0 -25 -16 -40.5t-38 -15.5q-24 0 -41 16t-17 39q0 45 49 76.5t123 31.5zM214 705v-399q0 -11 31 -14l31 -4q6 -2 6 -23q0 -5 -5 -5h-237q-5 0 -5 5q0 21 6 23l31 4q31 3 31 14v329 q0 16 -16 16h-47q-5 0 -5 4q0 23 6 23q31 0 59 12.5t38 29.5h61q15 0 15 -15zM292 0h-69l354 677q11 23 38 23h69l-354 -677q-12 -23 -38 -23z" unicode="½" glyph-name="onehalf" horiz-adv-x="1002"/>
<glyph d="M218 498h-45q-5 0 -5 4q0 23 4 23h41q37 0 55.5 26.5t18.5 62.5q0 34 -18 56t-56 22q-36 0 -53.5 -16t-17.5 -34q0 -1 0.5 -6.5t0.5 -9.5q0 -31 -17 -47.5t-42 -16.5q-22 0 -35.5 16t-13.5 43q0 38 47.5 68.5t130.5 30.5q88 0 135 -29t47 -77q0 -32 -21.5 -59.5 t-58.5 -42.5q46 -15 74.5 -45.5t28.5 -70.5q0 -63 -57 -99.5t-148 -36.5q-178 0 -178 87q0 26 16 42t40 16q23 0 37.5 -17t14.5 -42q0 -5 -0.5 -9.5t-0.5 -5.5q0 -15 20 -29t51 -14q41 0 69 30.5t28 77.5q0 42 -27 72t-65 30zM673 158h170v212zM622 158l224 274q7 10 34 19 t53 9q21 0 21 -16v-286h64q7 0 7 -6q0 -42 -9 -42h-62v-63q0 -5 6 -8t15 -4.5t11 -2.5l32 -5q6 0 6 -23q0 -4 -5 -4h-240q-5 0 -5 4q0 23 6 23l32 5q2 1 11 2.5t14.5 4.5t5.5 8v63h-213q-6 0 -10.5 5t-4.5 11v12q0 6 7 20zM391 0h-69l354 677q12 23 38 23h69l-354 -677 q-11 -23 -38 -23z" unicode="¾" glyph-name="threequarters" horiz-adv-x="1060"/>
<glyph d="M212 487q0 35 24.5 59.5t59.5 24.5t59.5 -24.5t24.5 -59.5t-24.5 -59.5t-59.5 -24.5t-59.5 24.5t-24.5 59.5zM260 317q0 12 12 12h38q12 0 12 -12v-172q0 -16 -16 -16h-27q-49 0 -71.5 -43.5t-22.5 -110.5q0 -139 101 -139q32 0 54.5 24t22.5 60q0 2 -0.5 8.5t-0.5 12.5 q0 32 17.5 49.5t48.5 17.5q25 0 46 -19t21 -47q0 -59 -61.5 -100.5t-147.5 -41.5q-118 0 -182 54.5t-64 140.5q0 193 205 218q15 5 15 20v84z" unicode="¿" glyph-name="questiondown" horiz-adv-x="495"/>
<glyph d="M244 861q-23 16 -23 43q0 26 18.5 45t44.5 19q28 0 45 -20q18 -22 36.5 -62t28.5 -69.5t10 -35.5q0 -5 -7 -5q-22 0 -53 19q-58 35 -100 66zM321 532q-4 12 -13 12q-8 0 -12 -9l-1 -3l-86 -232h185zM71 69l222 592q6 18 30.5 27t44.5 10.5t55 1.5q3 0 5 -3l209 -629 q6 -17 34 -23l35 -4q8 -2 8 -35q0 -6 -6 -6h-278q-6 0 -6 6q0 33 8 35l30 4q11 1 7 20l-58 183h-221l-68 -184q-4 -16 8 -19l30 -4q8 -2 8 -35q0 -6 -6 -6h-156q-6 0 -6 6q0 33 8 35l30 4q25 5 33 24z" unicode="À" glyph-name="Agrave" horiz-adv-x="714"/>
<glyph d="M474 861q-42 -31 -100 -66q-31 -19 -53 -19q-7 0 -7 5q0 6 10 35.5t28.5 69.5t36.5 62q17 20 45 20q26 0 44.5 -19t18.5 -45q0 -27 -23 -43zM321 532q-4 12 -13 12q-8 0 -12 -9l-1 -3l-86 -232h185zM71 69l222 592q6 18 30.5 27t44.5 10.5t55 1.5q3 0 5 -3l209 -629 q6 -17 34 -23l35 -4q8 -2 8 -35q0 -6 -6 -6h-278q-6 0 -6 6q0 33 8 35l30 4q11 1 7 20l-58 183h-221l-68 -184q-4 -16 8 -19l30 -4q8 -2 8 -35q0 -6 -6 -6h-156q-6 0 -6 6q0 33 8 35l30 4q25 5 33 24z" unicode="Á" glyph-name="Aacute" horiz-adv-x="714"/>
<glyph d="M369 968h5q32 -2 47 -20q26 -31 55.5 -94t29.5 -73q0 -5 -7 -5q-22 0 -53 19q-25 15 -77 51q-53 -37 -76 -51q-31 -19 -53 -19q-7 0 -7 5q0 10 29.5 73t55.5 94q15 18 46 20h5zM321 532q-4 12 -13 12q-8 0 -12 -9l-1 -3l-86 -232h185zM71 69l222 592q6 18 30.5 27 t44.5 10.5t55 1.5q3 0 5 -3l209 -629q6 -17 34 -23l35 -4q8 -2 8 -35q0 -6 -6 -6h-278q-6 0 -6 6q0 33 8 35l30 4q11 1 7 20l-58 183h-221l-68 -184q-4 -16 8 -19l30 -4q8 -2 8 -35q0 -6 -6 -6h-156q-6 0 -6 6q0 33 8 35l30 4q25 5 33 24z" unicode="Â" glyph-name="Acircumflex" horiz-adv-x="714"/>
<glyph d="M563 921l23 -19q-17 -50 -53.5 -83t-81.5 -33q-35 0 -81 20q-15 6 -35 18t-34.5 18t-30.5 6q-22 0 -41 -12t-28 -31q-6 -9 -11 -4l-22 24q18 47 54 79t80 32q35 0 81 -20q15 -6 35 -18t34.5 -18t30.5 -6q21 0 40.5 12t28.5 30q6 9 11 5zM321 532q-4 12 -13 12 q-8 0 -12 -9l-1 -3l-86 -232h185zM71 69l222 592q6 18 30.5 27t44.5 10.5t55 1.5q3 0 5 -3l209 -629q6 -17 34 -23l35 -4q8 -2 8 -35q0 -6 -6 -6h-278q-6 0 -6 6q0 33 8 35l30 4q11 1 7 20l-58 183h-221l-68 -184q-4 -16 8 -19l30 -4q8 -2 8 -35q0 -6 -6 -6h-156q-6 0 -6 6 q0 33 8 35l30 4q25 5 33 24z" unicode="Ã" glyph-name="Atilde" horiz-adv-x="714"/>
<glyph d="M398 874q0 35 24.5 59.5t59.5 24.5t59.5 -24.5t24.5 -59.5t-24.5 -59.5t-59.5 -24.5t-59.5 24.5t-24.5 59.5zM162 874q0 35 24.5 59.5t59.5 24.5t59.5 -24.5t24.5 -59.5t-24.5 -59.5t-59.5 -24.5t-59.5 24.5t-24.5 59.5zM321 532q-4 12 -13 12q-8 0 -12 -9l-1 -3 l-86 -232h185zM71 69l222 592q6 18 30.5 27t44.5 10.5t55 1.5q3 0 5 -3l209 -629q6 -17 34 -23l35 -4q8 -2 8 -35q0 -6 -6 -6h-278q-6 0 -6 6q0 33 8 35l30 4q11 1 7 20l-58 183h-221l-68 -184q-4 -16 8 -19l30 -4q8 -2 8 -35q0 -6 -6 -6h-156q-6 0 -6 6q0 33 8 35l30 4 q25 5 33 24z" unicode="Ä" glyph-name="Adieresis" horiz-adv-x="664"/>
<glyph d="M365 783q34 0 34 64t-34 64q-32 0 -32 -64t32 -64zM365 929q47 0 77.5 -20t30.5 -62q0 -43 -30.5 -62.5t-77.5 -19.5q-46 0 -77 20t-31 62t31.5 62t76.5 20zM321 532q-4 12 -13 12q-8 0 -12 -9l-1 -3l-86 -232h185zM71 69l222 592q6 18 30.5 27t44.5 10.5t55 1.5 q3 0 5 -3l209 -629q6 -17 34 -23l35 -4q8 -2 8 -35q0 -6 -6 -6h-278q-6 0 -6 6q0 33 8 35l30 4q11 1 7 20l-58 183h-221l-68 -184q-4 -16 8 -19l30 -4q8 -2 8 -35q0 -6 -6 -6h-156q-6 0 -6 6q0 33 8 35l30 4q25 5 33 24z" unicode="Å" glyph-name="Aring" horiz-adv-x="664"/>
<glyph d="M435 631q0 6 -3.5 6.5t-7.5 -5.5l-177 -332h188v331zM383 0q-6 0 -6 6q0 33 8 35l20 4q30 5 30 20v183h-215l-94 -177q-11 -23 4 -26l30 -4q8 -2 8 -35q0 -6 -6 -6h-156q-6 0 -6 6q0 33 8 35l30 4q19 3 35 28l314 588q8 14 16.5 22.5t20.5 12t20 4t23 0.5h435 q22 0 22 -22v-177q0 -8 -8 -8q-41 0 -41 11l-5 68q0 3 -1 8t-6 17.5t-12.5 22.5t-23.5 18.5t-36 9.5h-178q-16 -2 -18 -18v-225q0 -8 6 -14t14 -6h152q15 0 20 30l4 20q2 8 35 8q6 0 6 -6v-156q0 -6 -6 -6q-33 0 -35 8l-4 20q-5 30 -20 30h-154q-18 -2 -18 -20v-243 q2 -18 20 -18h190q22 0 39 8t25.5 19t13.5 22t6 19l1 8l5 68q0 11 41 11q8 0 8 -8v-177q0 -22 -22 -22h-539z" unicode="Æ" glyph-name="AE" horiz-adv-x="979"/>
<glyph d="M377 -29q147 0 147 -80q0 -47 -38.5 -69t-121.5 -22h-51q-3 0 -3 3q0 18 3 18h31q78 0 78 60q0 49 -55 49h-18q-15 0 -20 5t-5 20v38q-121 15 -197.5 102.5t-76.5 254.5q0 77 19 138.5t51.5 102.5t77 68t94 39t104.5 12q49 0 97.5 -17t54.5 -17q14 0 19 23q3 11 41 11 q9 0 9 -8v-202q0 -8 -9 -8q-41 0 -41 11q0 69 -46 113t-115 44q-72 0 -131.5 -76.5t-59.5 -233.5q0 -82 18 -143.5t46.5 -93t58 -46.5t58.5 -15q71 0 121 41.5t65 108.5q2 6 14 6q9 0 22 -3.5t13 -9.5q0 -29 -15 -62.5t-43.5 -66.5t-80 -54.5t-116.5 -21.5h-8v-19h9z" unicode="Ç" glyph-name="Ccedilla" horiz-adv-x="662"/>
<glyph d="M241 861q-23 16 -23 43q0 26 18.5 45t44.5 19q28 0 45 -20q18 -22 36.5 -62t28.5 -69.5t10 -35.5q0 -5 -7 -5q-22 0 -53 19q-58 35 -100 66zM601 22q0 -22 -22 -22h-538q-6 0 -6 6q0 33 8 35l20 4q30 5 30 20v572q0 13 -30 18l-20 4q-8 2 -8 35q0 6 6 6h518q22 0 22 -22 v-177q0 -8 -8 -8q-41 0 -41 11l-5 68q0 3 -1 8t-6 17.5t-12.5 22.5t-23.5 18.5t-36 9.5h-176q-18 0 -20 -18v-227q2 -16 18 -18h156q13 0 18 30l4 20q2 8 35 8q6 0 6 -6v-156q0 -6 -6 -6q-33 0 -35 8l-4 20q-5 30 -18 30h-154q-18 0 -20 -18v-245q2 -16 18 -18h192 q22 0 39 8t25.5 19t13.5 22t6 19l1 8l5 68q0 11 41 11q8 0 8 -8v-177z" unicode="È" glyph-name="Egrave" horiz-adv-x="636"/>
<glyph d="M397 861q-42 -31 -100 -66q-31 -19 -53 -19q-7 0 -7 5q0 6 10 35.5t28.5 69.5t36.5 62q17 20 45 20q26 0 44.5 -19t18.5 -45q0 -27 -23 -43zM582 22q0 -22 -22 -22h-538q-6 0 -6 6q0 33 8 35l20 4q30 5 30 20v572q0 13 -30 18l-20 4q-8 2 -8 35q0 6 6 6h518q22 0 22 -22 v-177q0 -8 -8 -8q-41 0 -41 11l-5 68q0 3 -1 8t-6 17.5t-12.5 22.5t-23.5 18.5t-36 9.5h-176q-18 0 -20 -18v-227q2 -16 18 -18h156q13 0 18 30l4 20q2 8 35 8q6 0 6 -6v-156q0 -6 -6 -6q-33 0 -35 8l-4 20q-5 30 -18 30h-154q-18 0 -20 -18v-245q2 -16 18 -18h192 q22 0 39 8t25.5 19t13.5 22t6 19l1 8l5 68q0 11 41 11q8 0 8 -8v-177z" unicode="É" glyph-name="Eacute" horiz-adv-x="622"/>
<glyph d="M327 968h5q32 -2 47 -20q26 -31 55.5 -94t29.5 -73q0 -5 -7 -5q-22 0 -53 19q-25 15 -77 51q-53 -37 -76 -51q-31 -19 -53 -19q-7 0 -7 5q0 10 29.5 73t55.5 94q15 18 46 20h5zM601 22q0 -22 -22 -22h-538q-6 0 -6 6q0 33 8 35l20 4q30 5 30 20v572q0 13 -30 18l-20 4 q-8 2 -8 35q0 6 6 6h518q22 0 22 -22v-177q0 -8 -8 -8q-41 0 -41 11l-5 68q0 3 -1 8t-6 17.5t-12.5 22.5t-23.5 18.5t-36 9.5h-176q-18 0 -20 -18v-227q2 -16 18 -18h156q13 0 18 30l4 20q2 8 35 8q6 0 6 -6v-156q0 -6 -6 -6q-33 0 -35 8l-4 20q-5 30 -18 30h-154 q-18 0 -20 -18v-245q2 -16 18 -18h192q22 0 39 8t25.5 19t13.5 22t6 19l1 8l5 68q0 11 41 11q8 0 8 -8v-177z" unicode="Ê" glyph-name="Ecircumflex" horiz-adv-x="636"/>
<glyph d="M361 874q0 35 24.5 59.5t59.5 24.5t59.5 -24.5t24.5 -59.5t-24.5 -59.5t-59.5 -24.5t-59.5 24.5t-24.5 59.5zM125 874q0 35 24.5 59.5t59.5 24.5t59.5 -24.5t24.5 -59.5t-24.5 -59.5t-59.5 -24.5t-59.5 24.5t-24.5 59.5zM601 22q0 -22 -22 -22h-538q-6 0 -6 6q0 33 8 35 l20 4q30 5 30 20v572q0 13 -30 18l-20 4q-8 2 -8 35q0 6 6 6h518q22 0 22 -22v-177q0 -8 -8 -8q-41 0 -41 11l-5 68q0 3 -1 8t-6 17.5t-12.5 22.5t-23.5 18.5t-36 9.5h-176q-18 0 -20 -18v-227q2 -16 18 -18h156q13 0 18 30l4 20q2 8 35 8q6 0 6 -6v-156q0 -6 -6 -6 q-33 0 -35 8l-4 20q-5 30 -18 30h-154q-18 0 -20 -18v-245q2 -16 18 -18h192q22 0 39 8t25.5 19t13.5 22t6 19l1 8l5 68q0 11 41 11q8 0 8 -8v-177z" unicode="Ë" glyph-name="Edieresis" horiz-adv-x="636"/>
<glyph d="M92 861q-23 16 -23 43q0 26 18.5 45t44.5 19q28 0 45 -20q18 -22 36.5 -62t28.5 -69.5t10 -35.5q0 -5 -7 -5q-22 0 -53 19q-58 35 -100 66zM253 635v-572q0 -13 30 -18l20 -4q8 -2 8 -35q0 -6 -6 -6h-264q-6 0 -6 6q0 33 8 35l20 4q30 5 30 18v572q0 15 -30 20l-20 4 q-8 2 -8 35q0 6 6 6h264q6 0 6 -6q0 -33 -8 -35l-20 -4q-30 -5 -30 -20z" unicode="Ì" glyph-name="Igrave"/>
<glyph d="M263 861q-42 -31 -100 -66q-31 -19 -53 -19q-7 0 -7 5q0 6 10 35.5t28.5 69.5t36.5 62q17 20 45 20q26 0 44.5 -19t18.5 -45q0 -27 -23 -43zM253 635v-572q0 -13 30 -18l20 -4q8 -2 8 -35q0 -6 -6 -6h-264q-6 0 -6 6q0 33 8 35l20 4q30 5 30 18v572q0 15 -30 20l-20 4 q-8 2 -8 35q0 6 6 6h264q6 0 6 -6q0 -33 -8 -35l-20 -4q-30 -5 -30 -20z" unicode="Í" glyph-name="Iacute"/>
<glyph d="M173 968h5q32 -2 47 -20q26 -31 55.5 -94t29.5 -73q0 -5 -7 -5q-22 0 -53 19q-25 15 -77 51q-53 -37 -76 -51q-31 -19 -53 -19q-7 0 -7 5q0 10 29.5 73t55.5 94q15 18 46 20h5zM253 635v-572q0 -13 30 -18l20 -4q8 -2 8 -35q0 -6 -6 -6h-264q-6 0 -6 6q0 33 8 35l20 4 q30 5 30 18v572q0 15 -30 20l-20 4q-8 2 -8 35q0 6 6 6h264q6 0 6 -6q0 -33 -8 -35l-20 -4q-30 -5 -30 -20z" unicode="Î" glyph-name="Icircumflex"/>
<glyph d="M207 874q0 35 24.5 59.5t59.5 24.5t59.5 -24.5t24.5 -59.5t-24.5 -59.5t-59.5 -24.5t-59.5 24.5t-24.5 59.5zM-29 874q0 35 24.5 59.5t59.5 24.5t59.5 -24.5t24.5 -59.5t-24.5 -59.5t-59.5 -24.5t-59.5 24.5t-24.5 59.5zM253 635v-572q0 -13 30 -18l20 -4q8 -2 8 -35 q0 -6 -6 -6h-264q-6 0 -6 6q0 33 8 35l20 4q30 5 30 18v572q0 15 -30 20l-20 4q-8 2 -8 35q0 6 6 6h264q6 0 6 -6q0 -33 -8 -35l-20 -4q-30 -5 -30 -20z" unicode="Ï" glyph-name="Idieresis"/>
<glyph d="M336 52q77 0 127.5 69t50.5 229t-50.5 229t-127.5 69h-63q-8 0 -14 -6t-6 -14v-238h140q12 0 12 -12v-28q0 -12 -12 -12h-140v-266q0 -18 18 -20h65zM41 0q-6 0 -6 6q0 33 8 35l20 4q30 7 30 20v273h-46q-12 0 -12 12v28q0 12 12 12h46v247q-2 11 -30 18l-20 4 q-8 2 -8 35q0 6 6 6h335q46 0 88 -11t81.5 -36.5t69 -65t47 -100.5t17.5 -137t-17.5 -137t-47 -100.5t-69 -65t-81.5 -36.5t-88 -11h-335z" unicode="Ð" glyph-name="Eth" horiz-adv-x="719"/>
<glyph d="M586 921l23 -19q-17 -50 -53.5 -83t-81.5 -33q-35 0 -81 20q-15 6 -35 18t-34.5 18t-30.5 6q-22 0 -41 -12t-28 -31q-6 -9 -11 -4l-22 24q18 47 54 79t80 32q35 0 81 -20q15 -6 35 -18t34.5 -18t30.5 -6q21 0 40.5 12t28.5 30q6 9 11 5zM206 700q32 0 48.5 -6.5 t32.5 -32.5l350 -584v560q0 13 -30 18l-50 4q-8 2 -8 35q0 6 6 6h219q6 0 6 -6q0 -33 -8 -35l-50 -4q-30 -5 -30 -18v-617q0 -8 -6 -14t-14 -6h-99q-23 0 -36 1.5t-28.5 10.5t-26.5 27l-319 527v-503q0 -13 30 -18l50 -4q8 -2 8 -35q0 -6 -6 -6h-219q-6 0 -6 6q0 33 8 35 l50 4q30 5 30 20v572q0 13 -30 18l-20 4q-8 2 -8 35q0 6 6 6h150z" unicode="Ñ" glyph-name="Ntilde" horiz-adv-x="799"/>
<glyph d="M298 861q-23 16 -23 43q0 26 18.5 45t44.5 19q28 0 45 -20q18 -22 36.5 -62t28.5 -69.5t10 -35.5q0 -5 -7 -5q-22 0 -53 19q-58 35 -100 66zM376 656q-68 0 -114.5 -73t-46.5 -233t46.5 -233t114.5 -73t113 72.5t45 233.5t-45 233.5t-113 72.5zM376 -10q-62 0 -118 20 t-104 60.5t-76 112.5t-28 167t28 167t76 112.5t104 60.5t118 20t117 -20t102.5 -60.5t75.5 -112.5t28 -167t-28 -167t-75.5 -112.5t-102.5 -60.5t-117 -20z" unicode="Ò" glyph-name="Ograve" horiz-adv-x="739"/>
<glyph d="M459 861q-42 -31 -100 -66q-31 -19 -53 -19q-7 0 -7 5q0 6 10 35.5t28.5 69.5t36.5 62q17 20 45 20q26 0 44.5 -19t18.5 -45q0 -27 -23 -43zM366 656q-68 0 -114.5 -73t-46.5 -233t46.5 -233t114.5 -73t113 72.5t45 233.5t-45 233.5t-113 72.5zM366 -10q-62 0 -118 20 t-104 60.5t-76 112.5t-28 167t28 167t76 112.5t104 60.5t118 20t117 -20t102.5 -60.5t75.5 -112.5t28 -167t-28 -167t-75.5 -112.5t-102.5 -60.5t-117 -20z" unicode="Ó" glyph-name="Oacute" horiz-adv-x="729"/>
<glyph d="M364 968h5q32 -2 47 -20q26 -31 55.5 -94t29.5 -73q0 -5 -7 -5q-22 0 -53 19q-25 15 -77 51q-53 -37 -76 -51q-31 -19 -53 -19q-7 0 -7 5q0 10 29.5 73t55.5 94q15 18 46 20h5zM366 656q-68 0 -114.5 -73t-46.5 -233t46.5 -233t114.5 -73t113 72.5t45 233.5t-45 233.5 t-113 72.5zM366 -10q-62 0 -118 20t-104 60.5t-76 112.5t-28 167t28 167t76 112.5t104 60.5t118 20t117 -20t102.5 -60.5t75.5 -112.5t28 -167t-28 -167t-75.5 -112.5t-102.5 -60.5t-117 -20z" unicode="Ô" glyph-name="Ocircumflex" horiz-adv-x="729"/>
<glyph d="M550 921l23 -19q-17 -50 -53.5 -83t-81.5 -33q-35 0 -81 20q-15 6 -35 18t-34.5 18t-30.5 6q-22 0 -41 -12t-28 -31q-6 -9 -11 -4l-22 24q18 47 54 79t80 32q35 0 81 -20q15 -6 35 -18t34.5 -18t30.5 -6q21 0 40.5 12t28.5 30q6 9 11 5zM366 656q-68 0 -114.5 -73 t-46.5 -233t46.5 -233t114.5 -73t113 72.5t45 233.5t-45 233.5t-113 72.5zM366 -10q-62 0 -118 20t-104 60.5t-76 112.5t-28 167t28 167t76 112.5t104 60.5t118 20t117 -20t102.5 -60.5t75.5 -112.5t28 -167t-28 -167t-75.5 -112.5t-102.5 -60.5t-117 -20z" unicode="Õ" glyph-name="Otilde" horiz-adv-x="729"/>
<glyph d="M398 874q0 35 24.5 59.5t59.5 24.5t59.5 -24.5t24.5 -59.5t-24.5 -59.5t-59.5 -24.5t-59.5 24.5t-24.5 59.5zM162 874q0 35 24.5 59.5t59.5 24.5t59.5 -24.5t24.5 -59.5t-24.5 -59.5t-59.5 -24.5t-59.5 24.5t-24.5 59.5zM366 656q-68 0 -114.5 -73t-46.5 -233t46.5 -233 t114.5 -73t113 72.5t45 233.5t-45 233.5t-113 72.5zM366 -10q-62 0 -118 20t-104 60.5t-76 112.5t-28 167t28 167t76 112.5t104 60.5t118 20t117 -20t102.5 -60.5t75.5 -112.5t28 -167t-28 -167t-75.5 -112.5t-102.5 -60.5t-117 -20z" unicode="Ö" glyph-name="Odieresis" horiz-adv-x="729"/>
<glyph d="M40 434l61 61l160 -161l161 161l60 -60l-161 -161l161 -161l-60 -60l-161 160l-160 -160l-61 61l160 160z" unicode="×" glyph-name="multiply" horiz-adv-x="522"/>
<glyph d="M356 656q-68 0 -114.5 -73t-46.5 -233q0 -79 13 -142l279 336q-41 112 -131 112zM146 60l-71 -86l-36 30l74 89q-83 95 -83 257q0 95 28 167t76 112.5t104 60.5t118 20q124 0 209 -71l72 87l36 -30l-75 -90q81 -94 81 -256q0 -95 -28 -167t-75.5 -112.5t-102.5 -60.5 t-117 -20q-124 0 -210 70zM224 154q43 -110 132 -110q68 0 113 72.5t45 233.5q0 82 -12 139z" unicode="Ø" glyph-name="Oslash" horiz-adv-x="709"/>
<glyph d="M298 861q-23 16 -23 43q0 26 18.5 45t44.5 19q28 0 45 -20q18 -22 36.5 -62t28.5 -69.5t10 -35.5q0 -5 -7 -5q-22 0 -53 19q-58 35 -100 66zM573 317v318q0 15 -30 20l-50 4q-8 2 -8 35q0 6 6 6h219q6 0 6 -6q0 -33 -8 -35l-50 -4q-30 -5 -30 -18v-320q0 -163 -57.5 -245 t-190.5 -82q-46 0 -77.5 3.5t-67.5 14t-59 32.5t-43.5 57t-30 90.5t-9.5 129.5v320q0 13 -30 18l-20 4q-8 2 -8 35q0 6 6 6h264q6 0 6 -6q0 -33 -8 -35l-20 -4q-30 -5 -30 -20v-318q0 -118 18 -177.5t50 -77t95 -17.5q82 0 119.5 78t37.5 194z" unicode="Ù" glyph-name="Ugrave" horiz-adv-x="726"/>
<glyph d="M471 861q-42 -31 -100 -66q-31 -19 -53 -19q-7 0 -7 5q0 6 10 35.5t28.5 69.5t36.5 62q17 20 45 20q26 0 44.5 -19t18.5 -45q0 -27 -23 -43zM573 317v318q0 15 -30 20l-50 4q-8 2 -8 35q0 6 6 6h219q6 0 6 -6q0 -33 -8 -35l-50 -4q-30 -5 -30 -18v-320q0 -163 -57.5 -245 t-190.5 -82q-46 0 -77.5 3.5t-67.5 14t-59 32.5t-43.5 57t-30 90.5t-9.5 129.5v320q0 13 -30 18l-20 4q-8 2 -8 35q0 6 6 6h264q6 0 6 -6q0 -33 -8 -35l-20 -4q-30 -5 -30 -20v-318q0 -118 18 -177.5t50 -77t95 -17.5q82 0 119.5 78t37.5 194z" unicode="Ú" glyph-name="Uacute" horiz-adv-x="726"/>
<glyph d="M387 968h5q32 -2 47 -20q26 -31 55.5 -94t29.5 -73q0 -5 -7 -5q-22 0 -53 19q-25 15 -77 51q-53 -37 -76 -51q-31 -19 -53 -19q-7 0 -7 5q0 10 29.5 73t55.5 94q15 18 46 20h5zM573 317v318q0 15 -30 20l-50 4q-8 2 -8 35q0 6 6 6h219q6 0 6 -6q0 -33 -8 -35l-50 -4 q-30 -5 -30 -18v-320q0 -163 -57.5 -245t-190.5 -82q-46 0 -77.5 3.5t-67.5 14t-59 32.5t-43.5 57t-30 90.5t-9.5 129.5v320q0 13 -30 18l-20 4q-8 2 -8 35q0 6 6 6h264q6 0 6 -6q0 -33 -8 -35l-20 -4q-30 -5 -30 -20v-318q0 -118 18 -177.5t50 -77t95 -17.5q82 0 119.5 78 t37.5 194z" unicode="Û" glyph-name="Ucircumflex" horiz-adv-x="726"/>
<glyph d="M415 874q0 35 24.5 59.5t59.5 24.5t59.5 -24.5t24.5 -59.5t-24.5 -59.5t-59.5 -24.5t-59.5 24.5t-24.5 59.5zM179 874q0 35 24.5 59.5t59.5 24.5t59.5 -24.5t24.5 -59.5t-24.5 -59.5t-59.5 -24.5t-59.5 24.5t-24.5 59.5zM573 317v318q0 15 -30 20l-50 4q-8 2 -8 35 q0 6 6 6h219q6 0 6 -6q0 -33 -8 -35l-50 -4q-30 -5 -30 -18v-320q0 -163 -57.5 -245t-190.5 -82q-46 0 -77.5 3.5t-67.5 14t-59 32.5t-43.5 57t-30 90.5t-9.5 129.5v320q0 13 -30 18l-20 4q-8 2 -8 35q0 6 6 6h264q6 0 6 -6q0 -33 -8 -35l-20 -4q-30 -5 -30 -20v-318 q0 -118 18 -177.5t50 -77t95 -17.5q82 0 119.5 78t37.5 194z" unicode="Ü" glyph-name="Udieresis" horiz-adv-x="726"/>
<glyph d="M457 861q-42 -31 -100 -66q-31 -19 -53 -19q-7 0 -7 5q0 6 10 35.5t28.5 69.5t36.5 62q17 20 45 20q26 0 44.5 -19t18.5 -45q0 -27 -23 -43zM572 613l-132 -273q-13 -36 -13 -113v-162q0 -15 30 -20l20 -4q8 -2 8 -35q0 -6 -6 -6h-264q-6 0 -6 6q0 33 8 35l20 4 q30 5 30 20v206q0 8 -6 23l-157 319q-12 21 -65 31l-28 5q-11 3 -11 42q0 9 8 9h309q9 0 9 -9q0 -39 -11 -42l-28 -5q-14 -3 -14 -16q0 -5 4 -15l100 -206q10 -18 18 -18q6 0 12 12l102 212q4 10 4 15q0 13 -13 16l-28 6q-12 2 -12 42q0 8 9 8h193q8 0 8 -8q0 -40 -11 -42 l-28 -5q-15 -3 -22.5 -5t-19 -9t-17.5 -18z" unicode="Ý" glyph-name="Yacute" horiz-adv-x="657"/>
<glyph d="M340 214q45 0 79.5 38.5t34.5 110.5t-34.5 110.5t-79.5 38.5h-67q-18 0 -20 -18v-260q0 -18 18 -20h69zM253 142v-77q0 -15 30 -20l20 -4q8 -2 8 -35q0 -6 -6 -6h-264q-6 0 -6 6q0 33 8 35l20 4q30 5 30 20v570q0 15 -30 20l-20 4q-8 2 -8 35q0 6 6 6h264q6 0 6 -6 q0 -33 -8 -35l-20 -4q-30 -5 -30 -18v-53q0 -18 18 -20h119q34 0 71 -10.5t74 -32t60.5 -63t23.5 -95.5t-23.5 -95.5t-60.5 -63t-74 -32t-71 -10.5h-117q-8 0 -14 -6t-6 -14z" unicode="Þ" glyph-name="Thorn" horiz-adv-x="634"/>
<glyph d="M318 752q-35 0 -57 -28.5t-22 -107.5v-601q0 -15 -15 -15h-183q-6 0 -6 6q0 28 8 30l20 4q30 5 30 18v379h-50q-8 0 -8 40q0 6 6 6h52v112q0 94 68 145t167 51q35 0 71 -9t70.5 -28.5t56 -55t21.5 -82.5q0 -106 -87 -151q74 -24 116.5 -80.5t42.5 -138.5 q0 -117 -81 -181.5t-220 -64.5h-25q-5 0 -5 5q0 34 6 34h24q66 0 108.5 56.5t42.5 150.5q0 85 -41 140t-103 55h-12q-5 0 -5 5q0 34 6 34h4q30 0 54.5 29.5t24.5 106.5t-24.5 106.5t-54.5 29.5z" unicode="ß" glyph-name="germandbls" horiz-adv-x="659"/>
<glyph d="M197 672q-23 16 -23 43q0 26 18.5 45t44.5 19q28 0 45 -20q18 -22 36.5 -62t28.5 -69.5t10 -35.5q0 -5 -7 -5q-22 0 -53 19q-58 35 -100 66zM243 44q34 0 65 40.5t30 92.5l-3 91q-73 -4 -116.5 -33t-43.5 -101q0 -90 68 -90zM477 376l10 -284q1 -42 55 -42q6 0 6 -6 q0 -27 -8 -30q-24 -8 -78 -16t-76 -8q-31 0 -33 26q-2 27 -3 51h-8q-59 -77 -147 -77q-72 0 -118.5 37.5t-46.5 106.5q0 161 304 166l-2 77q0 45 -20.5 71.5t-50.5 26.5q-21 0 -37 -17.5t-16 -41.5q0 -2 0.5 -8t0.5 -10q0 -27 -20.5 -42t-50.5 -15q-62 0 -62 56 q0 53 52.5 83t133.5 30q86 0 150.5 -35t64.5 -99z" unicode="à" glyph-name="agrave" horiz-adv-x="568"/>
<glyph d="M370 672q-42 -31 -100 -66q-31 -19 -53 -19q-7 0 -7 5q0 6 10 35.5t28.5 69.5t36.5 62q17 20 45 20q26 0 44.5 -19t18.5 -45q0 -27 -23 -43zM243 44q34 0 65 40.5t30 92.5l-3 91q-73 -4 -116.5 -33t-43.5 -101q0 -90 68 -90zM477 376l10 -284q1 -42 55 -42q6 0 6 -6 q0 -27 -8 -30q-24 -8 -78 -16t-76 -8q-31 0 -33 26q-2 27 -3 51h-8q-59 -77 -147 -77q-72 0 -118.5 37.5t-46.5 106.5q0 161 304 166l-2 77q0 45 -20.5 71.5t-50.5 26.5q-21 0 -37 -17.5t-16 -41.5q0 -2 0.5 -8t0.5 -10q0 -27 -20.5 -42t-50.5 -15q-62 0 -62 56 q0 53 52.5 83t133.5 30q86 0 150.5 -35t64.5 -99z" unicode="á" glyph-name="aacute" horiz-adv-x="568"/>
<glyph d="M277 779h5q32 -2 47 -20q26 -31 55.5 -94t29.5 -73q0 -5 -7 -5q-22 0 -53 19q-25 15 -77 51q-53 -37 -76 -51q-31 -19 -53 -19q-7 0 -7 5q0 10 29.5 73t55.5 94q15 18 46 20h5zM243 44q34 0 65 40.5t30 92.5l-3 91q-73 -4 -116.5 -33t-43.5 -101q0 -90 68 -90zM477 376 l10 -284q1 -42 55 -42q6 0 6 -6q0 -27 -8 -30q-24 -8 -78 -16t-76 -8q-31 0 -33 26q-2 27 -3 51h-8q-59 -77 -147 -77q-72 0 -118.5 37.5t-46.5 106.5q0 161 304 166l-2 77q0 45 -20.5 71.5t-50.5 26.5q-21 0 -37 -17.5t-16 -41.5q0 -2 0.5 -8t0.5 -10q0 -27 -20.5 -42 t-50.5 -15q-62 0 -62 56q0 53 52.5 83t133.5 30q86 0 150.5 -35t64.5 -99z" unicode="â" glyph-name="acircumflex" horiz-adv-x="568"/>
<glyph d="M471 743l23 -19q-17 -50 -53.5 -83t-81.5 -33q-35 0 -81 20q-15 6 -35 18t-34.5 18t-30.5 6q-22 0 -41 -12t-28 -31q-6 -9 -11 -4l-22 24q18 47 54 79t80 32q35 0 81 -20q15 -6 35 -18t34.5 -18t30.5 -6q21 0 40.5 12t28.5 30q6 9 11 5zM243 44q34 0 65 40.5t30 92.5 l-3 91q-73 -4 -116.5 -33t-43.5 -101q0 -90 68 -90zM477 376l10 -284q1 -42 55 -42q6 0 6 -6q0 -27 -8 -30q-24 -8 -78 -16t-76 -8q-31 0 -33 26q-2 27 -3 51h-8q-59 -77 -147 -77q-72 0 -118.5 37.5t-46.5 106.5q0 161 304 166l-2 77q0 45 -20.5 71.5t-50.5 26.5 q-21 0 -37 -17.5t-16 -41.5q0 -2 0.5 -8t0.5 -10q0 -27 -20.5 -42t-50.5 -15q-62 0 -62 56q0 53 52.5 83t133.5 30q86 0 150.5 -35t64.5 -99z" unicode="ã" glyph-name="atilde" horiz-adv-x="568"/>
<glyph d="M310 694q0 35 24.5 59.5t59.5 24.5t59.5 -24.5t24.5 -59.5t-24.5 -59.5t-59.5 -24.5t-59.5 24.5t-24.5 59.5zM74 694q0 35 24.5 59.5t59.5 24.5t59.5 -24.5t24.5 -59.5t-24.5 -59.5t-59.5 -24.5t-59.5 24.5t-24.5 59.5zM243 44q34 0 65 40.5t30 92.5l-3 91 q-73 -4 -116.5 -33t-43.5 -101q0 -90 68 -90zM477 376l10 -284q1 -42 55 -42q6 0 6 -6q0 -27 -8 -30q-24 -8 -78 -16t-76 -8q-31 0 -33 26q-2 27 -3 51h-8q-59 -77 -147 -77q-72 0 -118.5 37.5t-46.5 106.5q0 161 304 166l-2 77q0 45 -20.5 71.5t-50.5 26.5q-21 0 -37 -17.5 t-16 -41.5q0 -2 0.5 -8t0.5 -10q0 -27 -20.5 -42t-50.5 -15q-62 0 -62 56q0 53 52.5 83t133.5 30q86 0 150.5 -35t64.5 -99z" unicode="ä" glyph-name="adieresis" horiz-adv-x="568"/>
<glyph d="M277 609q34 0 34 64t-34 64q-32 0 -32 -64t32 -64zM277 755q47 0 77.5 -20t30.5 -62q0 -43 -30.5 -62.5t-77.5 -19.5q-46 0 -77 20t-31 62t31.5 62t76.5 20zM243 44q34 0 65 40.5t30 92.5l-3 91q-73 -4 -116.5 -33t-43.5 -101q0 -90 68 -90zM477 376l10 -284 q1 -42 55 -42q6 0 6 -6q0 -27 -8 -30q-24 -8 -78 -16t-76 -8q-31 0 -33 26q-2 27 -3 51h-8q-59 -77 -147 -77q-72 0 -118.5 37.5t-46.5 106.5q0 161 304 166l-2 77q0 45 -20.5 71.5t-50.5 26.5q-21 0 -37 -17.5t-16 -41.5q0 -2 0.5 -8t0.5 -10q0 -27 -20.5 -42t-50.5 -15 q-62 0 -62 56q0 53 52.5 83t133.5 30q86 0 150.5 -35t64.5 -99z" unicode="å" glyph-name="aring" horiz-adv-x="568"/>
<glyph d="M587 474q-51 0 -74 -43t-26 -145h176q7 0 7 17q-3 92 -22 131.5t-61 39.5zM587 510q107 0 167 -62.5t60 -177.5q0 -8 -6 -14t-14 -6h-298q-9 0 -9 -7q1 -63 12 -105.5t31.5 -61.5t39.5 -25.5t44 -6.5q53 0 101 30t57 62q1 4 10 4q22 0 22 -14q0 -42 -65 -89t-140 -47 q-167 0 -229 111q-1 -4 -6 -10q-71 -101 -169 -101q-72 0 -118.5 37.5t-46.5 106.5q0 156 283 165h-6l20 -3l7 -1l1 -26q-35 -3 -60.5 -9t-49.5 -20t-37 -41t-13 -65q0 -90 68 -90q33 0 64 40.5t31 93.5l1 -33l1 -23l22 -4q-11 27 -16 46l27 -46v-3l114 -23l-10 284 q0 52 -46 87q65 47 156 47zM431 463q-62 47 -169 47q-81 0 -133.5 -30t-52.5 -83q0 -56 62 -56q30 0 50.5 15t20.5 42q0 4 -0.5 10t-0.5 8q0 24 16 41.5t37 17.5q30 0 50.5 -26.5t20.5 -71.5l2 -66q0 -11 -21 -12q3 0 10 0.5t11 0.5v-5l5 -1q0 1 0.5 3t0.5 3h1v3 q15 107 90 160zM339 294h1l1 6h15v-3q0 -27 -15 -28h-4q0 9 2 25zM338 178l8 -14q-9 38 -9 86v19h-2z" unicode="æ" glyph-name="ae" horiz-adv-x="849"/>
<glyph d="M264 -29q147 0 147 -80q0 -47 -38.5 -69t-121.5 -22h-51q-3 0 -3 3q0 18 3 18h31q78 0 78 60q0 49 -55 49h-18q-15 0 -20 5t-5 20v41q-85 15 -130.5 73.5t-45.5 180.5q0 260 250 260q86 0 130.5 -32t44.5 -81q0 -27 -20 -46.5t-52 -19.5q-30 0 -45.5 18.5t-15.5 48.5 q0 4 0.5 10t0.5 8q0 26 -11.5 42t-31.5 16q-100 0 -100 -224q0 -66 9.5 -109.5t27 -63.5t35 -27t40.5 -7q52 0 93 29.5t50 63.5q1 4 10 4q22 0 22 -14q0 -43 -56.5 -89.5t-130.5 -46.5q-5 0 -15 0.5t-15 0.5v-20h9z" unicode="ç" glyph-name="ccedilla" horiz-adv-x="512"/>
<glyph d="M204 672q-23 16 -23 43q0 26 18.5 45t44.5 19q28 0 45 -20q18 -22 36.5 -62t28.5 -69.5t10 -35.5q0 -5 -7 -5q-22 0 -53 19q-58 35 -100 66zM285 474q-51 0 -74 -43t-26 -145h176q7 0 7 17q-3 92 -22 131.5t-61 39.5zM285 510q107 0 167 -62.5t60 -177.5q0 -8 -6 -14 t-14 -6h-298q-9 0 -9 -7q1 -63 12 -105.5t31.5 -61.5t39.5 -25.5t44 -6.5q53 0 101 30t57 62q1 4 10 4q22 0 22 -14q0 -42 -65 -89t-140 -47q-38 0 -71.5 6t-69.5 23t-62 45t-42.5 75.5t-16.5 110.5q0 71 22.5 123.5t60.5 81t80 42t87 13.5z" unicode="è" glyph-name="egrave" horiz-adv-x="547"/>
<glyph d="M391 672q-42 -31 -100 -66q-31 -19 -53 -19q-7 0 -7 5q0 6 10 35.5t28.5 69.5t36.5 62q17 20 45 20q26 0 44.5 -19t18.5 -45q0 -27 -23 -43zM285 474q-51 0 -74 -43t-26 -145h176q7 0 7 17q-3 92 -22 131.5t-61 39.5zM285 510q107 0 167 -62.5t60 -177.5q0 -8 -6 -14 t-14 -6h-298q-9 0 -9 -7q1 -63 12 -105.5t31.5 -61.5t39.5 -25.5t44 -6.5q53 0 101 30t57 62q1 4 10 4q22 0 22 -14q0 -42 -65 -89t-140 -47q-38 0 -71.5 6t-69.5 23t-62 45t-42.5 75.5t-16.5 110.5q0 71 22.5 123.5t60.5 81t80 42t87 13.5z" unicode="é" glyph-name="eacute" horiz-adv-x="547"/>
<glyph d="M281 779h5q32 -2 47 -20q26 -31 55.5 -94t29.5 -73q0 -5 -7 -5q-22 0 -53 19q-25 15 -77 51q-53 -37 -76 -51q-31 -19 -53 -19q-7 0 -7 5q0 10 29.5 73t55.5 94q15 18 46 20h5zM285 474q-51 0 -74 -43t-26 -145h176q7 0 7 17q-3 92 -22 131.5t-61 39.5zM285 510 q107 0 167 -62.5t60 -177.5q0 -8 -6 -14t-14 -6h-298q-9 0 -9 -7q1 -63 12 -105.5t31.5 -61.5t39.5 -25.5t44 -6.5q53 0 101 30t57 62q1 4 10 4q22 0 22 -14q0 -42 -65 -89t-140 -47q-38 0 -71.5 6t-69.5 23t-62 45t-42.5 75.5t-16.5 110.5q0 71 22.5 123.5t60.5 81t80 42 t87 13.5z" unicode="ê" glyph-name="ecircumflex" horiz-adv-x="547"/>
<glyph d="M315 694q0 35 24.5 59.5t59.5 24.5t59.5 -24.5t24.5 -59.5t-24.5 -59.5t-59.5 -24.5t-59.5 24.5t-24.5 59.5zM79 694q0 35 24.5 59.5t59.5 24.5t59.5 -24.5t24.5 -59.5t-24.5 -59.5t-59.5 -24.5t-59.5 24.5t-24.5 59.5zM285 474q-51 0 -74 -43t-26 -145h176q7 0 7 17 q-3 92 -22 131.5t-61 39.5zM285 510q107 0 167 -62.5t60 -177.5q0 -8 -6 -14t-14 -6h-298q-9 0 -9 -7q1 -63 12 -105.5t31.5 -61.5t39.5 -25.5t44 -6.5q53 0 101 30t57 62q1 4 10 4q22 0 22 -14q0 -42 -65 -89t-140 -47q-38 0 -71.5 6t-69.5 23t-62 45t-42.5 75.5 t-16.5 110.5q0 71 22.5 123.5t60.5 81t80 42t87 13.5z" unicode="ë" glyph-name="edieresis" horiz-adv-x="547"/>
<glyph d="M72 672q-23 16 -23 43q0 26 18.5 45t44.5 19q28 0 45 -20q18 -22 36.5 -62t28.5 -69.5t10 -35.5q0 -5 -7 -5q-22 0 -53 19q-58 35 -100 66zM239 490v-432q1 -13 30 -18l20 -4q8 -2 8 -30q0 -6 -6 -6h-250q-6 0 -6 6q0 28 8 30l20 4q30 5 30 18v355q0 42 -52 42q-6 0 -6 6 q0 28 8 30q25 6 81 12.5t84 6.5q31 0 31 -20z" unicode="ì" glyph-name="igrave" horiz-adv-x="322"/>
<glyph d="M245 672q-42 -31 -100 -66q-31 -19 -53 -19q-7 0 -7 5q0 6 10 35.5t28.5 69.5t36.5 62q17 20 45 20q26 0 44.5 -19t18.5 -45q0 -27 -23 -43zM239 490v-432q1 -13 30 -18l20 -4q8 -2 8 -30q0 -6 -6 -6h-250q-6 0 -6 6q0 28 8 30l20 4q30 5 30 18v355q0 42 -52 42 q-6 0 -6 6q0 28 8 30q25 6 81 12.5t84 6.5q31 0 31 -20z" unicode="í" glyph-name="iacute" horiz-adv-x="322"/>
<glyph d="M166 781h5q32 -2 47 -20q26 -31 55.5 -94t29.5 -73q0 -5 -7 -5q-22 0 -53 19q-25 15 -77 51q-53 -37 -76 -51q-31 -19 -53 -19q-7 0 -7 5q0 10 29.5 73t55.5 94q15 18 46 20h5zM248 490v-432q1 -13 30 -18l20 -4q8 -2 8 -30q0 -6 -6 -6h-250q-6 0 -6 6q0 28 8 30l20 4 q30 5 30 18v355q0 42 -52 42q-6 0 -6 6q0 28 8 30q25 6 81 12.5t84 6.5q31 0 31 -20z" unicode="î" glyph-name="icircumflex" horiz-adv-x="331"/>
<glyph d="M202 694q0 35 24.5 59.5t59.5 24.5t59.5 -24.5t24.5 -59.5t-24.5 -59.5t-59.5 -24.5t-59.5 24.5t-24.5 59.5zM-34 694q0 35 24.5 59.5t59.5 24.5t59.5 -24.5t24.5 -59.5t-24.5 -59.5t-59.5 -24.5t-59.5 24.5t-24.5 59.5zM254 490v-432q1 -13 30 -18l20 -4q8 -2 8 -30 q0 -6 -6 -6h-250q-6 0 -6 6q0 28 8 30l20 4q30 5 30 18v355q0 42 -52 42q-6 0 -6 6q0 28 8 30q25 6 81 12.5t84 6.5q31 0 31 -20z" unicode="ï" glyph-name="idieresis" horiz-adv-x="306"/>
<glyph d="M298 26q59 0 95 65t36 165q0 75 -6 120q-3 26 -42.5 57t-83.5 31q-58 0 -87.5 -60.5t-29.5 -167.5q0 -102 33 -156t85 -54zM498 665l-55 -22q136 -158 136 -387q0 -116 -73 -191t-208 -75q-122 0 -195 62t-73 184q0 134 65 204t182 70q66 0 119 -46q5 -4 8 -2t2 8 q-15 90 -41 142l-67 -26l-20 53l57 22q-29 38 -89 95q-1 1 -5 4t-5.5 4.5t-3 5.5t1.5 7l16 22q89 -52 151 -112l75 30z" unicode="ð" glyph-name="eth" horiz-adv-x="609"/>
<glyph d="M520 743l23 -19q-17 -50 -53.5 -83t-81.5 -33q-35 0 -81 20q-15 6 -35 18t-34.5 18t-30.5 6q-22 0 -41 -12t-28 -31q-6 -9 -11 -4l-22 24q18 47 54 79t80 32q35 0 81 -20q15 -6 35 -18t34.5 -18t30.5 -6q21 0 40.5 12t28.5 30q6 9 11 5zM224 490v-70q77 90 175 90 q80 0 128 -33t48 -99v-318q0 -15 30 -20l20 -4q8 -2 8 -30q0 -6 -6 -6h-250q-6 0 -6 6q0 28 8 30l20 4q30 5 30 20v318q0 39 -22.5 60t-60.5 21q-29 0 -61 -19.5t-46 -44.5v-337q0 -13 30 -18l20 -4q8 -2 8 -30q0 -6 -6 -6h-250q-6 0 -6 6q0 28 8 30l20 4q30 5 30 18v355 q0 42 -52 42q-6 0 -6 6q0 28 8 30q25 6 77 12.5t73 6.5q31 0 31 -20z" unicode="ñ" glyph-name="ntilde" horiz-adv-x="658"/>
<glyph d="M217 672q-23 16 -23 43q0 26 18.5 45t44.5 19q28 0 45 -20q18 -22 36.5 -62t28.5 -69.5t10 -35.5q0 -5 -7 -5q-22 0 -53 19q-58 35 -100 66zM285 26q55 0 77.5 50.5t22.5 173.5t-22.5 173.5t-77.5 50.5t-77.5 -50.5t-22.5 -173.5t22.5 -173.5t77.5 -50.5zM285 510 q45 0 87 -13.5t80 -42t60.5 -81t22.5 -123.5t-22.5 -123.5t-60.5 -81t-80 -42t-87 -13.5t-87 13.5t-80 42t-60.5 81t-22.5 123.5t22.5 123.5t60.5 81t80 42t87 13.5z" unicode="ò" glyph-name="ograve" horiz-adv-x="570"/>
<glyph d="M379 672q-42 -31 -100 -66q-31 -19 -53 -19q-7 0 -7 5q0 6 10 35.5t28.5 69.5t36.5 62q17 20 45 20q26 0 44.5 -19t18.5 -45q0 -27 -23 -43zM285 26q55 0 77.5 50.5t22.5 173.5t-22.5 173.5t-77.5 50.5t-77.5 -50.5t-22.5 -173.5t22.5 -173.5t77.5 -50.5zM285 510 q45 0 87 -13.5t80 -42t60.5 -81t22.5 -123.5t-22.5 -123.5t-60.5 -81t-80 -42t-87 -13.5t-87 13.5t-80 42t-60.5 81t-22.5 123.5t22.5 123.5t60.5 81t80 42t87 13.5z" unicode="ó" glyph-name="oacute" horiz-adv-x="570"/>
<glyph d="M285 779h5q32 -2 47 -20q26 -31 55.5 -94t29.5 -73q0 -5 -7 -5q-22 0 -53 19q-25 15 -77 51q-53 -37 -76 -51q-31 -19 -53 -19q-7 0 -7 5q0 10 29.5 73t55.5 94q15 18 46 20h5zM285 26q55 0 77.5 50.5t22.5 173.5t-22.5 173.5t-77.5 50.5t-77.5 -50.5t-22.5 -173.5 t22.5 -173.5t77.5 -50.5zM285 510q45 0 87 -13.5t80 -42t60.5 -81t22.5 -123.5t-22.5 -123.5t-60.5 -81t-80 -42t-87 -13.5t-87 13.5t-80 42t-60.5 81t-22.5 123.5t22.5 123.5t60.5 81t80 42t87 13.5z" unicode="ô" glyph-name="ocircumflex" horiz-adv-x="570"/>
<glyph d="M471 743l23 -19q-17 -50 -53.5 -83t-81.5 -33q-35 0 -81 20q-15 6 -35 18t-34.5 18t-30.5 6q-22 0 -41 -12t-28 -31q-6 -9 -11 -4l-22 24q18 47 54 79t80 32q35 0 81 -20q15 -6 35 -18t34.5 -18t30.5 -6q21 0 40.5 12t28.5 30q6 9 11 5zM285 26q55 0 77.5 50.5 t22.5 173.5t-22.5 173.5t-77.5 50.5t-77.5 -50.5t-22.5 -173.5t22.5 -173.5t77.5 -50.5zM285 510q45 0 87 -13.5t80 -42t60.5 -81t22.5 -123.5t-22.5 -123.5t-60.5 -81t-80 -42t-87 -13.5t-87 13.5t-80 42t-60.5 81t-22.5 123.5t22.5 123.5t60.5 81t80 42t87 13.5z" unicode="õ" glyph-name="otilde" horiz-adv-x="570"/>
<glyph d="M319 694q0 35 24.5 59.5t59.5 24.5t59.5 -24.5t24.5 -59.5t-24.5 -59.5t-59.5 -24.5t-59.5 24.5t-24.5 59.5zM83 694q0 35 24.5 59.5t59.5 24.5t59.5 -24.5t24.5 -59.5t-24.5 -59.5t-59.5 -24.5t-59.5 24.5t-24.5 59.5zM285 26q55 0 77.5 50.5t22.5 173.5t-22.5 173.5 t-77.5 50.5t-77.5 -50.5t-22.5 -173.5t22.5 -173.5t77.5 -50.5zM285 510q45 0 87 -13.5t80 -42t60.5 -81t22.5 -123.5t-22.5 -123.5t-60.5 -81t-80 -42t-87 -13.5t-87 13.5t-80 42t-60.5 81t-22.5 123.5t22.5 123.5t60.5 81t80 42t87 13.5z" unicode="ö" glyph-name="odieresis" horiz-adv-x="570"/>
<glyph d="M210 445q0 35 24.5 59.5t59.5 24.5t59.5 -24.5t24.5 -59.5t-24.5 -59.5t-59.5 -24.5t-59.5 24.5t-24.5 59.5zM210 103q0 35 24.5 59.5t59.5 24.5t59.5 -24.5t24.5 -59.5t-24.5 -59.5t-59.5 -24.5t-59.5 24.5t-24.5 59.5zM40 231v86h509v-86h-509z" unicode="÷" glyph-name="divide" horiz-adv-x="589"/>
<glyph d="M280 26q55 0 77.5 50.5t22.5 173.5q0 46 -3 80l-185 -222q20 -82 88 -82zM466 437q64 -69 64 -187q0 -71 -22.5 -123.5t-60.5 -81t-80 -42t-87 -13.5q-88 0 -150 43l-47 -57l-36 30l47 57q-64 69 -64 187q0 71 22.5 123.5t60.5 81t80 42t87 13.5q88 0 150 -43l47 57 l36 -30zM368 392q-20 82 -88 82q-55 0 -77.5 -50.5t-22.5 -173.5q0 -46 3 -80z" unicode="ø" glyph-name="oslash" horiz-adv-x="560"/>
<glyph d="M244 672q-23 16 -23 43q0 26 18.5 45t44.5 19q28 0 45 -20q18 -22 36.5 -62t28.5 -69.5t10 -35.5q0 -5 -7 -5q-22 0 -53 19q-58 35 -100 66zM244 480v-358q0 -39 22.5 -60t60.5 -21q29 0 59.5 19.5t47.5 45.5v301q0 38 -52 38q-6 0 -6 6q0 28 8 30q25 6 81 12.5t84 6.5 q31 0 31 -20v-388q0 -42 52 -42q6 0 6 -6q0 -27 -8 -30q-24 -8 -74 -16t-71 -8q-31 0 -31 20v62q-76 -82 -173 -82q-95 0 -139 36t-44 96v285q0 38 -52 38q-6 0 -6 6q0 28 8 30q25 6 81 12.5t84 6.5q31 0 31 -20z" unicode="ù" glyph-name="ugrave" horiz-adv-x="663"/>
<glyph d="M427 672q-42 -31 -100 -66q-31 -19 -53 -19q-7 0 -7 5q0 6 10 35.5t28.5 69.5t36.5 62q17 20 45 20q26 0 44.5 -19t18.5 -45q0 -27 -23 -43zM244 480v-358q0 -39 22.5 -60t60.5 -21q29 0 59.5 19.5t47.5 45.5v301q0 38 -52 38q-6 0 -6 6q0 28 8 30q25 6 81 12.5t84 6.5 q31 0 31 -20v-388q0 -42 52 -42q6 0 6 -6q0 -27 -8 -30q-24 -8 -74 -16t-71 -8q-31 0 -31 20v62q-76 -82 -173 -82q-95 0 -139 36t-44 96v285q0 38 -52 38q-6 0 -6 6q0 28 8 30q25 6 81 12.5t84 6.5q31 0 31 -20z" unicode="ú" glyph-name="uacute" horiz-adv-x="663"/>
<glyph d="M332 779h5q32 -2 47 -20q26 -31 55.5 -94t29.5 -73q0 -5 -7 -5q-22 0 -53 19q-25 15 -77 51q-53 -37 -76 -51q-31 -19 -53 -19q-7 0 -7 5q0 10 29.5 73t55.5 94q15 18 46 20h5zM244 480v-358q0 -39 22.5 -60t60.5 -21q29 0 59.5 19.5t47.5 45.5v301q0 38 -52 38 q-6 0 -6 6q0 28 8 30q25 6 81 12.5t84 6.5q31 0 31 -20v-388q0 -42 52 -42q6 0 6 -6q0 -27 -8 -30q-24 -8 -74 -16t-71 -8q-31 0 -31 20v62q-76 -82 -173 -82q-95 0 -139 36t-44 96v285q0 38 -52 38q-6 0 -6 6q0 28 8 30q25 6 81 12.5t84 6.5q31 0 31 -20z" unicode="û" glyph-name="ucircumflex" horiz-adv-x="663"/>
<glyph d="M362 694q0 35 24.5 59.5t59.5 24.5t59.5 -24.5t24.5 -59.5t-24.5 -59.5t-59.5 -24.5t-59.5 24.5t-24.5 59.5zM126 694q0 35 24.5 59.5t59.5 24.5t59.5 -24.5t24.5 -59.5t-24.5 -59.5t-59.5 -24.5t-59.5 24.5t-24.5 59.5zM244 480v-358q0 -39 22.5 -60t60.5 -21 q29 0 59.5 19.5t47.5 45.5v301q0 38 -52 38q-6 0 -6 6q0 28 8 30q25 6 81 12.5t84 6.5q31 0 31 -20v-388q0 -42 52 -42q6 0 6 -6q0 -27 -8 -30q-24 -8 -74 -16t-71 -8q-31 0 -31 20v62q-76 -82 -173 -82q-95 0 -139 36t-44 96v285q0 38 -52 38q-6 0 -6 6q0 28 8 30 q25 6 81 12.5t84 6.5q31 0 31 -20z" unicode="ü" glyph-name="udieresis" horiz-adv-x="663"/>
<glyph d="M391 672q-42 -31 -100 -66q-31 -19 -53 -19q-7 0 -7 5q0 6 10 35.5t28.5 69.5t36.5 62q17 20 45 20q26 0 44.5 -19t18.5 -45q0 -27 -23 -43zM61 438q-7 17 -33 22l-20 4q-8 2 -8 30q0 6 6 6h235q6 0 6 -6q0 -28 -8 -30l-20 -4q-9 -2 -13.5 -7t-1.5 -12l116 -286 q4 -10 10 -10t10 10l94 283q0 1 0.5 2.5t0.5 2.5q0 12 -18 17l-20 4q-8 2 -8 30q0 6 6 6h143q6 0 6 -6q0 -28 -8 -30l-20 -4q-25 -5 -33 -22l-194 -547q-19 -54 -46 -72.5t-82 -18.5q-41 0 -72.5 24t-31.5 60q0 26 17.5 45.5t45.5 19.5q16 0 31 -11.5t18 -26.5q1 -3 2 -10.5 t1.5 -12t2 -11.5t3.5 -11t4.5 -8t6 -6t7.5 -2q29 0 44 41l13 38q3 11 3 21q0 6 -2 16z" unicode="ý" glyph-name="yacute" horiz-adv-x="538"/>
<glyph d="M343 41q47 0 76.5 49t29.5 150q0 219 -98 219q-38 0 -77.5 -29t-39.5 -57v-231q2 -40 36.5 -70.5t72.5 -30.5zM384 510q62 0 106.5 -24t67 -65t32 -85t9.5 -96q0 -127 -61 -188.5t-154 -61.5q-46 0 -86 21t-64 52v-203q0 -15 30 -20l20 -4q8 -2 8 -30q0 -6 -6 -6h-250 q-6 0 -6 6q0 28 8 30l20 4q30 5 30 18v839q-3 38 -52 38q-6 0 -6 6q0 28 8 30q25 6 81 12.5t84 6.5q31 0 31 -20v-333q65 73 150 73z" unicode="þ" glyph-name="thorn" horiz-adv-x="634"/>
</font>
</defs>
</svg>
