<?xml version="1.0" encoding="UTF-8" standalone="no"?>
<!DOCTYPE svg  PUBLIC '-//W3C//DTD SVG 1.1//EN'  'http://www.w3.org/Graphics/SVG/1.1/DTD/svg11.dtd'>
<svg version="1.1" xmlns="http://www.w3.org/2000/svg">
<defs>
<font id="Avila-Regular" horiz-adv-x="709">
<font-face unicode-range="U+0020-FB04" font-weight="400" font-family="Avila Regular" descent="-200" panose-1="2 0 0 0 0 0 0 0 0 0" ascent="800" x-height="500" underline-position="-150" underline-thickness="50" units-per-em="1000" bbox="-60 -200 978 968" cap-height="700"/>
<missing-glyph/>
<glyph unicode=" " glyph-name="space" horiz-adv-x="250"/>
<glyph unicode="!" glyph-name="exclam" horiz-adv-x="242" d="M60 51q0 25 18 43t43 18t43 -18t18 -43t-18 -43t-43 -18t-43 18t-18 43zM111 191q-12 0 -13 9q-6 44 -21.5 235t-16.5 226q0 27 19 45q17 14 42 14t42 -14q19 -18 19 -45q-1 -35 -16.5 -226t-21.5 -235q-1 -9 -13 -9h-20z"/>
<glyph unicode='&quot;' glyph-name="quotedbl" horiz-adv-x="324" d="M229 544q-8 0 -10 7q-27 105 -29 162q0 20 15 34q12 11 32 11t32 -11q15 -14 15 -34q-2 -57 -29 -162q-2 -7 -10 -7h-16zM79 544q-8 0 -10 7q-27 105 -29 162q0 20 15 34q12 11 32 11t32 -11q15 -14 15 -34q-2 -57 -29 -162q-2 -7 -10 -7h-16z"/>
<glyph unicode="#" glyph-name="numbersign" horiz-adv-x="592" d="M332 240l36 124h-108l-36 -124h108zM542 423v-60h-122l-35 -122h128v-60h-145l-51 -181h-55l52 181h-105l-53 -181h-54l53 181h-105v60h122l35 122h-128v60h145l50 177h55l-51 -177h105l52 177h54l-52 -177h105z"/>
<glyph unicode="$" glyph-name="dollar" horiz-adv-x="553" d="M256 619q-46 -3 -80 -29.5t-34 -66.5q1 -70 114 -114v210zM432 151q0 77 -129 123v-230q53 3 91 29t38 78zM52 484q0 76 58 128.5t146 57.5v111h47v-112q77 -8 134 -51t57 -98q0 -31 -15.5 -50.5t-37.5 -19.5q-58 0 -58 71q0 6 0.5 13.5t0.5 9.5q0 26 -23 45t-58 27v-224 l34 -11q37 -13 54.5 -20t48 -23.5t45 -34t26.5 -46.5t12 -65q0 -85 -62.5 -140t-157.5 -61v-139h-47v139q-87 7 -156.5 54t-69.5 116q0 31 15.5 50.5t37.5 19.5q58 0 58 -71q0 -6 -0.5 -13.5t-0.5 -9.5q0 -79 116 -91v243q-34 10 -57 18.5t-53.5 25t-49 35.5t-31.5 49 t-13 67z"/>
<glyph unicode="%" glyph-name="percent" horiz-adv-x="711" d="M525 294q-36 0 -53.5 -29.5t-17.5 -103.5q0 -73 17.5 -102.5t53.5 -29.5t53.5 29.5t17.5 102.5t-17.5 103t-53.5 30zM187 672q-36 0 -53.5 -29.5t-17.5 -103.5q0 -73 17.5 -102.5t53.5 -29.5t53.5 29.5t17.5 102.5t-17.5 103t-53.5 30zM119 0h-49l484 677q10 15 16.5 19 t21.5 4h49l-484 -677q-10 -15 -16.5 -19t-21.5 -4zM525 0q-60 0 -103.5 40t-43.5 121q0 82 43.5 122t103.5 40t103 -40t43 -122q0 -81 -43 -121t-103 -40zM187 378q-60 0 -103.5 40t-43.5 121q0 82 43.5 122t103.5 40t103 -40t43 -122q0 -81 -43 -121t-103 -40z"/>
<glyph unicode="&amp;" glyph-name="ampersand" horiz-adv-x="634" d="M286 -10q-104 0 -175 58t-71 158q0 65 35.5 117.5t93.5 80.5q9 6 9 11t-7 9l-11 7q-70 50 -70 134q0 78 50 126.5t146 48.5q76 0 125 -41.5t49 -96.5q0 -26 -13.5 -43t-31.5 -17q-50 0 -50 61q0 5 0.5 11t0.5 8q0 34 -22.5 58t-57.5 24q-91 0 -91 -139q0 -134 85 -134h60 q6 0 6 -31q0 -5 -5 -5h-62q-59 0 -96.5 -56t-37.5 -133q0 -81 37.5 -120.5t103.5 -39.5q82 0 117.5 55t35.5 144q0 15 -30 20l-20 4q-8 2 -8 35q0 6 6 6h188q6 0 6 -6q0 -33 -8 -35l-30 -4q-28 -3 -39 -7.5t-11 -14.5q0 -62 -16 -113l36 -59q16 -24 37 -27l46 -8q8 -2 8 -30 q0 -6 -6 -6h-76q-14 0 -22 0.5t-20 4t-22 12t-17 22.5l-7 12q-53 -61 -148 -61z"/>
<glyph unicode="&apos;" glyph-name="quotesingle" horiz-adv-x="174" d="M79 544q-8 0 -10 7q-27 105 -29 162q0 20 15 34q12 11 32 11t32 -11q15 -14 15 -34q-2 -57 -29 -162q-2 -7 -10 -7h-16z"/>
<glyph unicode="(" glyph-name="parenleft" horiz-adv-x="323" d="M318 -104v-36q-113 0 -195.5 132.5t-82.5 332.5t82.5 332.5t195.5 132.5v-36q-45 0 -87 -56t-69 -156.5t-27 -216.5t27 -216.5t69 -156.5t87 -56z"/>
<glyph unicode=")" glyph-name="parenright" horiz-adv-x="323" d="M5 -140v36q45 0 87 56t69 156.5t27 216.5t-27 216.5t-69 156.5t-87 56v36q113 0 195.5 -132.5t82.5 -332.5t-82.5 -332.5t-195.5 -132.5z"/>
<glyph unicode="*" glyph-name="asterisk" horiz-adv-x="420" d="M347 537q-26 0 -114 18q54 -58 73 -89q7 -13 3 -28q-3 -10 -15 -17q-10 -7 -21 -4q-16 4 -23 17q-16 26 -40 107q-27 -84 -40 -107q-7 -13 -23 -17q-11 -3 -21 4q-12 7 -15 17q-4 15 3 28q13 23 72 89q-86 -18 -113 -18q-15 0 -26 11q-7 8 -7 21t7 21q11 11 26 11 q33 0 113 -19q-60 67 -72 90q-7 13 -3 28q3 10 15 17q10 7 21 4q16 -4 23 -17q15 -28 40 -108q23 78 40 108q7 13 23 17q11 3 21 -4q12 -7 15 -17q4 -15 -3 -28q-18 -31 -73 -90q82 19 114 19q15 0 26 -11q7 -8 7 -21t-7 -21q-11 -11 -26 -11z"/>
<glyph unicode="+" glyph-name="plus" horiz-adv-x="569" d="M40 246v56h216v211h57v-211h216v-56h-216v-212h-57v212h-216z"/>
<glyph unicode="," glyph-name="comma" horiz-adv-x="202" d="M41 48q0 23 17 40t41 17q34 0 51 -31q12 -20 12 -56q0 -41 -28.5 -96t-66.5 -92l-27 25q16 16 32 45.5t16 45.5q0 29 -22 54q-25 17 -25 48z"/>
<glyph unicode="-" glyph-name="hyphen" horiz-adv-x="369" d="M40 213v72h289v-72h-289z"/>
<glyph unicode="." glyph-name="period" horiz-adv-x="202" d="M40 51q0 25 18 43t43 18t43 -18t18 -43t-18 -43t-43 -18t-43 18t-18 43z"/>
<glyph unicode="/" glyph-name="slash" horiz-adv-x="381" d="M39 -180h-39l304 937q10 23 38 23h39l-304 -937q-10 -23 -38 -23z"/>
<glyph unicode="0" glyph-name="zero" horiz-adv-x="596" d="M298 704q-70 0 -111.5 -85.5t-41.5 -253.5t41.5 -253.5t111.5 -85.5t111.5 85.5t41.5 253.5t-41.5 253.5t-111.5 85.5zM298 -10q-117 0 -187.5 93t-70.5 282t70.5 282t187.5 93q116 0 187 -93t71 -282t-71 -282t-187 -93z"/>
<glyph unicode="1" glyph-name="one" horiz-adv-x="326" d="M198 720v-660q0 -4 3 -7.5t8.5 -5.5t10 -3t11 -2t7.5 -1l40 -5q8 -2 8 -30q0 -6 -6 -6h-264q-6 0 -6 6q0 28 8 30l40 5q1 0 7.5 1t11 2t10 3t8.5 5.5t3 7.5v570q0 11 -4.5 15.5t-15.5 4.5h-62q-6 0 -6 6q0 30 8 30q40 0 76.5 16t49.5 38h34q11 0 15.5 -4.5t4.5 -15.5z "/>
<glyph unicode="2" glyph-name="two" horiz-adv-x="526" d="M370 515q0 189 -131 189q-43 0 -69 -23.5t-26 -60.5q0 -2 0.5 -8.5t0.5 -12.5q0 -67 -55 -67q-20 0 -35 18.5t-15 47.5q0 58 60 100t139 42q107 0 171.5 -49.5t64.5 -155.5q0 -41 -20 -83.5t-59.5 -86t-62 -65t-63.5 -56.5q-95 -80 -131 -136q-3 -6 -1 -11q2 -7 20 -7 h227q25 0 40.5 14t18.5 28l3 14l3 49q0 8 30 8q6 0 6 -6v-182q0 -15 -15 -15h-431v55q0 25 41.5 71.5t115.5 114.5t91 86q82 85 82 188z"/>
<glyph unicode="3" glyph-name="three" horiz-adv-x="525" d="M239 740q100 0 158 -46.5t58 -128.5q0 -107 -90 -159q-9 -5 -9 -11q0 -7 6 -9q57 -25 90 -71t33 -109q0 -100 -71 -158t-175 -58q-84 0 -146.5 38t-62.5 104q0 30 16 48t44 18q55 0 55 -67q0 -6 -0.5 -12.5t-0.5 -8.5q0 -37 26 -60.5t69 -23.5q64 0 102.5 48.5 t38.5 131.5q0 75 -37 121.5t-98 47.5h-61q-5 0 -5 5q0 31 6 31h60q56 1 80.5 44t24.5 110q0 139 -111 139q-43 0 -69 -23.5t-26 -60.5q0 -2 0.5 -8.5t0.5 -12.5q0 -67 -55 -67q-20 0 -35 18.5t-15 47.5q0 58 60 100t139 42z"/>
<glyph unicode="4" glyph-name="four" horiz-adv-x="565" d="M92 240h244v367zM30 240l309 462q8 12 31 25t38 13q28 0 28 -20v-480h80q9 0 9 -8q0 -53 -11 -53h-78v-119q0 -4 3 -7.5t8.5 -5.5t10 -3t11 -2t7.5 -1l40 -5q8 -2 8 -30q0 -6 -6 -6h-264q-6 0 -6 6q0 28 8 30l40 5q1 0 7.5 1t11 2t10 3t8.5 5.5t3 7.5v119h-296 q-8 0 -14 6t-6 14v15q0 9 10 26z"/>
<glyph unicode="5" glyph-name="five" horiz-adv-x="525" d="M230 434q-87 0 -129 -53l-37 14l26 315q2 20 20 20h316q15 0 15 -15v-162q0 -6 -6 -6q-30 0 -30 8l-3 29q-1 6 -3 15.5t-18 25t-41 15.5h-180q-18 -1 -19 -23l-12 -158q-1 -6 2 -8t9 0q46 19 100 19q106 0 180.5 -65.5t74.5 -168.5q0 -120 -74 -183t-182 -63 q-84 0 -146.5 38t-62.5 104q0 30 16 48t44 18q55 0 55 -67q0 -6 -0.5 -12.5t-0.5 -8.5q0 -37 26 -60.5t69 -23.5q67 0 109 54t42 156q0 79 -44 138.5t-116 59.5z"/>
<glyph unicode="6" glyph-name="six" horiz-adv-x="509" d="M256 26q65 0 101.5 53t36.5 157q0 83 -33.5 140.5t-103.5 57.5q-44 0 -83.5 -31t-42.5 -57q-6 -45 -6 -90q0 -100 36 -165t95 -65zM277 470q103 0 162.5 -63.5t59.5 -170.5q0 -121 -68.5 -183.5t-174.5 -62.5q-105 0 -170.5 77t-65.5 189q0 187 106 322t264 162l7 -25 q3 -10 -15 -14q-1 -1 -2 -1q-86 -24 -145 -96.5t-87 -173.5q-1 -6 2 -8t8 2q53 46 119 46z"/>
<glyph unicode="7" glyph-name="seven" horiz-adv-x="516" d="M20 725q0 15 15 15h441q20 0 20 -20v-44q0 -7 -10 -26l-346 -638q-7 -12 -16 -12h-60l343 631q4 8 4 11q0 8 -12 8h-282q-24 -1 -38.5 -15t-16.5 -27l-3 -14l-3 -39q0 -8 -30 -8q-6 0 -6 6v172z"/>
<glyph unicode="8" glyph-name="eight" horiz-adv-x="572" d="M286 704q-111 0 -111 -129q0 -28 12 -51.5t25.5 -37t41.5 -27.5t42 -19t46 -15q55 34 55 140q0 139 -111 139zM286 26q65 0 103 44t38 126q0 56 -40 93t-101 55q-25 7 -56 20q-40 -17 -62.5 -59t-22.5 -99q0 -83 38.5 -131.5t102.5 -48.5zM286 740q100 0 158 -46.5 t58 -128.5q0 -55 -26.5 -98t-74.5 -67q131 -69 131 -194q0 -100 -71 -158t-175 -58t-175 58t-71 158q0 66 37 114t99 71q-106 66 -106 174q0 82 58 128.5t158 46.5z"/>
<glyph unicode="9" glyph-name="nine" horiz-adv-x="509" d="M253 704q-65 0 -101.5 -53t-36.5 -157q0 -83 33.5 -140.5t103.5 -57.5q44 0 83.5 31t42.5 57q6 45 6 90q0 100 -36 165t-95 65zM232 260q-103 0 -162.5 63.5t-59.5 170.5q0 121 68.5 183.5t174.5 62.5q105 0 170.5 -77t65.5 -189q0 -187 -106 -322t-264 -162l-7 25 q-3 10 15 14q1 1 2 1q86 24 144.5 96.5t86.5 172.5q1 6 -2 8.5t-8 -1.5q-51 -46 -118 -46z"/>
<glyph unicode=":" glyph-name="colon" horiz-adv-x="202" d="M40 51q0 25 18 43t43 18t43 -18t18 -43t-18 -43t-43 -18t-43 18t-18 43zM40 439q0 25 18 43t43 18t43 -18t18 -43t-18 -43t-43 -18t-43 18t-18 43z"/>
<glyph unicode=";" glyph-name="semicolon" horiz-adv-x="208" d="M40 439q0 25 18 43t43 18t43 -18t18 -43t-18 -43t-43 -18t-43 18t-18 43zM47 48q0 23 17 40t41 17q34 0 51 -31q12 -20 12 -56q0 -41 -28.5 -96t-66.5 -92l-27 25q16 16 32 45.5t16 45.5q0 29 -23 54q-24 16 -24 48z"/>
<glyph unicode="&lt;" glyph-name="less" horiz-adv-x="496" d="M20 246v55l436 227v-68l-359 -186l359 -187v-68z"/>
<glyph unicode="=" glyph-name="equal" horiz-adv-x="569" d="M40 155v57h489v-57h-489zM40 335v57h489v-57h-489z"/>
<glyph unicode="&gt;" glyph-name="greater" horiz-adv-x="496" d="M476 301v-55l-436 -227v68l359 187l-359 186v68z"/>
<glyph unicode="?" glyph-name="question" horiz-adv-x="455" d="M138 51q0 25 18 43t43 18t43 -18t18 -43t-18 -43t-43 -18t-43 18t-18 43zM173 375q0 16 16 16h16q56 0 80.5 43t24.5 111q0 139 -111 139q-43 0 -69 -23.5t-26 -60.5q0 -2 0.5 -8.5t0.5 -12.5q0 -67 -55 -67q-20 0 -35 18.5t-15 47.5q0 58 60 100t139 42q98 0 157 -55.5 t59 -139.5q0 -91 -44 -149t-131 -70q-15 -5 -15 -19v-84q0 -12 -12 -12h-28q-12 0 -12 12v172z"/>
<glyph unicode="@" glyph-name="at" horiz-adv-x="875" d="M486 222l51 148q-7 41 -22.5 58.5t-44.5 17.5q-42 0 -75 -44.5t-47 -96t-14 -91.5q0 -99 43 -99q31 0 60.5 30.5t48.5 76.5zM619 -114q-80 -35 -173 -35q-173 0 -289.5 111t-116.5 278q0 122 62 224t164.5 158.5t220.5 56.5q149 0 248.5 -90t99.5 -231q0 -108 -75 -197 t-181 -89q-43 0 -71.5 21.5t-32.5 58.5h-4q-51 -78 -109 -78q-56 0 -85 39.5t-29 95.5q0 93 70 179.5t155 86.5q28 0 49 -16t26 -45h3l15 39q4 11 8.5 13.5t21.5 2.5h36q14 0 17 -2t3 -8q0 -9 -3.5 -17t-10 -20.5t-11.5 -24.5l-68 -192q-10 -28 -10 -54q0 -48 47 -48 q60 0 99.5 45t53.5 100.5t14 114.5q0 128 -78 202t-202 74q-104 0 -187.5 -58.5t-126.5 -147t-43 -185.5q0 -160 86.5 -260t237.5 -100q69 0 126 17q9 4 18 4q13 0 25 -23z"/>
<glyph unicode="A" glyph-name="A" horiz-adv-x="664" d="M321 532q-4 12 -13 12q-8 0 -12 -9l-1 -3l-86 -232h185zM71 69l222 592q6 18 21 27t26.5 10.5t32.5 1.5q3 0 5 -3l209 -629q6 -17 34 -23l35 -4q8 -2 8 -35q0 -6 -6 -6h-228q-6 0 -6 6q0 33 8 35l30 4q11 1 7 20l-58 183h-221l-68 -184q-4 -16 8 -19l30 -4q8 -2 8 -35 q0 -6 -6 -6h-156q-6 0 -6 6q0 33 8 35l30 4q25 5 33 24z"/>
<glyph unicode="B" glyph-name="B" horiz-adv-x="650" d="M335 648h-84q-16 -2 -18 -18v-212q2 -16 18 -18h84q114 0 114 124q0 64 -34 94t-80 30zM505 200q0 72 -34.5 110t-79.5 38h-138q-18 0 -20 -18v-258q0 -8 6 -14t14 -6h138q45 0 79.5 38t34.5 110zM335 700q37 0 71.5 -6.5t73 -23.5t61.5 -54.5t23 -91.5q0 -103 -89 -138 q62 -20 103.5 -65.5t41.5 -120.5q0 -44 -16 -79.5t-41 -57.5t-56.5 -36.5t-60 -20.5t-55.5 -6h-325q-6 0 -6 6q0 33 8 35l20 4q30 5 30 18v574q0 13 -30 18l-20 4q-8 2 -8 35q0 6 6 6h269z"/>
<glyph unicode="C" glyph-name="C" horiz-adv-x="632" d="M356 -10q-58 0 -110.5 20t-97.5 60.5t-71.5 112.5t-26.5 167t26.5 167t71.5 112.5t97.5 60.5t110.5 20q49 0 97.5 -17t54.5 -17q14 0 19 23q3 11 41 11q9 0 9 -8v-202q0 -8 -9 -8q-41 0 -41 11q0 69 -47.5 113t-123.5 44t-128.5 -75t-52.5 -235q0 -158 56 -228t135 -70 q71 0 121 41.5t65 108.5q2 6 14 6q9 0 22 -3.5t13 -9.5q0 -29 -14.5 -62.5t-42.5 -66.5t-77.5 -54.5t-110.5 -21.5z"/>
<glyph unicode="D" glyph-name="D" horiz-adv-x="699" d="M346 648h-95q-16 -2 -18 -18v-560q2 -16 18 -18h95q77 0 127.5 69t50.5 229t-50.5 229t-127.5 69zM346 700q46 0 88 -11t81.5 -36.5t69 -65t47 -100.5t17.5 -137t-17.5 -137t-47 -100.5t-69 -65t-81.5 -36.5t-88 -11h-280q-6 0 -6 6q0 33 8 35l20 4q30 5 30 20v572 q0 13 -30 18l-20 4q-8 2 -8 35q0 6 6 6h280z"/>
<glyph unicode="E" glyph-name="E" horiz-adv-x="622" d="M582 22q0 -22 -22 -22h-494q-6 0 -6 6q0 33 8 35l20 4q30 5 30 20v572q0 13 -30 18l-20 4q-8 2 -8 35q0 6 6 6h474q22 0 22 -22v-177q0 -8 -8 -8q-41 0 -41 11l-5 68q0 3 -1 8t-6 17.5t-12.5 22.5t-23.5 18.5t-36 9.5h-176q-18 0 -20 -18v-227q2 -16 18 -18h156 q13 0 18 30l4 20q2 8 35 8q6 0 6 -6v-156q0 -6 -6 -6q-33 0 -35 8l-4 20q-5 30 -18 30h-154q-18 0 -20 -18v-245q2 -16 18 -18h192q22 0 39 8t25.5 19t13.5 22t6 19l1 8l5 68q0 11 41 11q8 0 8 -8v-177z"/>
<glyph unicode="F" glyph-name="F" horiz-adv-x="602" d="M233 628v-228q0 -8 6 -14t14 -6h154q13 0 18 30l4 20q2 8 35 8q6 0 6 -6v-156q0 -6 -6 -6q-33 0 -35 8l-4 20q-5 30 -18 30h-154q-18 0 -20 -18v-245q0 -4 4 -7.5t11 -5.5t13 -3.5t13.5 -2.5t8.5 -1l30 -4q8 -2 8 -35q0 -6 -6 -6h-249q-6 0 -6 6q0 33 8 35l20 4 q30 5 30 20v572q0 13 -30 18l-20 4q-8 2 -8 35q0 6 6 6h474q22 0 22 -22v-177q0 -8 -8 -8q-41 0 -41 11l-5 68q0 3 -1 8t-6.5 18.5t-13.5 23.5t-25 18t-39 8h-172q-18 -2 -18 -20z"/>
<glyph unicode="G" glyph-name="G" horiz-adv-x="678" d="M356 40q41 0 69 13.5t50 51.5v160q0 12 -40 20l-20 4q-8 2 -8 35q0 6 6 6h229q6 0 6 -6q0 -33 -8 -35l-20 -4q-30 -5 -30 -18v-166q-42 -62 -99 -86.5t-135 -24.5q-58 0 -110.5 20t-97.5 60.5t-71.5 112.5t-26.5 167t26.5 167t71.5 112.5t97.5 60.5t110.5 20 q49 0 97.5 -17t54.5 -17q14 0 19 23q3 11 41 11q9 0 9 -8v-202q0 -8 -9 -8q-41 0 -41 11q0 69 -47.5 113t-123.5 44t-128.5 -75t-52.5 -235t52.5 -235t128.5 -75z"/>
<glyph unicode="H" glyph-name="H" horiz-adv-x="766" d="M648 635v-572q0 -13 30 -18l20 -4q8 -2 8 -35q0 -6 -6 -6h-219q-6 0 -6 6q0 33 8 35l20 4q30 5 30 20v285h-300v-285q0 -15 30 -20l20 -4q8 -2 8 -35q0 -6 -6 -6h-219q-6 0 -6 6q0 33 8 35l20 4q30 5 30 18v574q0 13 -30 18l-20 4q-8 2 -8 35q0 6 6 6h219q6 0 6 -6 q0 -33 -8 -35l-20 -4q-30 -5 -30 -18v-235h300v235q0 13 -30 18l-20 4q-8 2 -8 35q0 6 6 6h219q6 0 6 -6q0 -33 -8 -35l-20 -4q-30 -5 -30 -20z"/>
<glyph unicode="I" glyph-name="I" horiz-adv-x="351" d="M233 635v-572q0 -13 30 -18l20 -4q8 -2 8 -35q0 -6 -6 -6h-219q-6 0 -6 6q0 33 8 35l20 4q30 5 30 18v572q0 15 -30 20l-20 4q-8 2 -8 35q0 6 6 6h219q6 0 6 -6q0 -33 -8 -35l-20 -4q-30 -5 -30 -20z"/>
<glyph unicode="J" glyph-name="J" horiz-adv-x="462" d="M160 44q56 0 72.5 62.5t16.5 243.5v287q0 13 -30 18l-20 4q-8 2 -8 35q0 6 6 6h219q6 0 6 -6q0 -33 -8 -35l-20 -4q-30 -5 -30 -20v-285q0 -197 -47 -278.5t-157 -81.5q-71 0 -110.5 29.5t-39.5 79.5q0 69 57 69q29 0 42 -19.5t13 -42.5t8.5 -42.5t29.5 -19.5z"/>
<glyph unicode="K" glyph-name="K" horiz-adv-x="694" d="M118 65v572q0 13 -30 18l-20 4q-8 2 -8 35q0 6 6 6h219q6 0 6 -6q0 -33 -8 -35l-20 -4q-30 -5 -30 -18v-297l231 296q6 8 3.5 15t-9.5 9l-20 4q-8 2 -8 30q0 6 6 6h196q6 0 6 -6q0 -28 -8 -30l-46 -8q-41 -7 -65 -31l-140 -178l221 -372q16 -26 40 -31l46 -8q8 -2 8 -30 q0 -6 -6 -6h-120q-14 0 -22 0.5t-20 4t-22 12t-17 22.5l-176 322l-66 -85q-10 -13 -12 -42v-169q0 -15 30 -20l20 -4q8 -2 8 -35q0 -6 -6 -6h-219q-6 0 -6 6q0 33 8 35l20 4q30 5 30 20z"/>
<glyph unicode="L" glyph-name="L" horiz-adv-x="602" d="M582 22q0 -22 -22 -22h-494q-6 0 -6 6q0 33 8 35l20 4q30 5 30 20v572q0 13 -30 18l-20 4q-8 2 -8 35q0 6 6 6h219q6 0 6 -6q0 -33 -8 -35l-20 -4q-30 -5 -30 -18v-567q2 -18 20 -18h196q32 0 52 19t23 38l4 19l5 68q0 11 41 11q8 0 8 -8v-177z"/>
<glyph unicode="M" glyph-name="M" horiz-adv-x="940" d="M411 35l-218 540v-510q0 -15 30 -20l50 -4q8 -2 8 -35q0 -6 -6 -6h-219q-6 0 -6 6q0 33 8 35l50 4q30 5 30 20v572q0 13 -30 18l-20 4q-8 2 -8 35q0 6 6 6h108q33 0 50 -6.5t31 -32.5l187 -466q6 -14 12 -14t11 11l198 469q5 14 13.5 22.5t21.5 12t21.5 4t23.5 0.5h111 q6 0 6 -6q0 -33 -8 -35l-20 -4q-30 -5 -30 -20v-572q0 -13 30 -18l20 -4q8 -2 8 -35q0 -6 -6 -6h-219q-6 0 -6 6q0 33 8 35l20 4q30 5 30 18v512l-212 -501q-12 -28 -21 -35t-31 -7h-24q-7 0 -8 3z"/>
<glyph unicode="N" glyph-name="N" horiz-adv-x="799" d="M185 700q32 0 48.5 -6.5t32.5 -32.5l350 -584v560q0 13 -30 18l-50 4q-8 2 -8 35q0 6 6 6h219q6 0 6 -6q0 -33 -8 -35l-50 -4q-30 -5 -30 -18v-617q0 -8 -6 -14t-14 -6h-48q-23 0 -36 1.5t-28.5 10.5t-26.5 27l-319 527v-503q0 -13 30 -18l50 -4q8 -2 8 -35q0 -6 -6 -6 h-219q-6 0 -6 6q0 33 8 35l50 4q30 5 30 20v572q0 13 -30 18l-20 4q-8 2 -8 35q0 6 6 6h99z"/>
<glyph unicode="O" glyph-name="O" d="M356 656q-77 0 -129 -73t-52 -233t52 -233t129 -73q76 0 127 73t51 233t-51 233t-127 73zM356 -10q-58 0 -110.5 20t-97.5 60.5t-71.5 112.5t-26.5 167t26.5 167t71.5 112.5t97.5 60.5t110.5 20t109.5 -20t96 -60.5t71 -112.5t26.5 -167t-26.5 -167t-71 -112.5t-96 -60.5 t-109.5 -20z"/>
<glyph unicode="P" glyph-name="P" horiz-adv-x="604" d="M360 350q45 0 79.5 38.5t34.5 110.5t-34.5 110.5t-79.5 38.5h-109q-16 -2 -18 -18v-262q2 -18 20 -18h107zM360 298h-109q-16 -2 -18 -18v-215q0 -15 30 -20l20 -4q8 -2 8 -35q0 -6 -6 -6h-219q-6 0 -6 6q0 33 8 35l20 4q30 5 30 20v572q0 13 -30 18l-20 4q-8 2 -8 35 q0 6 6 6h294q34 0 71 -10.5t74 -32t60.5 -63t23.5 -95.5t-23.5 -95.5t-60.5 -63t-74 -32t-71 -10.5z"/>
<glyph unicode="Q" glyph-name="Q" d="M356 656q-77 0 -129 -73t-52 -233t52 -233t129 -73q76 0 127 73t51 233t-51 233t-127 73zM600 -167v-33q-75 0 -138.5 18.5t-111.5 64t-56 113.5q-106 19 -175 106.5t-69 247.5q0 95 26.5 167t71.5 112.5t97.5 60.5t110.5 20t109.5 -20t96 -60.5t71 -112.5t26.5 -167 q0 -158 -68 -245.5t-172 -108.5q8 -85 59 -124t122 -39z"/>
<glyph unicode="R" glyph-name="R" horiz-adv-x="704" d="M360 370q46 0 80 34t34 105t-34 105t-80 34h-107q-18 0 -20 -18v-240q0 -18 18 -20h109zM315 318h-62q-18 0 -20 -18v-235q0 -15 30 -20l20 -4q8 -2 8 -35q0 -6 -6 -6h-219q-6 0 -6 6q0 33 8 35l20 4q30 5 30 18v574q0 13 -30 18l-20 4q-8 2 -8 35q0 6 6 6h294 q35 0 71 -9t73.5 -28.5t61 -59.5t23.5 -94q0 -131 -132 -176l156 -262q14 -24 37 -27l46 -8q8 -2 8 -30q0 -6 -6 -6h-120q-14 0 -22 0.5t-20 4t-22 12t-17 22.5l-139 255l-2 3q-14 21 -41 21z"/>
<glyph unicode="S" glyph-name="S" horiz-adv-x="612" d="M64 512q0 84 67 141t166 57q49 0 99 -17t56 -17q14 0 19 23q3 11 41 11q9 0 9 -8v-202q0 -8 -9 -8q-41 0 -41 11q0 66 -56 109.5t-125 43.5q-51 0 -91 -29t-40 -74q0 -19 7 -36t22 -30.5t29 -23.5t37.5 -19.5t37.5 -15t39.5 -13.5t33.5 -11q30 -11 40.5 -15t38 -15.5 t38.5 -20t30.5 -25t27.5 -33t15 -40t7 -51.5q0 -95 -74 -154.5t-182 -59.5q-46 0 -85.5 12t-63 24.5t-32.5 12.5q-8 0 -18 -24q-2 -11 -42 -11q-8 0 -8 8l-7 223q0 9 8 9q42 0 42 -11q0 -86 60.5 -137.5t158.5 -51.5q57 0 102 29t45 87q0 90 -168 141q-33 10 -44.5 13.5 t-43.5 15.5t-46 20.5t-37.5 26t-34 35.5t-19.5 44t-9 56z"/>
<glyph unicode="T" glyph-name="T" horiz-adv-x="642" d="M600 700q22 0 22 -22v-147q0 -8 -8 -8q-41 0 -41 11l-5 38q0 3 -1 8t-6.5 18.5t-13.5 23.5t-25 18t-39 8h-85q-18 0 -20 -18v-565q0 -15 30 -20l20 -4q8 -2 8 -35q0 -6 -6 -6h-220q-6 0 -6 6q0 33 8 35l20 4q30 5 30 18v567q-2 18 -20 18h-89q-33 -2 -52.5 -21t-22.5 -37 l-4 -18l-5 -38q0 -11 -41 -11q-8 0 -8 8v147q0 22 22 22h558z"/>
<glyph unicode="U" glyph-name="U" horiz-adv-x="716" d="M563 317v318q0 15 -30 20l-50 4q-8 2 -8 35q0 6 6 6h219q6 0 6 -6q0 -33 -8 -35l-50 -4q-30 -5 -30 -18v-320q0 -163 -57.5 -245t-190.5 -82q-48 0 -80 4.5t-69.5 23.5t-60 53t-37.5 96t-15 150v320q0 13 -30 18l-20 4q-8 2 -8 35q0 6 6 6h219q6 0 6 -6q0 -33 -8 -35 l-20 -4q-30 -5 -30 -20v-318q0 -90 8.5 -144t31 -82t51.5 -37t79 -9q40 0 70.5 14.5t49.5 39t30.5 60.5t15.5 73.5t4 84.5z"/>
<glyph unicode="V" glyph-name="V" horiz-adv-x="639" d="M578 633l-204 -594q-5 -14 -13 -22.5t-21 -12t-22 -4t-24 -0.5q-4 0 -5 3l-227 628q-8 18 -34 24l-35 4q-8 2 -8 35q0 6 6 6h228q6 0 6 -6q0 -33 -8 -35l-30 -4q-13 -3 -6 -23l164 -465q4 -13 13 -13q8 0 12 12l155 465q6 21 -6 24l-30 4q-8 2 -8 35q0 6 6 6h156 q6 0 6 -6q0 -33 -8 -35l-30 -4q-26 -5 -33 -22z"/>
<glyph unicode="W" glyph-name="W" horiz-adv-x="942" d="M178 635l122 -454q5 -14 14 -14q10 0 14 14l140 509h33q18 0 24 -5t13 -30l150 -477q4 -13 14 -13q8 0 12 11l116 456q3 20 -8 23l-30 4q-8 2 -8 35q0 6 6 6h156q6 0 6 -6q0 -33 -8 -35l-30 -4q-26 -5 -33 -24l-162 -592q-5 -14 -13.5 -22.5t-23 -12t-24.5 -4t-30 -0.5 q-4 0 -5 3l-146 451h-7q-125 -405 -126 -415q-3 -14 -12.5 -22.5t-26.5 -12t-28.5 -4t-32.5 -0.5q-4 0 -5 3l-180 631q-4 12 -10 15t-21 6l-35 4q-8 2 -8 35q0 6 6 6h228q6 0 6 -6q0 -33 -8 -35l-30 -4q-14 -3 -9 -20z"/>
<glyph unicode="X" glyph-name="X" horiz-adv-x="643" d="M85 87l182 255l-152 271q-17 22 -65 31l-28 5q-11 3 -11 42q0 9 8 9h264q9 0 9 -9q0 -39 -11 -42l-28 -5q-14 -3 -14 -16q0 -8 4 -15l81 -144q8 -15 12 -18.5t10 -3.5q8 0 15 10l105 156q5 6 5 15q0 13 -14 16l-28 6q-12 2 -12 42q0 8 9 8h189q8 0 8 -8q0 -40 -11 -42 l-28 -6q-17 -3 -25 -8.5t-21 -22.5l-165 -231l166 -295q17 -22 65 -31l28 -6q11 -2 11 -42q0 -8 -8 -8h-265q-8 0 -8 8q0 40 11 42l28 6q14 3 14 17q0 7 -4 14l-96 171q-8 15 -12 18.5t-9 3.5q-7 0 -22 -22l-115 -171q-5 -6 -5 -15q0 -13 14 -16l28 -6q12 -2 12 -42 q0 -8 -9 -8h-189q-8 0 -8 8q0 40 11 42l28 6q16 3 24 8t22 23z"/>
<glyph unicode="Y" glyph-name="Y" horiz-adv-x="612" d="M527 613l-132 -273q-13 -36 -13 -113v-162q0 -15 30 -20l20 -4q8 -2 8 -35q0 -6 -6 -6h-219q-6 0 -6 6q0 33 8 35l20 4q30 5 30 20v206q0 8 -6 23l-157 319q-12 21 -65 31l-28 5q-11 3 -11 42q0 9 8 9h264q9 0 9 -9q0 -39 -11 -42l-28 -5q-14 -3 -14 -16q0 -5 4 -15 l100 -206q10 -18 18 -18q6 0 12 12l102 212q4 10 4 15q0 13 -13 16l-28 6q-12 2 -12 42q0 8 9 8h193q8 0 8 -8q0 -40 -11 -42l-28 -5q-15 -3 -22.5 -5t-19 -9t-17.5 -18z"/>
<glyph unicode="Z" glyph-name="Z" horiz-adv-x="647" d="M597 22q0 -22 -22 -22h-510q-12 0 -14 5t4 15q321 537 376 628h-235q-33 -2 -52.5 -21t-23.5 -37l-3 -18l-5 -68q0 -11 -41 -11q-8 0 -8 8v177q0 22 22 22h480q12 0 14 -5t-4 -15q-322 -537 -376 -628h265q32 0 52 19t24 38l3 19l5 68q0 11 41 11q8 0 8 -8v-177z"/>
<glyph unicode="[" glyph-name="bracketleft" horiz-adv-x="321" d="M311 -102v-46h-271v929h271v-45h-181v-838h181z"/>
<glyph unicode="\" glyph-name="backslash" horiz-adv-x="381" d="M381 -180h-39q-28 0 -38 23l-304 937h39q28 0 38 -23z"/>
<glyph unicode="]" glyph-name="bracketright" horiz-adv-x="311" d="M0 -148v46h181v838h-181v45h271v-929h-271z"/>
<glyph unicode="^" glyph-name="asciicircum" horiz-adv-x="455" d="M200 731h55l190 -336h-68l-150 267l-149 -267h-68z"/>
<glyph unicode="_" glyph-name="underscore" horiz-adv-x="633" d="M10 -126v52h603v-52h-603z"/>
<glyph unicode="`" glyph-name="grave" horiz-adv-x="261" d="M51 701q-11 14 -11 28q0 20 14 34.5t34 14.5q22 0 34 -15q21 -25 60 -94t39 -77q0 -5 -7 -5q-16 0 -43 19q-89 61 -120 95z"/>
<glyph unicode="a" glyph-name="a" horiz-adv-x="533" d="M233 41q44 0 77 39.5t33 92.5q0 3 -3 95q-30 -2 -51.5 -5t-48.5 -11.5t-44 -22.5t-29 -38t-12 -57q0 -93 78 -93zM437 376l10 -284q1 -42 55 -42q6 0 6 -6q0 -27 -8 -30q-70 -24 -109 -24q-31 0 -33 26q-2 27 -3 51h-8q-59 -77 -147 -77q-68 0 -109 39.5t-41 104.5 q0 161 289 166l-2 77q0 46 -21 72t-56 26q-28 0 -47.5 -17t-19.5 -42q0 -2 0.5 -8t0.5 -10q0 -57 -51 -57q-19 0 -33 15.5t-14 40.5q0 52 48 82.5t118 30.5q75 0 125 -36.5t50 -97.5z"/>
<glyph unicode="b" glyph-name="b" horiz-adv-x="573" d="M313 26q58 0 86.5 51t28.5 183q0 199 -121 199q-38 0 -72.5 -31t-36.5 -71v-242q33 -89 115 -89zM348 510q72 0 128.5 -63t56.5 -187q0 -270 -220 -270q-93 0 -164 71q-3 3 -5 3q-3 0 -5 -5.5t-3.5 -13.5t-2.5 -15.5t-2 -14t-1 -7.5q-2 -8 -26 -8q-6 0 -6 6v687 q0 42 -52 42q-6 0 -6 6q0 28 8 30q74 19 119 19q31 0 31 -20v-333q24 31 64 52t86 21z"/>
<glyph unicode="c" glyph-name="c" horiz-adv-x="463" d="M391 136q1 4 10 4q22 0 22 -14q0 -46 -45 -91t-118 -45q-43 0 -79 12t-69.5 39.5t-52.5 81t-19 127.5q0 71 18 123.5t50 81t69.5 42t82.5 13.5q69 0 112 -30t43 -83q0 -25 -14 -40.5t-33 -15.5q-51 0 -51 57q0 4 0.5 10t0.5 8q0 26 -15 42t-43 16q-57 0 -86 -52.5 t-29 -171.5q0 -66 11 -109.5t31.5 -63.5t39.5 -27t45 -7q51 0 80 28t39 65z"/>
<glyph unicode="d" glyph-name="d" horiz-adv-x="583" d="M266 457q-121 0 -121 -197q0 -104 24.5 -161.5t88.5 -57.5q36 0 75.5 31t41.5 59v226q-2 40 -36.5 70t-72.5 30zM225 -10q-52 0 -89.5 24t-57.5 65t-29 85.5t-9 95.5q0 113 55.5 181.5t135.5 68.5q95 0 144 -62v240q0 42 -52 42q-6 0 -6 6q0 27 8 30q70 24 119 24 q31 0 31 -20v-683q3 -37 52 -37q6 0 6 -6q0 -27 -8 -30q-70 -24 -119 -24q-31 0 -31 20v57q-69 -77 -150 -77z"/>
<glyph unicode="e" glyph-name="e" horiz-adv-x="494" d="M260 474q-107 0 -115 -188h201q7 0 7 10q-4 95 -27 136.5t-66 41.5zM260 510q90 0 142 -63t52 -177q0 -8 -6 -14t-14 -6h-280q-9 0 -9 -8q1 -63 13.5 -105t34 -61t42 -25.5t45.5 -6.5q43 0 83.5 24.5t48.5 51.5q1 4 10 4q22 0 22 -14q0 -39 -58 -79.5t-126 -40.5 q-43 0 -79 12t-69.5 39.5t-52.5 81t-19 127.5q0 71 18 123.5t50 81t69.5 42t82.5 13.5z"/>
<glyph unicode="f" glyph-name="f" horiz-adv-x="342" d="M270 755q-31 0 -46.5 -43.5t-15.5 -95.5v-116h104q6 0 6 -6q0 -40 -8 -40h-102v-394q0 -7 6 -13t14 -7l50 -4q8 0 8 -30q0 -6 -6 -6h-224q-6 0 -6 6q0 28 8 30l20 4q30 5 30 20v394h-50q-8 0 -8 40q0 6 6 6h52v95q0 83 49 139t131 56q46 0 75 -18.5t29 -48.5 q0 -24 -16 -38.5t-40 -14.5q-21 0 -30.5 13.5t-10 29t-6 29t-19.5 13.5z"/>
<glyph unicode="g" glyph-name="g" horiz-adv-x="490" d="M242 199q89 0 89 136t-89 136q-88 0 -88 -136t88 -136zM451 465q-19 0 -30 14q-18 18 -38 18q-23 0 -35 -15q81 -47 81 -147q0 -48 -18 -83.5t-47 -54.5t-60 -28t-62 -9h-94q-15 0 -24.5 -9t-9.5 -21q0 -30 44 -32l147 -10q65 -5 111 -42.5t46 -99.5q0 -41 -19 -70.5 t-51.5 -45.5t-69.5 -23t-80 -7q-84 0 -143 34t-59 100q0 22 13.5 39.5t35.5 17.5q21 0 35 -14t14 -34q0 -6 -3 -18t-3 -20q0 -28 31 -46.5t95 -18.5q52 0 87.5 22t35.5 56q0 71 -95 77l-137 10q-40 2 -68.5 23.5t-28.5 58.5q0 36 25.5 61.5t61.5 25.5q7 0 7 4t-3 5 q-89 44 -89 152q0 89 59 132t129 43q43 0 82 -16q16 24 47 39t59 16q14 0 33 -7q27 -9 27 -37q0 -17 -11.5 -28.5t-27.5 -11.5z"/>
<glyph unicode="h" glyph-name="h" horiz-adv-x="606" d="M408 60v318q0 39 -22.5 60t-60.5 21q-30 0 -66 -20.5t-51 -45.5v-335q0 -13 30 -18l20 -4q8 -2 8 -30q0 -6 -6 -6h-204q-6 0 -6 6q0 28 8 30l20 4q30 5 30 18v635q0 42 -52 42q-6 0 -6 6q0 28 8 30q74 19 119 19q31 0 31 -20v-333q65 73 150 73q72 0 111 -36.5t39 -95.5 v-320q0 -13 30 -18l20 -4q8 -2 8 -30q0 -6 -6 -6h-204q-6 0 -6 6q0 28 8 30l20 4q30 5 30 20z"/>
<glyph unicode="i" glyph-name="i" horiz-adv-x="306" d="M97 671q0 25 17.5 43t43.5 18t43.5 -18t17.5 -43t-17.5 -43t-43.5 -18t-43.5 18t-17.5 43zM208 490v-430q0 -15 30 -20l20 -4q8 -2 8 -30q0 -6 -6 -6h-204q-6 0 -6 6q0 28 8 30l20 4q30 5 30 20v348q0 42 -52 42q-6 0 -6 6q0 27 8 30q70 24 119 24q31 0 31 -20z"/>
<glyph unicode="j" glyph-name="j" horiz-adv-x="297" d="M95 671q0 25 17.5 43t43.5 18t43.5 -18t17.5 -43t-17.5 -43t-43.5 -18t-43.5 18t-17.5 43zM60 -165q16 0 26.5 12.5t14 37.5t4.5 42t1 47v434q0 42 -52 42q-6 0 -6 6q0 27 8 30q70 24 119 24q31 0 31 -20v-495q0 -86 -42 -140.5t-122 -54.5q-46 0 -74 17.5t-28 47.5 q0 24 15 36.5t39 12.5q20 0 29.5 -12.5t10.5 -27t7 -27t19 -12.5z"/>
<glyph unicode="k" glyph-name="k" horiz-adv-x="610" d="M509 77q20 -28 47 -33l46 -8q8 -2 8 -30q0 -6 -6 -6h-120q-17 0 -26.5 1.5t-24.5 10.5t-30 27l-140 210l-46 -48l-2 -3q-7 -9 -7 -50v-88q0 -15 30 -20l20 -4q8 -2 8 -30q0 -6 -6 -6h-204q-6 0 -6 6q0 28 8 30l20 4q30 5 30 20v633q0 42 -52 42q-6 0 -6 6q0 28 8 30 q74 19 119 19q31 0 31 -20v-513l175 181q3 4 3 10q0 10 -10 12l-20 4q-8 2 -8 30q0 6 6 6h194q6 0 6 -6q0 -28 -8 -30l-46 -8q-42 -7 -67 -33l-97 -100z"/>
<glyph unicode="l" glyph-name="l" horiz-adv-x="306" d="M208 770v-710q0 -16 20 -20l20 -4q8 -2 8 -30q0 -6 -6 -6h-184q-6 0 -6 6q0 28 8 30l20 4q18 4 20 18v635q0 42 -52 42q-6 0 -6 6q0 28 8 30q74 19 119 19q31 0 31 -20z"/>
<glyph unicode="m" glyph-name="m" horiz-adv-x="906" d="M198 490v-62q74 82 160 82q105 0 138 -75q2 -2 5 -2t7 4q65 73 150 73q72 0 111 -36.5t39 -95.5v-320q0 -13 30 -18l20 -4q8 -2 8 -30q0 -6 -6 -6h-204q-6 0 -6 6q0 28 8 30l20 4q30 5 30 18v320q0 39 -22.5 60t-60.5 21q-30 0 -66 -20.5t-51 -45.5v-333q0 -15 30 -20 l20 -4q8 -2 8 -30q0 -6 -6 -6h-204q-6 0 -6 6q0 28 8 30l20 4q30 5 30 18v320q0 39 -22.5 60t-60.5 21q-30 0 -66 -20.5t-51 -45.5v-333q0 -15 30 -20l20 -4q8 -2 8 -30q0 -6 -6 -6h-204q-6 0 -6 6q0 28 8 30l20 4q30 5 30 20v357q-3 38 -52 38q-6 0 -6 6q0 28 8 30 q74 19 109 19q31 0 31 -20z"/>
<glyph unicode="n" glyph-name="n" horiz-adv-x="606" d="M198 490v-62q74 82 160 82q72 0 111 -36.5t39 -95.5v-320q0 -13 30 -18l20 -4q8 -2 8 -30q0 -6 -6 -6h-204q-6 0 -6 6q0 28 8 30l20 4q30 5 30 18v320q0 39 -22.5 60t-60.5 21q-30 0 -66 -20.5t-51 -45.5v-333q0 -15 30 -20l20 -4q8 -2 8 -30q0 -6 -6 -6h-204q-6 0 -6 6 q0 28 8 30l20 4q30 5 30 20v357q-3 38 -52 38q-6 0 -6 6q0 28 8 30q74 19 109 19q31 0 31 -20z"/>
<glyph unicode="o" glyph-name="o" horiz-adv-x="520" d="M260 474q-57 0 -86 -52.5t-29 -171.5t29 -171.5t86 -52.5t86 52.5t29 171.5t-29 171.5t-86 52.5zM260 -10q-45 0 -82.5 13.5t-69.5 42t-50 81t-18 123.5t18 123.5t50 81t69.5 42t82.5 13.5t82.5 -13.5t69.5 -42t50 -81t18 -123.5t-18 -123.5t-50 -81t-69.5 -42 t-82.5 -13.5z"/>
<glyph unicode="p" glyph-name="p" horiz-adv-x="583" d="M317 41q121 0 121 199q0 104 -24.5 161.5t-88.5 57.5q-37 0 -76 -29t-41 -57v-231q2 -40 36.5 -70.5t72.5 -30.5zM358 510q52 0 89.5 -24t57.5 -65t29 -85.5t9 -95.5q0 -124 -56.5 -187t-128.5 -63q-46 0 -86 21t-64 52v-203q0 -15 30 -20l20 -4q8 -2 8 -30q0 -6 -6 -6 h-204q-6 0 -6 6q0 28 8 30l20 4q30 5 30 18v559q0 38 -52 38q-6 0 -6 6q0 28 8 30q74 19 119 19q31 0 31 -20v-53q65 73 150 73z"/>
<glyph unicode="q" glyph-name="q" horiz-adv-x="523" d="M266 474q-59 0 -90 -52t-31 -182q0 -199 121 -199q37 0 72 30.5t37 70.5v247q-33 85 -109 85zM266 510q104 0 158 -69q5 -5 8 -5q4 1 6 13.5t4 27.5l1 15q2 8 26 8q6 0 6 -6v-634q0 -15 30 -20l20 -4q8 -2 8 -30q0 -6 -6 -6h-204q-6 0 -6 6q0 28 8 30l20 4q30 5 30 18 v205q-24 -31 -64 -52t-86 -21q-72 0 -128.5 63t-56.5 187q0 270 226 270z"/>
<glyph unicode="r" glyph-name="r" horiz-adv-x="421" d="M293 437q-26 0 -44 -16t-26.5 -42t-11.5 -48.5t-3 -46.5v-224q0 -7 6 -13t14 -7l50 -4q8 0 8 -30q0 -6 -6 -6h-224q-6 0 -6 6q0 28 8 30l20 4q30 5 30 20v353q0 42 -52 42q-6 0 -6 6q0 28 8 30q74 19 109 19q31 0 31 -20v-79q68 99 143 99q34 0 52 -15.5t18 -43.5 q0 -19 -15.5 -33.5t-36.5 -14.5q-15 0 -34 17t-32 17z"/>
<glyph unicode="s" glyph-name="s" horiz-adv-x="447" d="M43 367q0 60 51.5 101.5t123.5 41.5q36 0 72.5 -12.5t40.5 -12.5q9 0 13 17q2 8 30 8q6 0 6 -6v-146q0 -6 -6 -6q-30 0 -30 8q0 47 -40 75.5t-91 28.5q-38 0 -66 -18t-28 -49q0 -12 4.5 -22.5t14.5 -18.5t19.5 -14.5t25.5 -13t25 -10t26 -8.5t22 -7q31 -10 44.5 -15 t40.5 -19.5t40 -28.5t24.5 -39t11.5 -56q0 -69 -56.5 -112t-135.5 -43q-46 0 -87.5 17.5t-43.5 17.5q-9 0 -13 -17q-2 -8 -30 -8q-6 0 -6 6l-5 161q0 6 6 6q30 0 30 -8q0 -61 43.5 -95t114.5 -34q43 0 74.5 18t31.5 59q0 13 -3 23.5t-11.5 19t-14.5 14t-21 11.5t-21.5 8.5 t-25.5 8t-24 7.5q-27 8 -38.5 12t-37.5 14.5t-39.5 21.5t-30 27.5t-23.5 38.5t-7 48z"/>
<glyph unicode="t" glyph-name="t" horiz-adv-x="340" d="M103 500v92q0 11 27.5 28t44.5 17q28 0 28 -20v-117h116q6 0 6 -6q0 -40 -8 -40h-114v-363q0 -34 35 -34q12 0 27.5 3.5t31 8t18.5 5.5q6 1 7 -4q3 -12 3 -19q0 -9 -5 -12q-24 -14 -68.5 -26.5t-70.5 -12.5q-32 0 -55 19t-23 48v387h-72q-8 0 -8 40q0 6 6 6h74z"/>
<glyph unicode="u" glyph-name="u" horiz-adv-x="586" d="M198 480v-358q0 -39 22.5 -60t60.5 -21q30 0 65.5 20t51.5 45v301q0 38 -52 38q-6 0 -6 6q0 28 8 30q74 19 119 19q31 0 31 -20v-388q0 -42 52 -42q6 0 6 -6q0 -27 -8 -30q-70 -24 -109 -24q-31 0 -31 20v62q-76 -82 -160 -82q-72 0 -111 36.5t-39 95.5v285q0 38 -52 38 q-6 0 -6 6q0 28 8 30q74 19 119 19q31 0 31 -20z"/>
<glyph unicode="v" glyph-name="v" horiz-adv-x="504" d="M61 438q-7 17 -33 22l-20 4q-8 2 -8 30q0 6 6 6h201q6 0 6 -6q0 -28 -8 -30l-20 -4q-9 -2 -13.5 -7t-1.5 -12l116 -286q4 -10 10 -10t10 10l94 283q0 1 0.5 2.5t0.5 2.5q0 12 -18 17l-20 4q-8 2 -8 30q0 6 6 6h143q6 0 6 -6q0 -28 -8 -30l-20 -4q-25 -5 -33 -22 l-141 -399q-5 -14 -11.5 -22.5t-16 -12t-17 -4t-21.5 -0.5q-4 0 -5 3z"/>
<glyph unicode="w" glyph-name="w" horiz-adv-x="764" d="M169 442l97 -288q4 -9 9 -9q6 0 9 10l106 329q2 6 7 6h14q20 0 26 -17l111 -319q4 -9 10 -9q5 0 9 10l95 286q4 16 -8 19l-20 4q-8 2 -8 30q0 6 6 6h132q6 0 6 -6q0 -28 -8 -30l-20 -4q-26 -5 -33 -22l-141 -399q-5 -14 -11 -22.5t-16 -12t-17 -4t-21 -0.5q-3 0 -5 3 l-99 294q-4 12 -12 12q-7 0 -11 -12l-87 -258q-6 -14 -12.5 -22.5t-16.5 -12t-17 -4t-21 -0.5q-4 0 -5 3l-156 435q-8 17 -33 22l-20 4q-8 2 -8 30q0 6 6 6h194q6 0 6 -6q0 -28 -8 -30l-20 -4q-12 -3 -9 -18z"/>
<glyph unicode="x" glyph-name="x" horiz-adv-x="513" d="M191 438l64 -97q12 -18 20 -18q7 0 18 14l77 101q6 8 3.5 14t-10.5 8l-20 4q-8 2 -8 30q0 6 6 6h144q6 0 6 -6q0 -28 -8 -30l-20 -4q-17 -3 -33 -22l-130 -166l139 -210q10 -15 46 -22l20 -4q8 -2 8 -30q0 -6 -6 -6h-207q-6 0 -6 6q0 28 8 30l20 4q8 2 10 8t-3 14 l-86 129q-7 10 -15 10t-19 -16l-88 -123q-5 -8 -3 -14t10 -8l20 -4q8 -2 8 -30q0 -6 -6 -6h-144q-6 0 -6 6q0 28 8 30l20 4q20 4 33 22l142 191l-122 185q-10 15 -46 22l-20 4q-8 2 -8 30q0 6 6 6h207q6 0 6 -6q0 -28 -8 -30l-20 -4q-8 -2 -10 -8t3 -14z"/>
<glyph unicode="y" glyph-name="y" horiz-adv-x="504" d="M170 439l96 -284q4 -10 10 -10q7 0 10 10l114 283q0 1 0.5 2.5t0.5 2.5q0 12 -18 17l-20 4q-8 2 -8 30q0 6 6 6h143q6 0 6 -6q0 -28 -8 -30l-20 -4q-25 -5 -33 -22l-221 -547q-16 -41 -43 -66t-78 -25q-36 0 -62.5 14.5t-26.5 39.5q0 51 48 51q15 0 25 -7t14 -15t10 -15 t14 -7q36 0 50 30l33 81l1 5q3 8 3 15t-5 25l-150 421q-8 17 -33 22l-20 4q-8 2 -8 30q0 6 6 6h201q6 0 6 -6q0 -28 -8 -30l-20 -4q-20 -3 -15 -21z"/>
<glyph unicode="z" glyph-name="z" horiz-adv-x="497" d="M441 500q6 0 6 -6q0 -39 -12 -59q-3 -5 -46 -72.5t-106.5 -166t-90.5 -140.5q-8 -20 12 -20h135q30 0 48 16t21 32l3 17l4 58q0 9 35 9q7 0 7 -7v-146q0 -15 -15 -15h-388q-4 0 -4 4q0 25 10 42l252 393l2 3q10 18 -8 22h-151q-24 -1 -38.5 -15t-16.5 -27l-3 -14l-4 -50 q0 -8 -30 -8q-6 0 -6 6v129q0 15 15 15h369z"/>
<glyph unicode="{" glyph-name="braceleft" horiz-adv-x="415" d="M40 305v40q0 13 13 13q37 0 78.5 20.5t53.5 51.5q9 22 9 56q0 17 -3 50t-3 47q0 77 15 115q23 55 74.5 73.5t132.5 18.5v-24q0 -14 -13 -15q-85 -6 -107 -59q-9 -24 -9 -58q0 -15 1.5 -47.5t1.5 -48.5q0 -63 -18 -108q-35 -85 -145 -105q110 -20 145 -105q18 -45 18 -108 q0 -16 -1.5 -48.5t-1.5 -47.5q0 -34 9 -58q22 -53 107 -59q13 -1 13 -15v-24q-81 0 -132.5 18.5t-74.5 73.5q-15 38 -15 115q0 14 3 47t3 50q0 34 -9 56q-12 31 -53.5 51.5t-78.5 20.5q-13 0 -13 13z"/>
<glyph unicode="|" glyph-name="bar" horiz-adv-x="145" d="M105 780v-960h-65v960h65z"/>
<glyph unicode="}" glyph-name="braceright" horiz-adv-x="415" d="M375 345v-40q0 -13 -13 -13q-37 0 -78.5 -20.5t-53.5 -51.5q-9 -22 -9 -56q0 -17 3 -50t3 -47q0 -77 -15 -115q-23 -55 -74.5 -73.5t-132.5 -18.5v24q0 14 13 15q85 6 107 59q9 24 9 58q0 15 -1.5 47.5t-1.5 48.5q0 63 18 108q35 86 145 105q-110 19 -145 105 q-18 45 -18 108q0 16 1.5 48.5t1.5 47.5q0 34 -9 58q-22 53 -107 59q-13 1 -13 15v24q81 0 132.5 -18.5t74.5 -73.5q15 -38 15 -115q0 -14 -3 -47t-3 -50q0 -34 9 -56q12 -31 53.5 -51.5t78.5 -20.5q13 0 13 -13z"/>
<glyph unicode="~" glyph-name="asciitilde" horiz-adv-x="489" d="M431 321l18 -7q-17 -43 -51.5 -73t-78.5 -30q-35 0 -81 20q-15 6 -35 18t-34.5 18t-30.5 6q-22 0 -41 -12t-28 -31q-4 -6 -11 -4l-18 7q17 43 51.5 73t78.5 30q35 0 81 -20q15 -6 35 -18t34.5 -18t30.5 -6q21 0 40.5 12t28.5 30q4 7 11 5z"/>
<glyph unicode="¡" glyph-name="exclamdown" horiz-adv-x="242" d="M60 469q0 25 18 43t43 18t43 -18t18 -43t-18 -43t-43 -18t-43 18t-18 43zM111 329h20q12 0 13 -9q6 -44 21.5 -235t16.5 -226q0 -27 -19 -45q-17 -14 -42 -14t-42 14q-19 18 -19 45q1 35 16.5 226t21.5 235q1 9 13 9z"/>
<glyph unicode="¢" glyph-name="cent" horiz-adv-x="463" d="M225 468q-80 -28 -80 -218q0 -170 80 -200v418zM391 136q1 4 10 4q22 0 22 -14q0 -43 -41.5 -87t-109.5 -48v-139h-47v140q-81 9 -133 69.5t-52 188.5q0 124 51.5 186t133.5 72v140h47v-138q64 -3 103.5 -33t39.5 -80q0 -25 -14 -40.5t-33 -15.5q-51 0 -51 57q0 4 0.5 10 t0.5 8q0 23 -12 38.5t-34 18.5v-430q51 0 80 28t39 65z"/>
<glyph unicode="£" glyph-name="sterling" horiz-adv-x="608" d="M367 700q79 0 127 -37t48 -89q0 -26 -13 -42.5t-36 -16.5q-26 0 -38.5 15t-15 36t-6.5 42.5t-19.5 36.5t-46.5 15q-66 0 -97.5 -56t-31.5 -177q0 -25 4 -91h165q6 0 6 -6q0 -40 -8 -40h-162q-5 -67 -32.5 -125.5t-75.5 -70.5v-8h413v-86h-488v74q24 6 41 29t26 56t13 65 t4 66h-60q-8 0 -8 40q0 6 6 6h60q-2 42 -2 60q0 158 56.5 231t170.5 73z"/>
<glyph unicode="¤" glyph-name="currency" horiz-adv-x="540" d="M169 271q0 -42 29.5 -71.5t71.5 -29.5t71.5 29.5t29.5 71.5t-29.5 71.5t-71.5 29.5t-71.5 -29.5t-29.5 -71.5zM123 271q0 49 28 86l-107 107q-4 5 23 34q5 4 9 0l108 -108q40 28 86 28t86 -28l108 108q4 4 9 0q27 -29 23 -34l-107 -107q28 -40 28 -86t-28 -86l108 -108 q5 -5 0 -9q-26 -24 -32 -24q-1 0 -2 1l-107 107q-37 -28 -86 -28t-86 28l-107 -107h-2q-7 0 -32 23q-5 4 0 9l108 108q-28 37 -28 86z"/>
<glyph unicode="¥" glyph-name="yen" horiz-adv-x="612" d="M489 275h-342q-12 0 -12 12v28q0 12 12 12h98l-141 286q-17 22 -65 31l-28 5q-11 3 -11 42q0 9 8 9h264q9 0 9 -9q0 -39 -11 -42l-28 -5q-14 -3 -14 -16q0 -8 4 -15l100 -205q10 -19 18 -19q6 0 12 11l102 213q4 7 4 15q0 13 -13 16l-28 6q-12 2 -12 42q0 8 9 8h193 q8 0 8 -8q0 -40 -11 -42l-28 -5q-15 -3 -22.5 -5t-19 -9t-17.5 -18l-136 -286h98q12 0 12 -12v-28q0 -12 -12 -12zM147 202h342q12 0 12 -12v-28q0 -12 -12 -12h-113v-85q0 -15 30 -20l20 -4q8 -2 8 -35q0 -6 -6 -6h-219q-6 0 -6 6q0 33 8 35l20 4q30 5 30 20v85h-114 q-12 0 -12 12v28q0 12 12 12z"/>
<glyph unicode="¦" glyph-name="brokenbar" horiz-adv-x="145" d="M105 780v-360h-65v360h65zM105 180v-360h-65v360h65z"/>
<glyph unicode="§" glyph-name="section" horiz-adv-x="454" d="M182 400q-27 -7 -44 -24.5t-17 -43.5q0 -22 13.5 -40.5t39 -33t42 -22t42.5 -16.5q6 -2 18.5 -7t18.5 -7q47 19 47 73q0 24 -9.5 42.5t-31 31.5t-36.5 19.5t-44 16.5zM45 300q0 80 74 127q-74 42 -74 128q0 65 51.5 110t123.5 45q23 0 49.5 -5.5t55.5 -17t48 -36 t19 -57.5q0 -22 -13.5 -39.5t-35.5 -17.5q-21 0 -35 14t-14 34q0 6 3 15t3 17q0 22 -29.5 32.5t-55.5 10.5q-38 0 -66 -19.5t-28 -53.5q0 -18 9 -32t26.5 -25t32 -18t38 -15.5t31.5 -11.5q31 -11 44.5 -16.5t41 -21t40 -31t24 -42.5t11.5 -61q0 -83 -70 -131q70 -41 70 -124 q0 -74 -56.5 -121t-135.5 -47q-80 0 -136 42t-56 110q0 22 13.5 39.5t35.5 17.5q21 0 35 -14t14 -34q0 -6 -3 -18t-3 -20q0 -73 109 -73q43 0 74.5 19.5t31.5 64.5q0 20 -8 35.5t-17.5 24.5t-29 18t-31.5 12.5t-35 9.5q-24 8 -32.5 11t-32.5 13t-35 17.5t-28.5 22 t-25.5 29.5t-15 36.5t-7 46.5z"/>
<glyph unicode="¨" glyph-name="dieresis" horiz-adv-x="404" d="M256 671q0 23 16 38.5t38 15.5t38 -15.5t16 -38.5t-16 -38.5t-38 -15.5t-38 15.5t-16 38.5zM40 671q0 23 16 38.5t38 15.5t38 -15.5t16 -38.5t-16 -38.5t-38 -15.5t-38 15.5t-16 38.5z"/>
<glyph unicode="©" glyph-name="copyright" horiz-adv-x="920" d="M612 205q-5 -43 -40 -82t-105 -39q-74 0 -127.5 52t-53.5 160t53.5 160.5t127.5 52.5q29 0 57.5 -10t32.5 -10q6 0 11 14q2 6 24 6q6 0 6 -5v-119q0 -4 -6 -4q-24 0 -24 6q0 41 -28 67t-73 26t-76 -44.5t-31 -139.5q0 -93 33 -134.5t80 -41.5q42 0 71.5 24.5t38.5 64.5 q0 3 8 3q21 0 21 -7zM80 298q0 -158 111 -269t269 -111t269 111t111 269t-111 269t-269 111t-269 -111t-111 -269zM40 298q0 174 123 297t297 123t297 -123t123 -297t-123 -297t-297 -123t-297 123t-123 297z"/>
<glyph unicode="ª" glyph-name="ordfeminine" horiz-adv-x="371" d="M158 401q31 0 53.5 28t23.5 66l-2 66q-36 -2 -60.5 -7.5t-46.5 -27.5t-22 -60q0 -65 54 -65zM302 636l6 -199q1 -30 38 -30q5 0 5 -3q0 -19 -5 -22q-52 -16 -77 -16q-21 0 -23 18q-2 19 -3 36h-5q-40 -54 -103 -54q-48 0 -76.5 27t-28.5 73q0 112 202 117l-1 54 q0 32 -14.5 50.5t-39.5 18.5q-20 0 -33.5 -12t-13.5 -29q0 -2 0.5 -6.5t0.5 -7.5q0 -39 -36 -39q-13 0 -23 11t-10 28q0 36 33.5 57.5t83.5 21.5q53 0 88 -25.5t35 -68.5z"/>
<glyph unicode="«" glyph-name="guillemotleft" horiz-adv-x="431" d="M212 390q-30 -49 -78 -119l78 -119q19 -30 19 -47q0 -7 -5 -7t-171 139q-15 12 -15 34v4q1 18 15 30q166 139 171 139t5 -7q0 -17 -19 -47zM372 390q-30 -49 -78 -119l78 -119q19 -30 19 -47q0 -7 -5 -7t-171 139q-15 12 -15 34v4q1 18 15 30q166 139 171 139t5 -7 q0 -17 -19 -47z"/>
<glyph unicode="¬" glyph-name="logicalnot" horiz-adv-x="569" d="M40 247v57h489v-294h-57v237h-432z"/>
<glyph unicode="®" glyph-name="registered" horiz-adv-x="920" d="M399 471v-144q0 -12 12 -12h65q28 0 48.5 20.5t20.5 63.5t-20.5 63.5t-48.5 20.5h-65q-12 0 -12 -12zM476 515q29 0 58 -8.5t54.5 -36.5t25.5 -71q0 -80 -81 -106l94 -158q11 -14 24 -17l28 -5q5 -2 5 -18q0 -4 -4 -4h-72q-37 0 -50 24l-87 160q-6 7 -18 9h-44 q-8 -2 -10 -11v-143q0 -8 18 -11l13 -3q4 0 4 -21q0 -4 -4 -4h-132q-4 0 -4 4q0 21 5 21l13 3q18 3 18 11v347q0 7 -18 10l-13 3q-5 0 -5 21q0 4 4 4h178zM80 298q0 -158 111 -269t269 -111t269 111t111 269t-111 269t-269 111t-269 -111t-111 -269zM40 298q0 174 123 297 t297 123t297 -123t123 -297t-123 -297t-297 -123t-297 123t-123 297z"/>
<glyph unicode="°" glyph-name="degree" horiz-adv-x="307" d="M153 509q64 0 64 96q0 97 -64 97q-61 0 -61 -97q0 -96 61 -96zM153 730q51 0 92.5 -30.5t41.5 -94.5t-41.5 -94t-92.5 -30q-49 0 -91 30t-42 94t42 94.5t91 30.5z"/>
<glyph unicode="±" glyph-name="plusminus" horiz-adv-x="569" d="M40 257v56h216v211h57v-211h216v-56h-216v-201h216v-56h-489v56h216v201h-216z"/>
<glyph unicode="²" glyph-name="twosuperior" horiz-adv-x="454" d="M305 585q0 50 -23 79t-70 29q-33 0 -52.5 -18t-19.5 -47q0 -2 0.5 -7.5t0.5 -9.5q0 -51 -43 -51q-15 0 -26.5 14.5t-11.5 36.5q0 45 45.5 77t106.5 32q78 0 126 -36.5t48 -98.5q0 -23 -8 -42t-25.5 -35t-31.5 -26t-39 -25t-36 -22q-83 -57 -126 -93q-2 -3 -2 -8t9 -5h193 q18 0 29 10.5t13 21.5l2 11l3 38q0 6 23 6q4 0 4 -5v-139q0 -12 -11 -12h-323v51q0 5 3 11t9.5 13.5t13.5 15t18 17.5t20 18t23 19t22.5 18t23 18.5t21.5 17.5q47 38 69 65t22 61z"/>
<glyph unicode="³" glyph-name="threesuperior" horiz-adv-x="452" d="M207 288q48 0 77.5 30t29.5 78q0 42 -28.5 71.5t-73.5 30.5h-45q-5 0 -5 4q0 23 4 23h45q42 1 61 27t19 62q0 78 -84 78q-30 0 -45.5 -13t-15.5 -29q0 -2 0.5 -7t0.5 -9q0 -51 -42 -51q-15 0 -26 14t-11 36q0 32 38.5 59.5t100.5 27.5q74 0 118 -29.5t44 -76.5 q0 -32 -21.5 -59.5t-58.5 -42.5q46 -15 74.5 -45.5t28.5 -70.5q0 -62 -53.5 -99t-131.5 -37q-71 0 -109 24.5t-38 62.5q0 23 12 36.5t33 13.5q42 0 42 -51q0 -5 -0.5 -9.5t-0.5 -5.5q0 -16 15.5 -29.5t45.5 -13.5z"/>
<glyph unicode="´" glyph-name="acute" horiz-adv-x="261" d="M210 701q-31 -34 -120 -95q-27 -19 -43 -19q-7 0 -7 5q0 8 39 77t60 94q12 15 34 15q20 0 34 -14.5t14 -34.5q0 -14 -11 -28z"/>
<glyph unicode="µ" glyph-name="mu" horiz-adv-x="586" d="M98 122v378h100v-378q0 -39 22.5 -60t60.5 -21q30 0 65.5 20t51.5 45v394h100v-413q3 -37 52 -37q6 0 6 -6q0 -27 -8 -30q-70 -24 -109 -24q-31 0 -31 20v62q-76 -82 -160 -82q-51 0 -87 19q17 -151 17 -154q0 -25 -18 -43q-14 -12 -35 -12t-35 12q-18 18 -18 43 q0 20 13 128t13 139z"/>
<glyph unicode="¶" glyph-name="paragraph" horiz-adv-x="548" d="M256 339q-98 0 -157 47q-59 46 -59 131q0 83 55 133q53 50 140 50h262q11 -1 11 -12v-27q0 -12 -12 -12h-56v-733q0 -12 -12 -12h-27q-12 0 -12 12v733h-82v-733q0 -12 -12 -12h-27q-12 0 -12 12v423z"/>
<glyph unicode="·" glyph-name="periodcentered" horiz-adv-x="202" d="M40 250q0 26 18 43.5t43 17.5t43 -17.5t18 -43.5t-18 -43.5t-43 -17.5t-43 17.5t-18 43.5z"/>
<glyph unicode="¸" glyph-name="cedilla" horiz-adv-x="274" d="M107 -26q60 0 93.5 -21t33.5 -62q0 -47 -38.5 -69t-121.5 -22h-31q-3 0 -3 3q0 18 3 18h31q98 0 98 60q0 49 -65 49h-18q-15 0 -20 5t-5 20v50h34v-31h9z"/>
<glyph unicode="¹" glyph-name="onesuperior" horiz-adv-x="332" d="M205 704v-401q0 -7 30 -12l31 -4q6 0 6 -23q0 -4 -4 -4h-204q-4 0 -4 4q0 23 6 23l31 4q30 5 30 14v342q-1 12 -14 12h-49q-4 0 -4 4q0 23 6 23q77 0 96 34h27q9 0 12.5 -3t3.5 -13z"/>
<glyph unicode="º" glyph-name="ordmasculine" horiz-adv-x="368" d="M184 705q-81 0 -81 -157t81 -157q80 0 80 157t-80 157zM184 366q-67 0 -110.5 42.5t-43.5 139.5t43.5 139.5t110.5 42.5t110.5 -42.5t43.5 -139.5t-43.5 -139.5t-110.5 -42.5z"/>
<glyph unicode="»" glyph-name="guillemotright" horiz-adv-x="431" d="M391 271v-4q-2 -20 -15 -30q-166 -139 -171 -139t-5 7q0 17 19 47q10 17 38.5 60t38.5 59q-7 11 -24 37t-31 47t-22 35q-19 30 -19 47q0 7 5 7t171 -139q14 -12 15 -30v-4zM216 305q15 -12 15 -34t-15 -34q-166 -139 -171 -139t-5 7q0 17 19 47q10 17 38.5 60t38.5 59 q-7 11 -24 37t-31 47t-22 35q-19 30 -19 47q0 7 5 7t171 -139z"/>
<glyph unicode="¼" glyph-name="onequarter" horiz-adv-x="936" d="M567 158h170v212zM195 704v-401q0 -7 30 -12l31 -4q6 0 6 -23q0 -4 -4 -4h-204q-4 0 -4 4q0 23 6 23l31 4q30 5 30 14v342q-1 12 -14 12h-49q-4 0 -4 4q0 23 6 23q77 0 96 34h27q9 0 12.5 -3t3.5 -13zM264 0h-39l354 677q11 23 38 23h39l-354 -677q-12 -23 -38 -23z M516 158l224 274q7 9 24.5 18.5t29.5 9.5q21 0 21 -16v-286h64q7 0 7 -6q0 -42 -9 -42h-62v-63q0 -5 6 -8t15 -4.5t11 -2.5l32 -5q6 0 6 -23q0 -4 -5 -4h-207q-5 0 -5 4q0 23 6 23l32 5q2 1 11 2.5t14.5 4.5t5.5 8v63h-213q-6 0 -10.5 5t-4.5 11v12q0 6 7 20z"/>
<glyph unicode="½" glyph-name="onehalf" horiz-adv-x="976" d="M195 704v-401q0 -7 30 -12l31 -4q6 0 6 -23q0 -4 -4 -4h-204q-4 0 -4 4q0 23 6 23l31 4q30 5 30 14v342q-1 12 -14 12h-49q-4 0 -4 4q0 23 6 23q77 0 96 34h27q9 0 12.5 -3t3.5 -13zM264 0h-39l354 677q11 23 38 23h39l-354 -677q-12 -23 -38 -23zM744 460 q78 0 126 -36.5t48 -98.5q0 -23 -8 -42t-25.5 -35t-31.5 -26t-39 -25t-36 -22q-83 -57 -126 -93q-2 -3 -2 -8t13 -5h186q19 0 31 10.5t14 21.5l2 11l3 38q0 6 23 6q4 0 4 -5v-139q0 -12 -11 -12h-323v51q0 5 3 11t9.5 13.5t13.5 15t18 17.5t20 18t23 19t22.5 18t23 18.5 t21.5 17.5q47 38 69 65t22 61q0 50 -23 79t-70 29q-33 0 -52.5 -18t-19.5 -47q0 -2 0.5 -7.5t0.5 -9.5q0 -51 -43 -51q-15 0 -26.5 14.5t-11.5 36.5q0 45 45.5 77t106.5 32z"/>
<glyph unicode="¾" glyph-name="threequarters" horiz-adv-x="1028" d="M829 158v212l-170 -212h170zM356 0h-39l354 677q11 23 38 23h39l-354 -677q-12 -23 -38 -23zM202 498h-45q-5 0 -5 4q0 23 4 23h41q44 0 64 26t20 63q0 78 -84 78q-30 0 -45.5 -13t-15.5 -29q0 -2 0.5 -7t0.5 -9q0 -51 -42 -51q-15 0 -26 14t-11 36q0 32 38.5 59.5 t100.5 27.5q74 0 118 -29.5t44 -76.5q0 -32 -21.5 -59.5t-58.5 -42.5q46 -15 74.5 -45.5t28.5 -70.5q0 -62 -53.5 -99t-131.5 -37q-71 0 -109 24.5t-38 62.5q0 23 12 36.5t33 13.5q42 0 42 -51q0 -5 -0.5 -9.5t-0.5 -5.5q0 -16 15.5 -29.5t45.5 -13.5q48 0 77.5 30t29.5 78 q0 42 -28.5 72t-73.5 30zM608 158l224 274q7 9 24.5 18.5t29.5 9.5q21 0 21 -16v-286h64q7 0 7 -6q0 -42 -9 -42h-62v-65q1 -4 7 -6.5t14.5 -4t10.5 -2.5l32 -5q6 0 6 -23q0 -4 -5 -4h-207q-5 0 -5 4q0 23 6 23l32 5q2 1 10 2.5t14 4t7 6.5v65h-213q-6 0 -10.5 5t-4.5 11v12 q0 6 7 20z"/>
<glyph unicode="¿" glyph-name="questiondown" horiz-adv-x="455" d="M317 469q0 -25 -17.5 -43t-43.5 -18t-43.5 18t-17.5 43t17.5 43t43.5 18t43.5 -18t17.5 -43zM230 317q0 12 12 12h28q12 0 12 -12v-172q0 -16 -16 -16h-17q-104 -3 -104 -154q0 -139 111 -139q43 0 69 23.5t26 60.5q0 2 -0.5 8.5t-0.5 12.5q0 67 55 67q20 0 35 -18.5 t15 -47.5q0 -58 -60 -100t-139 -42q-98 0 -157 55.5t-59 139.5q0 91 44 149t131 69q15 5 15 20v84z"/>
<glyph unicode="À" glyph-name="Agrave" horiz-adv-x="664" d="M192 891q-11 14 -11 28q0 20 14 34.5t34 14.5q22 0 34 -15q21 -25 60 -94t39 -77q0 -5 -7 -5q-16 0 -43 19q-89 61 -120 95zM321 532q-4 12 -13 12q-8 0 -12 -9l-1 -3l-86 -232h185zM71 69l222 592q6 18 21 27t26.5 10.5t32.5 1.5q3 0 5 -3l209 -629q6 -17 34 -23l35 -4 q8 -2 8 -35q0 -6 -6 -6h-228q-6 0 -6 6q0 33 8 35l30 4q11 1 7 20l-58 183h-221l-68 -184q-4 -16 8 -19l30 -4q8 -2 8 -35q0 -6 -6 -6h-156q-6 0 -6 6q0 33 8 35l30 4q25 5 33 24z"/>
<glyph unicode="Á" glyph-name="Aacute" horiz-adv-x="664" d="M484 891q-31 -34 -120 -95q-27 -19 -43 -19q-7 0 -7 5q0 8 39 77t60 94q12 15 34 15q20 0 34 -14.5t14 -34.5q0 -14 -11 -28zM321 532q-4 12 -13 12q-8 0 -12 -9l-1 -3l-86 -232h185zM71 69l222 592q6 18 21 27t26.5 10.5t32.5 1.5q3 0 5 -3l209 -629q6 -17 34 -23l35 -4 q8 -2 8 -35q0 -6 -6 -6h-228q-6 0 -6 6q0 33 8 35l30 4q11 1 7 20l-58 183h-221l-68 -184q-4 -16 8 -19l30 -4q8 -2 8 -35q0 -6 -6 -6h-156q-6 0 -6 6q0 33 8 35l30 4q25 5 33 24z"/>
<glyph unicode="Â" glyph-name="Acircumflex" horiz-adv-x="664" d="M314 953q10 14 31 15h4q22 0 34 -15q21 -25 60 -94t39 -77q0 -5 -7 -5q-12 0 -18 2.5t-25 16.5q-48 36 -84 69q-33 -31 -83 -69q-19 -14 -25 -16.5t-18 -2.5q-7 0 -7 5q0 8 39 77t60 94zM321 532q-4 12 -13 12q-8 0 -12 -9l-1 -3l-86 -232h185zM71 69l222 592q6 18 21 27 t26.5 10.5t32.5 1.5q3 0 5 -3l209 -629q6 -17 34 -23l35 -4q8 -2 8 -35q0 -6 -6 -6h-228q-6 0 -6 6q0 33 8 35l30 4q11 1 7 20l-58 183h-221l-68 -184q-4 -16 8 -19l30 -4q8 -2 8 -35q0 -6 -6 -6h-156q-6 0 -6 6q0 33 8 35l30 4q25 5 33 24z"/>
<glyph unicode="Ã" glyph-name="Atilde" horiz-adv-x="664" d="M518 896l18 -7q-17 -43 -51.5 -73t-78.5 -30q-35 0 -81 20q-15 6 -35 18t-34.5 18t-30.5 6q-22 0 -41 -12t-28 -31q-4 -6 -11 -4l-18 7q17 43 51.5 73t78.5 30q35 0 81 -20q15 -6 35 -18t34.5 -18t30.5 -6q21 0 40.5 12t28.5 30q4 7 11 5zM321 532q-4 12 -13 12 q-8 0 -12 -9l-1 -3l-86 -232h185zM71 69l222 592q6 18 21 27t26.5 10.5t32.5 1.5q3 0 5 -3l209 -629q6 -17 34 -23l35 -4q8 -2 8 -35q0 -6 -6 -6h-228q-6 0 -6 6q0 33 8 35l30 4q11 1 7 20l-58 183h-221l-68 -184q-4 -16 8 -19l30 -4q8 -2 8 -35q0 -6 -6 -6h-156q-6 0 -6 6 q0 33 8 35l30 4q25 5 33 24z"/>
<glyph unicode="Ä" glyph-name="Adieresis" horiz-adv-x="664" d="M397 854q0 22 15.5 38t38.5 16t38.5 -16t15.5 -38t-15.5 -38t-38.5 -16t-38.5 16t-15.5 38zM181 854q0 22 15.5 38t38.5 16t38.5 -16t15.5 -38t-15.5 -38t-38.5 -16t-38.5 16t-15.5 38zM321 532q-4 12 -13 12q-8 0 -12 -9l-1 -3l-86 -232h185zM71 69l222 592q6 18 21 27 t26.5 10.5t32.5 1.5q3 0 5 -3l209 -629q6 -17 34 -23l35 -4q8 -2 8 -35q0 -6 -6 -6h-228q-6 0 -6 6q0 33 8 35l30 4q11 1 7 20l-58 183h-221l-68 -184q-4 -16 8 -19l30 -4q8 -2 8 -35q0 -6 -6 -6h-156q-6 0 -6 6q0 33 8 35l30 4q25 5 33 24z"/>
<glyph unicode="Å" glyph-name="Aring" horiz-adv-x="664" d="M342 763q42 0 42 64t-42 64q-40 0 -40 -64t40 -64zM342 909q33 0 60.5 -20.5t27.5 -61.5t-27.5 -61.5t-60.5 -20.5q-32 0 -60 20.5t-28 61.5t28.5 61.5t59.5 20.5zM321 532q-4 12 -13 12q-8 0 -12 -9l-1 -3l-86 -232h185zM71 69l222 592q6 18 21 27t26.5 10.5t32.5 1.5 q3 0 5 -3l209 -629q6 -17 34 -23l35 -4q8 -2 8 -35q0 -6 -6 -6h-228q-6 0 -6 6q0 33 8 35l30 4q11 1 7 20l-58 183h-221l-68 -184q-4 -16 8 -19l30 -4q8 -2 8 -35q0 -6 -6 -6h-156q-6 0 -6 6q0 33 8 35l30 4q25 5 33 24z"/>
<glyph unicode="Æ" glyph-name="AE" horiz-adv-x="939" d="M435 631q0 6 -3.5 6.5t-7.5 -5.5l-177 -332h188v331zM383 0q-6 0 -6 6q0 33 8 35l20 4q30 5 30 20v183h-215l-94 -177q-11 -23 4 -26l30 -4q8 -2 8 -35q0 -6 -6 -6h-156q-6 0 -6 6q0 33 8 35l30 4q19 3 35 28l314 588q8 14 16.5 22.5t20.5 12t20 4t23 0.5h390 q22 0 22 -22v-177q0 -8 -8 -8q-41 0 -41 11l-5 68q0 3 -1 8t-6 17.5t-12.5 22.5t-23.5 18.5t-36 9.5h-178q-16 -2 -18 -18v-225q0 -8 6 -14t14 -6h152q15 0 20 30l4 20q2 8 35 8q6 0 6 -6v-156q0 -6 -6 -6q-33 0 -35 8l-4 20q-5 30 -20 30h-154q-18 -2 -18 -20v-243 q2 -18 20 -18h190q22 0 39 8t25.5 19t13.5 22t6 19l1 8l5 68q0 11 41 11q8 0 8 -8v-177q0 -22 -22 -22h-494z"/>
<glyph unicode="Ç" glyph-name="Ccedilla" horiz-adv-x="632" d="M356 -10q-13 0 -37 2v-18h9q60 0 93.5 -21t33.5 -62q0 -47 -38.5 -69t-121.5 -22h-31q-3 0 -3 3q0 18 3 18h31q98 0 98 60q0 49 -65 49h-18q-15 0 -20 5t-5 20v43q-103 22 -169 109t-66 243q0 95 26.5 167t71.5 112.5t97.5 60.5t110.5 20q49 0 97.5 -17t54.5 -17 q14 0 19 23q3 11 41 11q9 0 9 -8v-202q0 -8 -9 -8q-41 0 -41 11q0 69 -47.5 113t-123.5 44t-128.5 -75t-52.5 -235q0 -158 56 -228t135 -70q71 0 121 41.5t65 108.5q2 6 14 6q9 0 22 -3.5t13 -9.5q0 -29 -14.5 -62.5t-42.5 -66.5t-77.5 -54.5t-110.5 -21.5z"/>
<glyph unicode="È" glyph-name="Egrave" horiz-adv-x="622" d="M243 891q-11 14 -11 28q0 20 14 34.5t34 14.5q22 0 34 -15q21 -25 60 -94t39 -77q0 -5 -7 -5q-16 0 -43 19q-89 61 -120 95zM582 22q0 -22 -22 -22h-494q-6 0 -6 6q0 33 8 35l20 4q30 5 30 20v572q0 13 -30 18l-20 4q-8 2 -8 35q0 6 6 6h474q22 0 22 -22v-177q0 -8 -8 -8 q-41 0 -41 11l-5 68q0 3 -1 8t-6 17.5t-12.5 22.5t-23.5 18.5t-36 9.5h-176q-18 0 -20 -18v-227q2 -16 18 -18h156q13 0 18 30l4 20q2 8 35 8q6 0 6 -6v-156q0 -6 -6 -6q-33 0 -35 8l-4 20q-5 30 -18 30h-154q-18 0 -20 -18v-245q2 -16 18 -18h192q22 0 39 8t25.5 19 t13.5 22t6 19l1 8l5 68q0 11 41 11q8 0 8 -8v-177z"/>
<glyph unicode="É" glyph-name="Eacute" horiz-adv-x="622" d="M427 891q-31 -34 -120 -95q-27 -19 -43 -19q-7 0 -7 5q0 8 39 77t60 94q12 15 34 15q20 0 34 -14.5t14 -34.5q0 -14 -11 -28zM582 22q0 -22 -22 -22h-494q-6 0 -6 6q0 33 8 35l20 4q30 5 30 20v572q0 13 -30 18l-20 4q-8 2 -8 35q0 6 6 6h474q22 0 22 -22v-177 q0 -8 -8 -8q-41 0 -41 11l-5 68q0 3 -1 8t-6 17.5t-12.5 22.5t-23.5 18.5t-36 9.5h-176q-18 0 -20 -18v-227q2 -16 18 -18h156q13 0 18 30l4 20q2 8 35 8q6 0 6 -6v-156q0 -6 -6 -6q-33 0 -35 8l-4 20q-5 30 -18 30h-154q-18 0 -20 -18v-245q2 -16 18 -18h192q22 0 39 8 t25.5 19t13.5 22t6 19l1 8l5 68q0 11 41 11q8 0 8 -8v-177z"/>
<glyph unicode="Ê" glyph-name="Ecircumflex" horiz-adv-x="622" d="M295 953q10 14 31 15h4q22 0 34 -15q21 -25 60 -94t39 -77q0 -5 -7 -5q-12 0 -18 2.5t-25 16.5q-48 36 -84 69q-33 -31 -83 -69q-19 -14 -25 -16.5t-18 -2.5q-7 0 -7 5q0 8 39 77t60 94zM582 22q0 -22 -22 -22h-494q-6 0 -6 6q0 33 8 35l20 4q30 5 30 20v572q0 13 -30 18 l-20 4q-8 2 -8 35q0 6 6 6h474q22 0 22 -22v-177q0 -8 -8 -8q-41 0 -41 11l-5 68q0 3 -1 8t-6 17.5t-12.5 22.5t-23.5 18.5t-36 9.5h-176q-18 0 -20 -18v-227q2 -16 18 -18h156q13 0 18 30l4 20q2 8 35 8q6 0 6 -6v-156q0 -6 -6 -6q-33 0 -35 8l-4 20q-5 30 -18 30h-154 q-18 0 -20 -18v-245q2 -16 18 -18h192q22 0 39 8t25.5 19t13.5 22t6 19l1 8l5 68q0 11 41 11q8 0 8 -8v-177z"/>
<glyph unicode="Ë" glyph-name="Edieresis" horiz-adv-x="622" d="M382 854q0 22 16 38t38 16t38 -16t16 -38t-16 -38t-38 -16t-38 16t-16 38zM166 854q0 22 16 38t38 16t38 -16t16 -38t-16 -38t-38 -16t-38 16t-16 38zM582 22q0 -22 -22 -22h-494q-6 0 -6 6q0 33 8 35l20 4q30 5 30 20v572q0 13 -30 18l-20 4q-8 2 -8 35q0 6 6 6h474 q22 0 22 -22v-177q0 -8 -8 -8q-41 0 -41 11l-5 68q0 3 -1 8t-6 17.5t-12.5 22.5t-23.5 18.5t-36 9.5h-176q-18 0 -20 -18v-227q2 -16 18 -18h156q13 0 18 30l4 20q2 8 35 8q6 0 6 -6v-156q0 -6 -6 -6q-33 0 -35 8l-4 20q-5 30 -18 30h-154q-18 0 -20 -18v-245q2 -16 18 -18 h192q22 0 39 8t25.5 19t13.5 22t6 19l1 8l5 68q0 11 41 11q8 0 8 -8v-177z"/>
<glyph unicode="Ì" glyph-name="Igrave" horiz-adv-x="351" d="M85 891q-11 14 -11 28q0 20 14 34.5t34 14.5q22 0 34 -15q21 -25 60 -94t39 -77q0 -5 -7 -5q-16 0 -43 19q-89 61 -120 95zM233 635v-572q0 -13 30 -18l20 -4q8 -2 8 -35q0 -6 -6 -6h-219q-6 0 -6 6q0 33 8 35l20 4q30 5 30 18v572q0 15 -30 20l-20 4q-8 2 -8 35q0 6 6 6 h219q6 0 6 -6q0 -33 -8 -35l-20 -4q-30 -5 -30 -20z"/>
<glyph unicode="Í" glyph-name="Iacute" horiz-adv-x="351" d="M296 891q-31 -34 -120 -95q-27 -19 -43 -19q-7 0 -7 5q0 8 39 77t60 94q12 15 34 15q20 0 34 -14.5t14 -34.5q0 -14 -11 -28zM233 635v-572q0 -13 30 -18l20 -4q8 -2 8 -35q0 -6 -6 -6h-219q-6 0 -6 6q0 33 8 35l20 4q30 5 30 18v572q0 15 -30 20l-20 4q-8 2 -8 35 q0 6 6 6h219q6 0 6 -6q0 -33 -8 -35l-20 -4q-30 -5 -30 -20z"/>
<glyph unicode="Î" glyph-name="Icircumflex" horiz-adv-x="351" d="M141 953q10 14 31 15h4q22 0 34 -15q21 -25 60 -94t39 -77q0 -5 -7 -5q-12 0 -18 2.5t-25 16.5q-48 36 -84 69q-33 -31 -83 -69q-19 -14 -25 -16.5t-18 -2.5q-7 0 -7 5q0 8 39 77t60 94zM233 635v-572q0 -13 30 -18l20 -4q8 -2 8 -35q0 -6 -6 -6h-219q-6 0 -6 6 q0 33 8 35l20 4q30 5 30 18v572q0 15 -30 20l-20 4q-8 2 -8 35q0 6 6 6h219q6 0 6 -6q0 -33 -8 -35l-20 -4q-30 -5 -30 -20z"/>
<glyph unicode="Ï" glyph-name="Idieresis" horiz-adv-x="351" d="M230 854q0 22 16 38t38 16t38 -16t16 -38t-16 -38t-38 -16t-38 16t-16 38zM14 854q0 22 16 38t38 16t38 -16t16 -38t-16 -38t-38 -16t-38 16t-16 38zM233 635v-572q0 -13 30 -18l20 -4q8 -2 8 -35q0 -6 -6 -6h-219q-6 0 -6 6q0 33 8 35l20 4q30 5 30 18v572q0 15 -30 20 l-20 4q-8 2 -8 35q0 6 6 6h219q6 0 6 -6q0 -33 -8 -35l-20 -4q-30 -5 -30 -20z"/>
<glyph unicode="Ð" glyph-name="Eth" horiz-adv-x="699" d="M346 52q77 0 127.5 69t50.5 229t-50.5 229t-127.5 69h-93q-8 0 -14 -6t-6 -14v-238h140q12 0 12 -12v-28q0 -12 -12 -12h-140v-266q0 -18 18 -20h95zM66 0q-6 0 -6 6q0 33 8 35l20 4q30 7 30 20v273h-46q-12 0 -12 12v28q0 12 12 12h46v247q-2 11 -30 18l-20 4 q-8 2 -8 35q0 6 6 6h280q46 0 88 -11t81.5 -36.5t69 -65t47 -100.5t17.5 -137t-17.5 -137t-47 -100.5t-69 -65t-81.5 -36.5t-88 -11h-280z"/>
<glyph unicode="Ñ" glyph-name="Ntilde" horiz-adv-x="799" d="M586 906l18 -7q-17 -43 -51.5 -73t-78.5 -30q-35 0 -81 20q-15 6 -35 18t-34.5 18t-30.5 6q-22 0 -41 -12t-28 -31q-4 -6 -11 -4l-18 7q17 43 51.5 73t78.5 30q35 0 81 -20q15 -6 35 -18t34.5 -18t30.5 -6q21 0 40.5 12t28.5 30q4 7 11 5zM185 700q32 0 48.5 -6.5 t32.5 -32.5l350 -584v560q0 13 -30 18l-50 4q-8 2 -8 35q0 6 6 6h219q6 0 6 -6q0 -33 -8 -35l-50 -4q-30 -5 -30 -18v-617q0 -8 -6 -14t-14 -6h-48q-23 0 -36 1.5t-28.5 10.5t-26.5 27l-319 527v-503q0 -13 30 -18l50 -4q8 -2 8 -35q0 -6 -6 -6h-219q-6 0 -6 6q0 33 8 35 l50 4q30 5 30 20v572q0 13 -30 18l-20 4q-8 2 -8 35q0 6 6 6h99z"/>
<glyph unicode="Ò" glyph-name="Ograve" d="M277 891q-11 14 -11 28q0 20 14 34.5t34 14.5q22 0 34 -15q21 -25 60 -94t39 -77q0 -5 -7 -5q-16 0 -43 19q-89 61 -120 95zM356 656q-77 0 -129 -73t-52 -233t52 -233t129 -73q76 0 127 73t51 233t-51 233t-127 73zM356 -10q-58 0 -110.5 20t-97.5 60.5t-71.5 112.5 t-26.5 167t26.5 167t71.5 112.5t97.5 60.5t110.5 20t109.5 -20t96 -60.5t71 -112.5t26.5 -167t-26.5 -167t-71 -112.5t-96 -60.5t-109.5 -20z"/>
<glyph unicode="Ó" glyph-name="Oacute" d="M456 891q-31 -34 -120 -95q-27 -19 -43 -19q-7 0 -7 5q0 8 39 77t60 94q12 15 34 15q20 0 34 -14.5t14 -34.5q0 -14 -11 -28zM356 656q-77 0 -129 -73t-52 -233t52 -233t129 -73q76 0 127 73t51 233t-51 233t-127 73zM356 -10q-58 0 -110.5 20t-97.5 60.5t-71.5 112.5 t-26.5 167t26.5 167t71.5 112.5t97.5 60.5t110.5 20t109.5 -20t96 -60.5t71 -112.5t26.5 -167t-26.5 -167t-71 -112.5t-96 -60.5t-109.5 -20z"/>
<glyph unicode="Ô" glyph-name="Ocircumflex" d="M321 953q10 14 31 15h4q22 0 34 -15q21 -25 60 -94t39 -77q0 -5 -7 -5q-12 0 -18 2.5t-25 16.5q-48 36 -84 69q-33 -31 -83 -69q-19 -14 -25 -16.5t-18 -2.5q-7 0 -7 5q0 8 39 77t60 94zM356 656q-77 0 -129 -73t-52 -233t52 -233t129 -73q76 0 127 73t51 233t-51 233 t-127 73zM356 -10q-58 0 -110.5 20t-97.5 60.5t-71.5 112.5t-26.5 167t26.5 167t71.5 112.5t97.5 60.5t110.5 20t109.5 -20t96 -60.5t71 -112.5t26.5 -167t-26.5 -167t-71 -112.5t-96 -60.5t-109.5 -20z"/>
<glyph unicode="Õ" glyph-name="Otilde" d="M543 896l18 -7q-17 -43 -51.5 -73t-78.5 -30q-35 0 -81 20q-15 6 -35 18t-34.5 18t-30.5 6q-22 0 -41 -12t-28 -31q-4 -6 -11 -4l-18 7q17 43 51.5 73t78.5 30q35 0 81 -20q15 -6 35 -18t34.5 -18t30.5 -6q21 0 40.5 12t28.5 30q4 7 11 5zM356 656q-77 0 -129 -73 t-52 -233t52 -233t129 -73q76 0 127 73t51 233t-51 233t-127 73zM356 -10q-58 0 -110.5 20t-97.5 60.5t-71.5 112.5t-26.5 167t26.5 167t71.5 112.5t97.5 60.5t110.5 20t109.5 -20t96 -60.5t71 -112.5t26.5 -167t-26.5 -167t-71 -112.5t-96 -60.5t-109.5 -20z"/>
<glyph unicode="Ö" glyph-name="Odieresis" d="M410 854q0 22 16 38t38 16t38 -16t16 -38t-16 -38t-38 -16t-38 16t-16 38zM194 854q0 22 16 38t38 16t38 -16t16 -38t-16 -38t-38 -16t-38 16t-16 38zM356 656q-77 0 -129 -73t-52 -233t52 -233t129 -73q76 0 127 73t51 233t-51 233t-127 73zM356 -10q-58 0 -110.5 20 t-97.5 60.5t-71.5 112.5t-26.5 167t26.5 167t71.5 112.5t97.5 60.5t110.5 20t109.5 -20t96 -60.5t71 -112.5t26.5 -167t-26.5 -167t-71 -112.5t-96 -60.5t-109.5 -20z"/>
<glyph unicode="×" glyph-name="multiply" horiz-adv-x="466" d="M40 426l40 40l153 -153l149 150l40 -41l-149 -149l153 -153l-40 -39l-153 152l-149 -150l-41 41l150 150z"/>
<glyph unicode="Ø" glyph-name="Oslash" d="M356 44q76 0 127 73t51 233q0 89 -18 156l-303 -365q49 -97 143 -97zM356 656q-77 0 -129 -73t-52 -233q0 -92 19 -159l303 366q-47 99 -141 99zM356 -10q-123 0 -204 77l-77 -93l-36 30l81 98q-70 93 -70 248q0 95 26.5 167t71.5 112.5t97.5 60.5t110.5 20 q121 0 203 -78l78 94l36 -30l-83 -100q69 -94 69 -246q0 -95 -26.5 -167t-71 -112.5t-96 -60.5t-109.5 -20z"/>
<glyph unicode="Ù" glyph-name="Ugrave" horiz-adv-x="716" d="M278 891q-11 14 -11 28q0 20 14 34.5t34 14.5q22 0 34 -15q21 -25 60 -94t39 -77q0 -5 -7 -5q-16 0 -43 19q-89 61 -120 95zM563 317v318q0 15 -30 20l-50 4q-8 2 -8 35q0 6 6 6h219q6 0 6 -6q0 -33 -8 -35l-50 -4q-30 -5 -30 -18v-320q0 -163 -57.5 -245t-190.5 -82 q-48 0 -80 4.5t-69.5 23.5t-60 53t-37.5 96t-15 150v320q0 13 -30 18l-20 4q-8 2 -8 35q0 6 6 6h219q6 0 6 -6q0 -33 -8 -35l-20 -4q-30 -5 -30 -20v-318q0 -90 8.5 -144t31 -82t51.5 -37t79 -9q40 0 70.5 14.5t49.5 39t30.5 60.5t15.5 73.5t4 84.5z"/>
<glyph unicode="Ú" glyph-name="Uacute" horiz-adv-x="716" d="M475 891q-31 -34 -120 -95q-27 -19 -43 -19q-7 0 -7 5q0 8 39 77t60 94q12 15 34 15q20 0 34 -14.5t14 -34.5q0 -14 -11 -28zM563 317v318q0 15 -30 20l-50 4q-8 2 -8 35q0 6 6 6h219q6 0 6 -6q0 -33 -8 -35l-50 -4q-30 -5 -30 -18v-320q0 -163 -57.5 -245t-190.5 -82 q-48 0 -80 4.5t-69.5 23.5t-60 53t-37.5 96t-15 150v320q0 13 -30 18l-20 4q-8 2 -8 35q0 6 6 6h219q6 0 6 -6q0 -33 -8 -35l-20 -4q-30 -5 -30 -20v-318q0 -90 8.5 -144t31 -82t51.5 -37t79 -9q40 0 70.5 14.5t49.5 39t30.5 60.5t15.5 73.5t4 84.5z"/>
<glyph unicode="Û" glyph-name="Ucircumflex" horiz-adv-x="716" d="M344 953q10 14 31 15h4q22 0 34 -15q21 -25 60 -94t39 -77q0 -5 -7 -5q-12 0 -18 2.5t-25 16.5q-48 36 -84 69q-33 -31 -83 -69q-19 -14 -25 -16.5t-18 -2.5q-7 0 -7 5q0 8 39 77t60 94zM563 317v318q0 15 -30 20l-50 4q-8 2 -8 35q0 6 6 6h219q6 0 6 -6q0 -33 -8 -35 l-50 -4q-30 -5 -30 -18v-320q0 -163 -57.5 -245t-190.5 -82q-48 0 -80 4.5t-69.5 23.5t-60 53t-37.5 96t-15 150v320q0 13 -30 18l-20 4q-8 2 -8 35q0 6 6 6h219q6 0 6 -6q0 -33 -8 -35l-20 -4q-30 -5 -30 -20v-318q0 -90 8.5 -144t31 -82t51.5 -37t79 -9q40 0 70.5 14.5 t49.5 39t30.5 60.5t15.5 73.5t4 84.5z"/>
<glyph unicode="Ü" glyph-name="Udieresis" horiz-adv-x="716" d="M432 854q0 22 16 38t38 16t38 -16t16 -38t-16 -38t-38 -16t-38 16t-16 38zM216 854q0 22 16 38t38 16t38 -16t16 -38t-16 -38t-38 -16t-38 16t-16 38zM563 317v318q0 15 -30 20l-50 4q-8 2 -8 35q0 6 6 6h219q6 0 6 -6q0 -33 -8 -35l-50 -4q-30 -5 -30 -18v-320 q0 -163 -57.5 -245t-190.5 -82q-48 0 -80 4.5t-69.5 23.5t-60 53t-37.5 96t-15 150v320q0 13 -30 18l-20 4q-8 2 -8 35q0 6 6 6h219q6 0 6 -6q0 -33 -8 -35l-20 -4q-30 -5 -30 -20v-318q0 -90 8.5 -144t31 -82t51.5 -37t79 -9q40 0 70.5 14.5t49.5 39t30.5 60.5t15.5 73.5 t4 84.5z"/>
<glyph unicode="Ý" glyph-name="Yacute" horiz-adv-x="612" d="M455 891q-31 -34 -120 -95q-27 -19 -43 -19q-7 0 -7 5q0 8 39 77t60 94q12 15 34 15q20 0 34 -14.5t14 -34.5q0 -14 -11 -28zM527 613l-132 -273q-13 -36 -13 -113v-162q0 -15 30 -20l20 -4q8 -2 8 -35q0 -6 -6 -6h-219q-6 0 -6 6q0 33 8 35l20 4q30 5 30 20v206 q0 8 -6 23l-157 319q-12 21 -65 31l-28 5q-11 3 -11 42q0 9 8 9h264q9 0 9 -9q0 -39 -11 -42l-28 -5q-14 -3 -14 -16q0 -5 4 -15l100 -206q10 -18 18 -18q6 0 12 12l102 212q4 10 4 15q0 13 -13 16l-28 6q-12 2 -12 42q0 8 9 8h193q8 0 8 -8q0 -40 -11 -42l-28 -5 q-15 -3 -22.5 -5t-19 -9t-17.5 -18z"/>
<glyph unicode="Þ" glyph-name="Thorn" horiz-adv-x="604" d="M360 214q45 0 79.5 38.5t34.5 110.5t-34.5 110.5t-79.5 38.5h-107q-18 0 -20 -18v-260q0 -18 18 -20h109zM233 142v-77q0 -15 30 -20l20 -4q8 -2 8 -35q0 -6 -6 -6h-219q-6 0 -6 6q0 33 8 35l20 4q30 5 30 20v570q0 15 -30 20l-20 4q-8 2 -8 35q0 6 6 6h219q6 0 6 -6 q0 -33 -8 -35l-20 -4q-30 -5 -30 -18v-53q0 -18 18 -20h109q34 0 71 -10.5t74 -32t60.5 -63t23.5 -95.5t-23.5 -95.5t-60.5 -63t-74 -32t-71 -10.5h-107q-8 0 -14 -6t-6 -14z"/>
<glyph unicode="ß" glyph-name="germandbls" horiz-adv-x="598" d="M297 752q-89 0 -89 -136v-601q0 -15 -15 -15h-137q-6 0 -6 6q0 28 8 30l20 4q30 5 30 18v379h-50q-8 0 -8 40q0 6 6 6h52v112q0 91 61 143.5t128 52.5q43 0 83.5 -15t73 -56.5t32.5 -103.5q0 -106 -87 -151q74 -24 116.5 -80.5t42.5 -138.5q0 -116 -72 -181t-189 -65h-25 q-5 0 -5 5q0 34 6 34h24q73 0 117 56t44 151q0 86 -42.5 140.5t-111.5 54.5h-12q-5 0 -5 5q0 34 6 34h4q89 0 89 136t-89 136z"/>
<glyph unicode="à" glyph-name="agrave" horiz-adv-x="533" d="M190 701q-11 14 -11 28q0 20 14 34.5t34 14.5q22 0 34 -15q21 -25 60 -94t39 -77q0 -5 -7 -5q-16 0 -43 19q-89 61 -120 95zM233 41q44 0 77 39.5t33 92.5q0 3 -3 95q-30 -2 -51.5 -5t-48.5 -11.5t-44 -22.5t-29 -38t-12 -57q0 -93 78 -93zM437 376l10 -284q1 -42 55 -42 q6 0 6 -6q0 -27 -8 -30q-70 -24 -109 -24q-31 0 -33 26q-2 27 -3 51h-8q-59 -77 -147 -77q-68 0 -109 39.5t-41 104.5q0 161 289 166l-2 77q0 46 -21 72t-56 26q-28 0 -47.5 -17t-19.5 -42q0 -2 0.5 -8t0.5 -10q0 -57 -51 -57q-19 0 -33 15.5t-14 40.5q0 52 48 82.5 t118 30.5q75 0 125 -36.5t50 -97.5z"/>
<glyph unicode="á" glyph-name="aacute" horiz-adv-x="533" d="M358 701q-31 -34 -120 -95q-27 -19 -43 -19q-7 0 -7 5q0 8 39 77t60 94q12 15 34 15q20 0 34 -14.5t14 -34.5q0 -14 -11 -28zM233 41q44 0 77 39.5t33 92.5q0 3 -3 95q-30 -2 -51.5 -5t-48.5 -11.5t-44 -22.5t-29 -38t-12 -57q0 -93 78 -93zM437 376l10 -284 q1 -42 55 -42q6 0 6 -6q0 -27 -8 -30q-70 -24 -109 -24q-31 0 -33 26q-2 27 -3 51h-8q-59 -77 -147 -77q-68 0 -109 39.5t-41 104.5q0 161 289 166l-2 77q0 46 -21 72t-56 26q-28 0 -47.5 -17t-19.5 -42q0 -2 0.5 -8t0.5 -10q0 -57 -51 -57q-19 0 -33 15.5t-14 40.5 q0 52 48 82.5t118 30.5q75 0 125 -36.5t50 -97.5z"/>
<glyph unicode="â" glyph-name="acircumflex" horiz-adv-x="533" d="M232 763q10 14 31 15h4q22 0 34 -15q21 -25 60 -94t39 -77q0 -5 -7 -5q-12 0 -18 2.5t-25 16.5q-48 36 -84 69q-33 -31 -83 -69q-19 -14 -25 -16.5t-18 -2.5q-7 0 -7 5q0 8 39 77t60 94zM233 41q44 0 77 39.5t33 92.5q0 3 -3 95q-30 -2 -51.5 -5t-48.5 -11.5t-44 -22.5 t-29 -38t-12 -57q0 -93 78 -93zM437 376l10 -284q1 -42 55 -42q6 0 6 -6q0 -27 -8 -30q-70 -24 -109 -24q-31 0 -33 26q-2 27 -3 51h-8q-59 -77 -147 -77q-68 0 -109 39.5t-41 104.5q0 161 289 166l-2 77q0 46 -21 72t-56 26q-28 0 -47.5 -17t-19.5 -42q0 -2 0.5 -8t0.5 -10 q0 -57 -51 -57q-19 0 -33 15.5t-14 40.5q0 52 48 82.5t118 30.5q75 0 125 -36.5t50 -97.5z"/>
<glyph unicode="ã" glyph-name="atilde" horiz-adv-x="533" d="M453 695l18 -7q-17 -43 -51.5 -73t-78.5 -30q-35 0 -81 20q-15 6 -35 18t-34.5 18t-30.5 6q-22 0 -41 -12t-28 -31q-4 -6 -11 -4l-18 7q17 43 51.5 73t78.5 30q35 0 81 -20q15 -6 35 -18t34.5 -18t30.5 -6q21 0 40.5 12t28.5 30q4 7 11 5zM233 41q44 0 77 39.5t33 92.5 q0 3 -3 95q-30 -2 -51.5 -5t-48.5 -11.5t-44 -22.5t-29 -38t-12 -57q0 -93 78 -93zM437 376l10 -284q1 -42 55 -42q6 0 6 -6q0 -27 -8 -30q-70 -24 -109 -24q-31 0 -33 26q-2 27 -3 51h-8q-59 -77 -147 -77q-68 0 -109 39.5t-41 104.5q0 161 289 166l-2 77q0 46 -21 72 t-56 26q-28 0 -47.5 -17t-19.5 -42q0 -2 0.5 -8t0.5 -10q0 -57 -51 -57q-19 0 -33 15.5t-14 40.5q0 52 48 82.5t118 30.5q75 0 125 -36.5t50 -97.5z"/>
<glyph unicode="ä" glyph-name="adieresis" horiz-adv-x="533" d="M330 671q0 23 16 38.5t38 15.5t38 -15.5t16 -38.5t-16 -38.5t-38 -15.5t-38 15.5t-16 38.5zM114 671q0 23 16 38.5t38 15.5t38 -15.5t16 -38.5t-16 -38.5t-38 -15.5t-38 15.5t-16 38.5zM233 41q44 0 77 39.5t33 92.5q0 3 -3 95q-30 -2 -51.5 -5t-48.5 -11.5t-44 -22.5 t-29 -38t-12 -57q0 -93 78 -93zM437 376l10 -284q1 -42 55 -42q6 0 6 -6q0 -27 -8 -30q-70 -24 -109 -24q-31 0 -33 26q-2 27 -3 51h-8q-59 -77 -147 -77q-68 0 -109 39.5t-41 104.5q0 161 289 166l-2 77q0 46 -21 72t-56 26q-28 0 -47.5 -17t-19.5 -42q0 -2 0.5 -8t0.5 -10 q0 -57 -51 -57q-19 0 -33 15.5t-14 40.5q0 52 48 82.5t118 30.5q75 0 125 -36.5t50 -97.5z"/>
<glyph unicode="å" glyph-name="aring" horiz-adv-x="533" d="M266 609q42 0 42 64t-42 64q-40 0 -40 -64t40 -64zM266 755q33 0 60.5 -20.5t27.5 -61.5t-27.5 -61.5t-60.5 -20.5q-32 0 -60 20.5t-28 61.5t28.5 61.5t59.5 20.5zM233 41q44 0 77 39.5t33 92.5q0 3 -3 95q-30 -2 -51.5 -5t-48.5 -11.5t-44 -22.5t-29 -38t-12 -57 q0 -93 78 -93zM437 376l10 -284q1 -42 55 -42q6 0 6 -6q0 -27 -8 -30q-70 -24 -109 -24q-31 0 -33 26q-2 27 -3 51h-8q-59 -77 -147 -77q-68 0 -109 39.5t-41 104.5q0 161 289 166l-2 77q0 46 -21 72t-56 26q-28 0 -47.5 -17t-19.5 -42q0 -2 0.5 -8t0.5 -10q0 -57 -51 -57 q-19 0 -33 15.5t-14 40.5q0 52 48 82.5t118 30.5q75 0 125 -36.5t50 -97.5z"/>
<glyph unicode="æ" glyph-name="ae" horiz-adv-x="795" d="M561 474q-107 0 -115 -188h201q7 0 7 10q-4 95 -27 136.5t-66 41.5zM343 179l-3 89q-30 -2 -51.5 -5t-48.5 -11.5t-44 -22.5t-29 -38t-12 -57q0 -93 78 -93q46 0 78.5 41t31.5 97zM561 510q90 0 142 -63t52 -177q0 -8 -6.5 -14t-13.5 -6h-280q-9 0 -9 -8q1 -63 13.5 -105 t34 -61t42 -25.5t45.5 -6.5q43 0 83.5 24.5t48.5 51.5q1 4 10 4q22 0 22 -14q0 -39 -58 -79.5t-126 -40.5q-135 0 -184 111q-20 -24 -32 -36.5t-36.5 -33.5t-51.5 -31t-57 -10q-68 0 -109 39.5t-41 104.5q0 158 273 165q16 2 16 13l-2 65q0 44 -25 71t-61 27 q-28 0 -43 -16.5t-15 -42.5q0 -2 0.5 -8t0.5 -10q0 -57 -51 -57q-19 0 -33 15.5t-14 40.5q0 52 48 82.5t118 30.5q101 0 149 -59q52 59 150 59z"/>
<glyph unicode="ç" glyph-name="ccedilla" horiz-adv-x="463" d="M232 -26q60 0 93.5 -21t33.5 -62q0 -47 -38.5 -69t-121.5 -22h-31q-3 0 -3 3q0 18 3 18h31q98 0 98 60q0 49 -65 49h-18q-15 0 -20 5t-5 20v44q-149 41 -149 251q0 71 18 123.5t50 81t69.5 42t82.5 13.5q69 0 112 -30t43 -83q0 -25 -14 -40.5t-33 -15.5q-51 0 -51 57 q0 4 0.5 10t0.5 8q0 26 -15 42t-43 16q-57 0 -86 -52.5t-29 -171.5q0 -66 11 -109.5t31.5 -63.5t39.5 -27t45 -7q51 0 80 28t39 65q1 4 10 4q22 0 22 -14q0 -46 -45 -91t-118 -45q-13 0 -37 2v-18h9z"/>
<glyph unicode="è" glyph-name="egrave" horiz-adv-x="494" d="M158 701q-11 14 -11 28q0 20 14 34.5t34 14.5q22 0 34 -15q21 -25 60 -94t39 -77q0 -5 -7 -5q-16 0 -43 19q-89 61 -120 95zM260 474q-107 0 -115 -188h201q7 0 7 10q-4 95 -27 136.5t-66 41.5zM260 510q90 0 142 -63t52 -177q0 -8 -6 -14t-14 -6h-280q-9 0 -9 -8 q1 -63 13.5 -105t34 -61t42 -25.5t45.5 -6.5q43 0 83.5 24.5t48.5 51.5q1 4 10 4q22 0 22 -14q0 -39 -58 -79.5t-126 -40.5q-43 0 -79 12t-69.5 39.5t-52.5 81t-19 127.5q0 71 18 123.5t50 81t69.5 42t82.5 13.5z"/>
<glyph unicode="é" glyph-name="eacute" horiz-adv-x="494" d="M358 701q-31 -34 -120 -95q-27 -19 -43 -19q-7 0 -7 5q0 8 39 77t60 94q12 15 34 15q20 0 34 -14.5t14 -34.5q0 -14 -11 -28zM260 474q-107 0 -115 -188h201q7 0 7 10q-4 95 -27 136.5t-66 41.5zM260 510q90 0 142 -63t52 -177q0 -8 -6 -14t-14 -6h-280q-9 0 -9 -8 q1 -63 13.5 -105t34 -61t42 -25.5t45.5 -6.5q43 0 83.5 24.5t48.5 51.5q1 4 10 4q22 0 22 -14q0 -39 -58 -79.5t-126 -40.5q-43 0 -79 12t-69.5 39.5t-52.5 81t-19 127.5q0 71 18 123.5t50 81t69.5 42t82.5 13.5z"/>
<glyph unicode="ê" glyph-name="ecircumflex" horiz-adv-x="494" d="M212 763q10 14 31 15h4q22 0 34 -15q21 -25 60 -94t39 -77q0 -5 -7 -5q-12 0 -18 2.5t-25 16.5q-48 36 -84 69q-33 -31 -83 -69q-19 -14 -25 -16.5t-18 -2.5q-7 0 -7 5q0 8 39 77t60 94zM260 474q-107 0 -115 -188h201q7 0 7 10q-4 95 -27 136.5t-66 41.5zM260 510 q90 0 142 -63t52 -177q0 -8 -6 -14t-14 -6h-280q-9 0 -9 -8q1 -63 13.5 -105t34 -61t42 -25.5t45.5 -6.5q43 0 83.5 24.5t48.5 51.5q1 4 10 4q22 0 22 -14q0 -39 -58 -79.5t-126 -40.5q-43 0 -79 12t-69.5 39.5t-52.5 81t-19 127.5q0 71 18 123.5t50 81t69.5 42t82.5 13.5z "/>
<glyph unicode="ë" glyph-name="edieresis" horiz-adv-x="494" d="M305 671q0 23 15.5 38.5t38.5 15.5t38.5 -15.5t15.5 -38.5t-15.5 -38.5t-38.5 -15.5t-38.5 15.5t-15.5 38.5zM89 671q0 23 15.5 38.5t38.5 15.5t38.5 -15.5t15.5 -38.5t-15.5 -38.5t-38.5 -15.5t-38.5 15.5t-15.5 38.5zM260 474q-107 0 -115 -188h201q7 0 7 10 q-4 95 -27 136.5t-66 41.5zM260 510q90 0 142 -63t52 -177q0 -8 -6 -14t-14 -6h-280q-9 0 -9 -8q1 -63 13.5 -105t34 -61t42 -25.5t45.5 -6.5q43 0 83.5 24.5t48.5 51.5q1 4 10 4q22 0 22 -14q0 -39 -58 -79.5t-126 -40.5q-43 0 -79 12t-69.5 39.5t-52.5 81t-19 127.5 q0 71 18 123.5t50 81t69.5 42t82.5 13.5z"/>
<glyph unicode="ì" glyph-name="igrave" horiz-adv-x="306" d="M39 701q-11 14 -11 28q0 20 14 34.5t34 14.5q22 0 34 -15q21 -25 60 -94t39 -77q0 -5 -7 -5q-16 0 -43 19q-89 61 -120 95zM208 490v-430q0 -15 30 -20l20 -4q8 -2 8 -30q0 -6 -6 -6h-204q-6 0 -6 6q0 28 8 30l20 4q30 5 30 20v351q-2 17 -14 28t-28 11q-6 0 -6 6 q0 27 8 30q70 24 109 24q31 0 31 -20z"/>
<glyph unicode="í" glyph-name="iacute" horiz-adv-x="306" d="M233 701q-31 -34 -120 -95q-27 -19 -43 -19q-7 0 -7 5q0 8 39 77t60 94q12 15 34 15q20 0 34 -14.5t14 -34.5q0 -14 -11 -28zM208 490v-430q0 -15 30 -20l20 -4q8 -2 8 -30q0 -6 -6 -6h-204q-6 0 -6 6q0 28 8 30l20 4q30 5 30 20v351q-2 17 -14 28t-28 11q-6 0 -6 6 q0 27 8 30q70 24 109 24q31 0 31 -20z"/>
<glyph unicode="î" glyph-name="icircumflex" horiz-adv-x="306" d="M115 763q10 14 31 15h4q22 0 34 -15q21 -25 60 -94t39 -77q0 -5 -7 -5q-12 0 -18 2.5t-25 16.5q-48 36 -84 69q-33 -31 -83 -69q-19 -14 -25 -16.5t-18 -2.5q-7 0 -7 5q0 8 39 77t60 94zM208 490v-430q0 -15 30 -20l20 -4q8 -2 8 -30q0 -6 -6 -6h-204q-6 0 -6 6 q0 28 8 30l20 4q30 5 30 20v351q-2 17 -14 28t-28 11q-6 0 -6 6q0 27 8 30q70 24 109 24q31 0 31 -20z"/>
<glyph unicode="ï" glyph-name="idieresis" horiz-adv-x="306" d="M207 671q0 23 15.5 38.5t38.5 15.5t38.5 -15.5t15.5 -38.5t-15.5 -38.5t-38.5 -15.5t-38.5 15.5t-15.5 38.5zM-9 671q0 23 15.5 38.5t38.5 15.5t38.5 -15.5t15.5 -38.5t-15.5 -38.5t-38.5 -15.5t-38.5 15.5t-15.5 38.5zM208 490v-430q0 -15 30 -20l20 -4q8 -2 8 -30 q0 -6 -6 -6h-204q-6 0 -6 6q0 28 8 30l20 4q30 5 30 20v351q-2 17 -14 28t-28 11q-6 0 -6 6q0 27 8 30q70 24 109 24q31 0 31 -20z"/>
<glyph unicode="ð" glyph-name="eth" horiz-adv-x="529" d="M252 474q-107 0 -107 -218q0 -230 108 -230q59 0 95 65t36 165q0 71 -4 128q-4 26 -44.5 58t-83.5 32zM447 674l-70 -28q112 -159 112 -390q0 -112 -65.5 -189t-170.5 -77q-92 0 -152.5 66t-60.5 200q0 120 51.5 187t140.5 67q72 0 125 -53q4 -4 8 -4q5 0 5 7 q-15 96 -50 164l-72 -28l-17 43l64 25q-41 58 -102 95q-17 11 -12 19l13 22q88 -42 153 -116l82 33z"/>
<glyph unicode="ñ" glyph-name="ntilde" horiz-adv-x="606" d="M494 710l18 -7q-17 -43 -51.5 -73t-78.5 -30q-35 0 -81 20q-15 6 -35 18t-34.5 18t-30.5 6q-22 0 -41 -12t-28 -31q-4 -6 -11 -4l-18 7q17 43 51.5 73t78.5 30q35 0 81 -20q15 -6 35 -18t34.5 -18t30.5 -6q21 0 40.5 12t28.5 30q4 7 11 5zM198 490v-62q74 82 160 82 q72 0 111 -36.5t39 -95.5v-320q0 -13 30 -18l20 -4q8 -2 8 -30q0 -6 -6 -6h-204q-6 0 -6 6q0 28 8 30l20 4q30 5 30 18v320q0 39 -22.5 60t-60.5 21q-30 0 -66 -20.5t-51 -45.5v-333q0 -15 30 -20l20 -4q8 -2 8 -30q0 -6 -6 -6h-204q-6 0 -6 6q0 28 8 30l20 4q30 5 30 20 v357q-3 38 -52 38q-6 0 -6 6q0 28 8 30q74 19 109 19q31 0 31 -20z"/>
<glyph unicode="ò" glyph-name="ograve" horiz-adv-x="520" d="M180 701q-11 14 -11 28q0 20 14 34.5t34 14.5q22 0 34 -15q21 -25 60 -94t39 -77q0 -5 -7 -5q-16 0 -43 19q-89 61 -120 95zM260 474q-57 0 -86 -52.5t-29 -171.5t29 -171.5t86 -52.5t86 52.5t29 171.5t-29 171.5t-86 52.5zM260 -10q-45 0 -82.5 13.5t-69.5 42t-50 81 t-18 123.5t18 123.5t50 81t69.5 42t82.5 13.5t82.5 -13.5t69.5 -42t50 -81t18 -123.5t-18 -123.5t-50 -81t-69.5 -42t-82.5 -13.5z"/>
<glyph unicode="ó" glyph-name="oacute" horiz-adv-x="520" d="M339 701q-31 -34 -120 -95q-27 -19 -43 -19q-7 0 -7 5q0 8 39 77t60 94q12 15 34 15q20 0 34 -14.5t14 -34.5q0 -14 -11 -28zM260 474q-57 0 -86 -52.5t-29 -171.5t29 -171.5t86 -52.5t86 52.5t29 171.5t-29 171.5t-86 52.5zM260 -10q-45 0 -82.5 13.5t-69.5 42t-50 81 t-18 123.5t18 123.5t50 81t69.5 42t82.5 13.5t82.5 -13.5t69.5 -42t50 -81t18 -123.5t-18 -123.5t-50 -81t-69.5 -42t-82.5 -13.5z"/>
<glyph unicode="ô" glyph-name="ocircumflex" horiz-adv-x="520" d="M225 763q10 14 31 15h4q22 0 34 -15q21 -25 60 -94t39 -77q0 -5 -7 -5q-12 0 -18 2.5t-25 16.5q-48 36 -84 69q-33 -31 -83 -69q-19 -14 -25 -16.5t-18 -2.5q-7 0 -7 5q0 8 39 77t60 94zM260 474q-57 0 -86 -52.5t-29 -171.5t29 -171.5t86 -52.5t86 52.5t29 171.5 t-29 171.5t-86 52.5zM260 -10q-45 0 -82.5 13.5t-69.5 42t-50 81t-18 123.5t18 123.5t50 81t69.5 42t82.5 13.5t82.5 -13.5t69.5 -42t50 -81t18 -123.5t-18 -123.5t-50 -81t-69.5 -42t-82.5 -13.5z"/>
<glyph unicode="õ" glyph-name="otilde" horiz-adv-x="520" d="M447 695l18 -7q-17 -43 -51.5 -73t-78.5 -30q-35 0 -81 20q-15 6 -35 18t-34.5 18t-30.5 6q-22 0 -41 -12t-28 -31q-4 -6 -11 -4l-18 7q17 43 51.5 73t78.5 30q35 0 81 -20q15 -6 35 -18t34.5 -18t30.5 -6q21 0 40.5 12t28.5 30q4 7 11 5zM260 474q-57 0 -86 -52.5 t-29 -171.5t29 -171.5t86 -52.5t86 52.5t29 171.5t-29 171.5t-86 52.5zM260 -10q-45 0 -82.5 13.5t-69.5 42t-50 81t-18 123.5t18 123.5t50 81t69.5 42t82.5 13.5t82.5 -13.5t69.5 -42t50 -81t18 -123.5t-18 -123.5t-50 -81t-69.5 -42t-82.5 -13.5z"/>
<glyph unicode="ö" glyph-name="odieresis" horiz-adv-x="520" d="M314 671q0 23 16 38.5t38 15.5t38 -15.5t16 -38.5t-16 -38.5t-38 -15.5t-38 15.5t-16 38.5zM98 671q0 23 16 38.5t38 15.5t38 -15.5t16 -38.5t-16 -38.5t-38 -15.5t-38 15.5t-16 38.5zM260 474q-57 0 -86 -52.5t-29 -171.5t29 -171.5t86 -52.5t86 52.5t29 171.5 t-29 171.5t-86 52.5zM260 -10q-45 0 -82.5 13.5t-69.5 42t-50 81t-18 123.5t18 123.5t50 81t69.5 42t82.5 13.5t82.5 -13.5t69.5 -42t50 -81t18 -123.5t-18 -123.5t-50 -81t-69.5 -42t-82.5 -13.5z"/>
<glyph unicode="÷" glyph-name="divide" horiz-adv-x="569" d="M223 80q0 26 17.5 43.5t43.5 17.5t43.5 -17.5t17.5 -43.5t-17.5 -43.5t-43.5 -17.5t-43.5 17.5t-17.5 43.5zM223 468q0 26 17.5 43.5t43.5 17.5t43.5 -17.5t17.5 -43.5t-17.5 -43.5t-43.5 -17.5t-43.5 17.5t-17.5 43.5zM40 246v56h489v-56h-489z"/>
<glyph unicode="ø" glyph-name="oslash" horiz-adv-x="520" d="M260 474q-57 0 -86 -52.5t-29 -171.5q0 -54 6 -95l204 246q-27 73 -95 73zM260 26q57 0 86 52.5t29 171.5q0 55 -6 94l-204 -245q27 -73 95 -73zM260 -10q-89 0 -145 49l-52 -63l-36 30l57 68q-44 67 -44 176q0 71 18 123.5t50 81t69.5 42t82.5 13.5q89 0 145 -49l52 63 l36 -30l-57 -69q44 -65 44 -175q0 -71 -18 -123.5t-50 -81t-69.5 -42t-82.5 -13.5z"/>
<glyph unicode="ù" glyph-name="ugrave" horiz-adv-x="586" d="M194 701q-11 14 -11 28q0 20 14 34.5t34 14.5q22 0 34 -15q21 -25 60 -94t39 -77q0 -5 -7 -5q-16 0 -43 19q-89 61 -120 95zM198 480v-358q0 -39 22.5 -60t60.5 -21q30 0 65.5 20t51.5 45v301q0 38 -52 38q-6 0 -6 6q0 28 8 30q74 19 119 19q31 0 31 -20v-388 q0 -42 52 -42q6 0 6 -6q0 -27 -8 -30q-70 -24 -109 -24q-31 0 -31 20v62q-76 -82 -160 -82q-72 0 -111 36.5t-39 95.5v285q0 38 -52 38q-6 0 -6 6q0 28 8 30q74 19 119 19q31 0 31 -20z"/>
<glyph unicode="ú" glyph-name="uacute" horiz-adv-x="586" d="M391 701q-31 -34 -120 -95q-27 -19 -43 -19q-7 0 -7 5q0 8 39 77t60 94q12 15 34 15q20 0 34 -14.5t14 -34.5q0 -14 -11 -28zM198 480v-358q0 -39 22.5 -60t60.5 -21q30 0 65.5 20t51.5 45v301q0 38 -52 38q-6 0 -6 6q0 28 8 30q74 19 119 19q31 0 31 -20v-388 q0 -42 52 -42q6 0 6 -6q0 -27 -8 -30q-70 -24 -109 -24q-31 0 -31 20v62q-76 -82 -160 -82q-72 0 -111 36.5t-39 95.5v285q0 38 -52 38q-6 0 -6 6q0 28 8 30q74 19 119 19q31 0 31 -20z"/>
<glyph unicode="û" glyph-name="ucircumflex" horiz-adv-x="586" d="M258 763q10 14 31 15h4q22 0 34 -15q21 -25 60 -94t39 -77q0 -5 -7 -5q-12 0 -18 2.5t-25 16.5q-48 36 -84 69q-33 -31 -83 -69q-19 -14 -25 -16.5t-18 -2.5q-7 0 -7 5q0 8 39 77t60 94zM198 480v-358q0 -39 22.5 -60t60.5 -21q30 0 65.5 20t51.5 45v301q0 38 -52 38 q-6 0 -6 6q0 28 8 30q74 19 119 19q31 0 31 -20v-388q0 -42 52 -42q6 0 6 -6q0 -27 -8 -30q-70 -24 -109 -24q-31 0 -31 20v62q-76 -82 -160 -82q-72 0 -111 36.5t-39 95.5v285q0 38 -52 38q-6 0 -6 6q0 28 8 30q74 19 119 19q31 0 31 -20z"/>
<glyph unicode="ü" glyph-name="udieresis" horiz-adv-x="586" d="M347 671q0 23 15.5 38.5t38.5 15.5t38.5 -15.5t15.5 -38.5t-15.5 -38.5t-38.5 -15.5t-38.5 15.5t-15.5 38.5zM131 671q0 23 15.5 38.5t38.5 15.5t38.5 -15.5t15.5 -38.5t-15.5 -38.5t-38.5 -15.5t-38.5 15.5t-15.5 38.5zM198 480v-358q0 -39 22.5 -60t60.5 -21 q30 0 65.5 20t51.5 45v301q0 38 -52 38q-6 0 -6 6q0 28 8 30q74 19 119 19q31 0 31 -20v-388q0 -42 52 -42q6 0 6 -6q0 -27 -8 -30q-70 -24 -109 -24q-31 0 -31 20v62q-76 -82 -160 -82q-72 0 -111 36.5t-39 95.5v285q0 38 -52 38q-6 0 -6 6q0 28 8 30q74 19 119 19 q31 0 31 -20z"/>
<glyph unicode="ý" glyph-name="yacute" horiz-adv-x="524" d="M415 701q-31 -34 -120 -95q-27 -19 -43 -19q-7 0 -7 5q0 8 39 77t60 94q12 15 34 15q20 0 34 -14.5t14 -34.5q0 -14 -11 -28zM190 439l96 -284q4 -10 10 -10q7 0 10 10l114 283q0 1 0.5 2.5t0.5 2.5q0 12 -18 17l-20 4q-8 2 -8 30q0 6 6 6h143q6 0 6 -6q0 -28 -8 -30 l-20 -4q-25 -5 -33 -22l-221 -547q-16 -41 -43 -66t-78 -25q-36 0 -62.5 14.5t-26.5 39.5q0 51 48 51q15 0 25 -7t14 -15t10 -15t14 -7q36 0 50 30l33 81l1 5q3 8 3 15t-5 25l-150 421q-8 17 -33 22l-20 4q-8 2 -8 30q0 6 6 6h201q6 0 6 -6q0 -28 -8 -30l-20 -4 q-20 -3 -15 -21z"/>
<glyph unicode="þ" glyph-name="thorn" horiz-adv-x="583" d="M317 41q121 0 121 199q0 104 -24.5 161.5t-88.5 57.5q-38 0 -77.5 -29t-39.5 -57v-231q2 -40 36.5 -70.5t72.5 -30.5zM358 510q52 0 89.5 -24t57.5 -65t29 -85.5t9 -95.5q0 -124 -56.5 -187t-128.5 -63q-46 0 -86 21t-64 52v-203q0 -15 30 -20l20 -4q8 -2 8 -30 q0 -6 -6 -6h-204q-6 0 -6 6q0 28 8 30l20 4q30 5 30 18v849q-3 38 -52 38q-6 0 -6 6q0 28 8 30q74 19 119 19q31 0 31 -20v-343q65 73 150 73z"/>
</font>
</defs>
</svg>
